STARTFONT 2.1
FONT -FontForge-ITC Benguiat Gothic Std-Bold-R-Normal--64-610-75-75-P-338-ISO8859-1
SIZE 61 75 75
FONTBOUNDINGBOX 75 76 -11 -16
COMMENT "Generated by fontforge, http://fontforge.sourceforge.net"
COMMENT "Copyright 1990, 1995 , 2002Adobe Systems Incorporated. All Rights Reserved. ITC Benguiat Gothic is a registered trademark of International Typeface Corporation."
STARTPROPERTIES 40
FOUNDRY "FontForge"
FAMILY_NAME "ITC Benguiat Gothic Std"
WEIGHT_NAME "Bold"
SLANT "R"
SETWIDTH_NAME "Normal"
ADD_STYLE_NAME ""
PIXEL_SIZE 64
POINT_SIZE 610
RESOLUTION_X 75
RESOLUTION_Y 75
SPACING "P"
AVERAGE_WIDTH 338
CHARSET_REGISTRY "ISO8859"
CHARSET_ENCODING "1"
FONTNAME_REGISTRY ""
CHARSET_COLLECTIONS "ISOLatin1Encoding"
FONT_NAME "BenguiatGothicStd-Bold"
FACE_NAME "ITC Benguiat Gothic Std Bold"
COPYRIGHT "Copyright 1990, 1995 , 2002Adobe Systems Incorporated. All Rights Reserved. ITC Benguiat Gothic is a registered trademark of International Typeface Corporation."
FONT_VERSION "001.001"
FONT_ASCENT 44
FONT_DESCENT 20
UNDERLINE_POSITION -6
UNDERLINE_THICKNESS 4
X_HEIGHT 33
CAP_HEIGHT 43
RAW_ASCENT 691
RAW_DESCENT 309
NORM_SPACE 20
RELATIVE_WEIGHT 70
RELATIVE_SETWIDTH 50
SUPERSCRIPT_X 0
SUPERSCRIPT_Y 22
SUPERSCRIPT_SIZE 38
SUBSCRIPT_X 0
SUBSCRIPT_Y 4
SUBSCRIPT_SIZE 38
FIGURE_WIDTH 39
AVG_LOWERCASE_WIDTH 329
AVG_UPPERCASE_WIDTH 388
ENDPROPERTIES
CHARS 253
STARTCHAR space
ENCODING 32
SWIDTH 305 0
DWIDTH 20 0
BBX 1 1 0 0
BITMAP
00
ENDCHAR
STARTCHAR exclam
ENCODING 33
SWIDTH 333 0
DWIDTH 21 0
BBX 9 45 6 -1
BITMAP
3E00
7F00
7F80
FF80
FF80
FF80
FF80
FF80
FF80
FF80
FF80
FF80
FF80
FF80
FF80
FF80
FF80
FF80
FF80
FF80
FF80
7F80
7F80
7F80
7F80
7F80
7F00
7F00
7F00
7F00
3E00
1C00
0000
0000
0000
1C00
7F00
7F80
FF80
FF80
FF80
FF80
FF80
7F00
3E00
ENDCHAR
STARTCHAR quotedbl
ENCODING 34
SWIDTH 333 0
DWIDTH 21 0
BBX 17 18 2 27
BITMAP
780F00
FC1F80
FE1F80
FE1F80
FE1F80
FE1F80
FE1F80
FE1F80
FE1F80
FE1F80
FE1F80
FE1F80
FE1F80
FE1F80
FE1F80
FE1F80
7C1F80
380F00
ENDCHAR
STARTCHAR numbersign
ENCODING 35
SWIDTH 611 0
DWIDTH 39 0
BBX 33 44 3 0
BITMAP
003F81F800
003F01F800
003F01F800
003F01F800
003F01F800
003F03F000
003F03F000
007F03F000
007E03F000
007E03F000
007E03F000
007E07F000
3FFFFFFF80
3FFFFFFF80
3FFFFFFF80
3FFFFFFF80
3FFFFFFF80
3FFFFFFF80
00FC07E000
00FC0FC000
00FC0FC000
00FC0FC000
01F80FC000
01F80FC000
01F80FC000
01F80FC000
FFFFFFFE00
FFFFFFFE00
FFFFFFFE00
FFFFFFFE00
FFFFFFFE00
FFFFFFFE00
03F01F8000
03F03F8000
03F03F0000
03F03F0000
07F03F0000
07E03F0000
07E03F0000
07E03F0000
07E07F0000
07E07E0000
07E07E0000
0FC07E0000
ENDCHAR
STARTCHAR dollar
ENCODING 36
SWIDTH 611 0
DWIDTH 39 0
BBX 35 54 2 -5
BITMAP
0003C00000
0007E00000
0007F00000
000FF00000
000FF00000
000FF00000
000FF00000
000FF00000
000FF00000
00FFFFF800
07FFFFFC00
0FFFFFFE00
1FFFFFFE00
3FFFFFFC00
7FFFFFFC00
7FFFFFF000
7F80000000
FF80000000
FF80000000
FFC0000000
7FFE000000
7FFFFC0000
3FFFFFE000
3FFFFFFC00
0FFFFFFE00
03FFFFFF00
007FFFFF80
000FFFFFC0
000FF1FFC0
000FF07FC0
000FF03FE0
000FF03FE0
000FF03FE0
000FF03FC0
000FF03FC0
000FF03FC0
000FF07FC0
000FF1FF80
3FFFFFFF80
7FFFFFFF00
7FFFFFFE00
7FFFFFFC00
7FFFFFF800
7FFFFFE000
3FFFFE0000
000FF00000
000FF00000
000FF00000
000FF00000
000FF00000
000FF00000
0007F00000
0007E00000
0007E00000
ENDCHAR
STARTCHAR percent
ENCODING 37
SWIDTH 944 0
DWIDTH 60 0
BBX 55 46 3 -1
BITMAP
00FE00003C0000
07FFC0007E0000
0FFFE0007F0000
1FFFF000FF0000
3FFFF800FF0000
7FFFFC01FE0000
7FFFFC01FE0000
7F83FC03FC0000
FF01FE03FC0000
FF01FE07F80000
FF01FE07F80000
FF01FE0FF00000
FF01FE0FF00000
FF01FE1FF00000
FF01FE1FE00000
FF83FE1FE00000
7FC7FC3FC00000
7FFFFC3FC00000
3FFFF87F800000
3FFFF87F800000
1FFFF0FF000000
0FFFE0FF007000
03FF81FE07FF00
003801FE0FFFC0
000003FC1FFFE0
000003FC3FFFF0
000007F87FFFF8
000007F8FFFFF8
00000FF0FF87FC
00000FF0FF03FC
00001FE1FE03FC
00001FE1FE01FC
00003FC1FE01FE
00003FC1FE01FE
00007F81FE01FC
00007F81FE03FC
00007F80FF03FC
0000FF00FF87FC
0000FF00FFFFF8
0001FE007FFFF8
0001FE003FFFF0
0003FC003FFFE0
0003FC001FFFC0
0003F80007FF80
0001F80001FE00
0000E000000000
ENDCHAR
STARTCHAR ampersand
ENCODING 38
SWIDTH 778 0
DWIDTH 50 0
BBX 46 46 2 -1
BITMAP
0003FC000000
000FFF000000
003FFFC00000
007FFFE00000
00FFFFF00000
01FFFFF00000
01FFFFF80000
01FF0FF80000
03FE07F80000
03FE07FC0000
03FE03FC0000
03FE03FC7E00
03FE07FC7E00
01FE07F87F00
01FF07F87F00
01FF8FF87F80
00FFFFF07F80
01FFFFF07F80
03FFFFE07F80
07FFFFC07F80
0FFFFF803F80
1FFFFF007F80
3FF7FF007F80
3FE3FFC07F80
7FC1FFE07F80
7FC0FFF07F80
FF807FF87F80
FF801FFC7F80
FF800FFEFF00
FF8007FFFF00
FF8003FFFF00
FF8001FFFE00
FF8000FFFE00
FF80007FFC00
FFC0003FFC00
7FE0001FFE00
7FF0003FFF00
3FF800FFFF80
3FFF0FFFFFC0
1FFFFFFFFFF0
0FFFFFFFFFF8
07FFFFFF3FF8
03FFFFFC1FFC
00FFFFF00FFC
003FFFC003F8
0007FE0001F0
ENDCHAR
STARTCHAR quotesingle
ENCODING 39
SWIDTH 222 0
DWIDTH 14 0
BBX 6 18 4 27
BITMAP
78
FC
FC
FC
FC
FC
FC
FC
FC
FC
FC
FC
FC
FC
FC
FC
FC
78
ENDCHAR
STARTCHAR parenleft
ENCODING 40
SWIDTH 389 0
DWIDTH 25 0
BBX 19 61 4 -15
BITMAP
000380
000FC0
001FE0
003FE0
007FC0
00FFC0
00FF80
01FF00
03FE00
03FC00
07FC00
0FF800
0FF000
1FF000
1FE000
1FE000
3FC000
3FC000
7FC000
7F8000
7F8000
7F8000
FF0000
FF0000
FF0000
FF0000
FF0000
FF0000
FF0000
FF0000
FF0000
FF0000
FF0000
FF0000
FF0000
FF0000
FF0000
FF0000
FF0000
7F8000
7F8000
7F8000
7FC000
3FC000
3FC000
1FE000
1FE000
1FF000
0FF000
0FF800
07FC00
03FC00
03FE00
01FF00
00FF80
00FFC0
007FC0
003FE0
001FE0
000FC0
000380
ENDCHAR
STARTCHAR parenright
ENCODING 41
SWIDTH 389 0
DWIDTH 25 0
BBX 19 61 2 -15
BITMAP
380000
7E0000
FF0000
FF8000
FFC000
7FC000
3FE000
1FF000
0FF800
0FF800
07FC00
03FC00
03FE00
01FE00
00FF00
00FF00
00FF80
007F80
007F80
003FC0
003FC0
003FC0
003FC0
001FE0
001FE0
001FE0
001FE0
001FE0
001FE0
001FE0
001FE0
001FE0
001FE0
001FE0
001FE0
001FE0
001FE0
001FE0
003FC0
003FC0
003FC0
003FC0
007F80
007F80
00FF80
00FF00
00FF00
01FE00
03FE00
03FC00
07FC00
0FF800
0FF800
1FF000
3FE000
7FE000
FFC000
FF8000
FF0000
7E0000
380000
ENDCHAR
STARTCHAR asterisk
ENCODING 42
SWIDTH 444 0
DWIDTH 28 0
BBX 21 23 4 22
BITMAP
00F000
00F800
01F800
01F800
70F8E0
F8F1F0
FCF3F8
FEF7F8
FF7FF0
7FFFE0
07FE00
03FC00
1FFF80
7F7FE0
FFF7F0
FEF7F8
FCFBF0
F8F9F0
31F860
01F800
01F800
00F800
007000
ENDCHAR
STARTCHAR plus
ENCODING 43
SWIDTH 600 0
DWIDTH 38 0
BBX 32 33 3 0
BITMAP
0007F000
0007F000
0007F000
0007F000
0007F000
0007F000
0007F000
0007F000
0007F000
0007F000
0007F000
0007F000
0007F000
FFFFFFFF
FFFFFFFF
FFFFFFFF
FFFFFFFF
FFFFFFFF
FFFFFFFF
FFFFFFFF
0007F000
0007F000
0007F000
0007F000
0007F000
0007F000
0007F000
0007F000
0007F000
0007F000
0007F000
0007F000
0007F000
ENDCHAR
STARTCHAR comma
ENCODING 44
SWIDTH 305 0
DWIDTH 20 0
BBX 12 18 3 -7
BITMAP
03C0
07E0
0FF0
0FF0
1FF0
1FF0
1FE0
3FE0
3FC0
3FC0
7F80
7F80
7F80
FF00
FF00
FE00
7E00
3800
ENDCHAR
STARTCHAR hyphen
ENCODING 45
SWIDTH 333 0
DWIDTH 21 0
BBX 16 7 3 13
BITMAP
7FFC
FFFE
FFFE
FFFF
FFFE
FFFE
7FFC
ENDCHAR
STARTCHAR period
ENCODING 46
SWIDTH 305 0
DWIDTH 20 0
BBX 9 9 5 -1
BITMAP
3E00
7F00
7F80
FF80
FF80
FF80
7F80
7F00
1E00
ENDCHAR
STARTCHAR slash
ENCODING 47
SWIDTH 278 0
DWIDTH 18 0
BBX 22 46 -2 -1
BITMAP
0000F0
0001F8
0003F8
0003FC
0003FC
0007F8
0007F8
000FF8
000FF0
000FF0
001FF0
001FE0
001FE0
003FE0
003FC0
003FC0
007F80
007F80
00FF80
00FF00
00FF00
01FF00
01FE00
01FE00
03FC00
03FC00
03FC00
07F800
07F800
0FF800
0FF000
0FF000
1FF000
1FE000
1FE000
3FC000
3FC000
3FC000
7F8000
7F8000
FF8000
FF0000
FF0000
FE0000
7E0000
3C0000
ENDCHAR
STARTCHAR zero
ENCODING 48
SWIDTH 611 0
DWIDTH 39 0
BBX 35 46 2 -1
BITMAP
0007FC0000
003FFF0000
007FFFC000
01FFFFF000
03FFFFF800
07FFFFFC00
07FFFFFC00
0FFFFFFE00
1FFC07FF00
1FF803FF00
3FF001FF80
3FE000FF80
3FE000FF80
7FC0007FC0
7FC0007FC0
7F80003FC0
7F80003FC0
FF80003FE0
FF80003FE0
FF80003FE0
FF80003FE0
FF00001FE0
FF00001FE0
FF00001FE0
FF00001FE0
FF80003FE0
FF80003FE0
FF80003FE0
FF80003FE0
7F80003FC0
7F80003FC0
7FC0007FC0
7FC0007FC0
3FE000FF80
3FE000FF80
3FF001FF80
1FF803FF00
1FFC07FF00
0FFFFFFE00
07FFFFFC00
07FFFFFC00
03FFFFF800
01FFFFF000
007FFFC000
001FFF8000
0007FC0000
ENDCHAR
STARTCHAR one
ENCODING 49
SWIDTH 611 0
DWIDTH 39 0
BBX 30 45 6 0
BITMAP
00078000
003FE000
01FFE000
3FFFE000
FFFFE000
FFFFE000
FFFFE000
FFFFE000
FFFFE000
3F1FE000
001FE000
001FE000
001FE000
001FE000
001FE000
001FE000
001FE000
001FE000
001FE000
001FE000
001FE000
001FE000
001FE000
001FE000
001FE000
001FE000
001FE000
001FE000
001FE000
001FE000
001FE000
001FE000
001FE000
001FE000
001FE000
001FE000
001FE000
001FE000
7FFFFFF8
FFFFFFFC
FFFFFFFC
FFFFFFFC
FFFFFFFC
7FFFFFFC
3FFFFFF8
ENDCHAR
STARTCHAR two
ENCODING 50
SWIDTH 611 0
DWIDTH 39 0
BBX 35 44 2 0
BITMAP
0FFFFF0000
1FFFFFE000
3FFFFFF000
3FFFFFFC00
3FFFFFFE00
3FFFFFFE00
1FFFFFFF00
07FFFFFF00
000003FF80
000001FF80
000001FF80
000001FF80
000001FF80
000001FF80
000001FF80
000003FF00
000007FF00
00001FFE00
00003FFE00
0000FFFC00
0003FFF800
0007FFF000
001FFFE000
007FFF8000
00FFFF0000
03FFFC0000
07FFF00000
0FFFC00000
1FFF000000
3FFC000000
3FF8000000
7FE0000000
7FE0000000
7FC0000000
7FC0000000
7FC0000000
FFC0000000
FFFFFFFF80
FFFFFFFFC0
7FFFFFFFE0
7FFFFFFFE0
7FFFFFFFC0
3FFFFFFFC0
1FFFFFFF80
ENDCHAR
STARTCHAR three
ENCODING 51
SWIDTH 611 0
DWIDTH 39 0
BBX 35 44 2 0
BITMAP
1FFFFFF800
3FFFFFFE00
3FFFFFFF00
3FFFFFFF00
3FFFFFFF00
3FFFFFFF00
1FFFFFFE00
00001FFC00
00003FF800
0000FFE000
0003FFC000
000FFF0000
003FFC0000
00FFF00000
01FFE00000
07FFFF8000
07FFFFE000
07FFFFF800
07FFFFFC00
03FFFFFE00
01FFFFFF00
00001FFF80
000007FFC0
000001FFC0
000000FFC0
0000007FE0
0000003FE0
0000003FE0
0000003FE0
0000001FE0
0000003FE0
0000003FE0
0000003FE0
0000007FE0
000000FFC0
000003FFC0
1FFFFFFF80
7FFFFFFF80
7FFFFFFF00
FFFFFFFE00
FFFFFFFC00
7FFFFFF000
7FFFFFC000
3FFFFE0000
ENDCHAR
STARTCHAR four
ENCODING 52
SWIDTH 611 0
DWIDTH 39 0
BBX 38 46 1 -1
BITMAP
000007E000
00003FF000
00007FF800
0001FFF800
0003FFF800
0007FFFC00
000FFFFC00
001FFFFC00
003FFFFC00
007FF7FC00
00FFC7FC00
01FF87FC00
01FF07FC00
03FE07FC00
07FC07FC00
07F807FC00
0FF007FC00
0FF007FC00
1FE007FC00
1FE007FC00
3FC007FC00
3FC007FC00
3F8007FC00
7F8007FC00
7F8007FC00
7F0007FC00
FF0007FC00
FF0007FC00
FFFFFFFFF0
FFFFFFFFF8
FFFFFFFFFC
FFFFFFFFFC
FFFFFFFFFC
7FFFFFFFF8
3FFFFFFFF8
000007FC00
000007FC00
000007FC00
000007FC00
000007FC00
000007FC00
000007F800
000007F800
000007F800
000003F800
000001E000
ENDCHAR
STARTCHAR five
ENCODING 53
SWIDTH 611 0
DWIDTH 39 0
BBX 36 44 2 0
BITMAP
07FFFFF800
0FFFFFFC00
0FFFFFFE00
1FFFFFFE00
1FFFFFFE00
1FFFFFFE00
1FFFFFFC00
1FE0000000
1FE0000000
1FE0000000
1FE0000000
1FE0000000
3FE0000000
3FFFF80000
3FFFFF0000
3FFFFFE000
3FFFFFF800
3FFFFFFC00
1FFFFFFE00
0FFFFFFF00
00003FFF80
000007FFC0
000001FFC0
0000007FE0
0000007FE0
0000003FE0
0000003FF0
0000001FF0
0000001FF0
0000001FF0
0000001FF0
0000001FF0
0000003FE0
0000003FE0
0000007FE0
000001FFC0
00000FFFC0
3FFFFFFF80
7FFFFFFF00
FFFFFFFE00
FFFFFFFC00
7FFFFFF000
7FFFFFC000
3FFFFE0000
ENDCHAR
STARTCHAR six
ENCODING 54
SWIDTH 611 0
DWIDTH 39 0
BBX 35 46 2 -1
BITMAP
0003FFFF00
001FFFFF80
007FFFFFC0
00FFFFFFC0
01FFFFFFC0
03FFFFFFC0
07FFFFFF80
0FFFC00000
0FFE000000
1FF8000000
1FF0000000
3FF0000000
3FE0000000
3FC0000000
7FC1FF8000
7FCFFFE000
7FFFFFF800
7FFFFFFC00
FFFFFFFE00
FFFFFFFF00
FFFFFFFF80
FFFE07FF80
FFF801FFC0
FFF000FFC0
FFE0007FE0
FFE0003FE0
FFC0003FE0
FFC0003FE0
FFC0001FE0
FFC0001FE0
7FC0001FE0
7FC0001FE0
7FC0003FE0
7FC0003FE0
3FE0007FE0
3FF0007FC0
3FF000FFC0
1FFC01FF80
0FFF0FFF80
0FFFFFFF00
07FFFFFE00
03FFFFFC00
01FFFFF800
00FFFFF000
003FFFC000
0003FE0000
ENDCHAR
STARTCHAR seven
ENCODING 55
SWIDTH 611 0
DWIDTH 39 0
BBX 31 45 4 -1
BITMAP
3FFFFFF8
7FFFFFFE
FFFFFFFE
FFFFFFFE
FFFFFFFE
7FFFFFFE
3FFFFFFE
000001FE
000003FE
000003FE
000003FC
000007FC
00000FFC
00000FF8
00001FF8
00003FF0
00003FF0
00007FE0
0000FFC0
0001FFC0
0001FF80
0003FF00
0007FE00
0007FE00
000FFC00
001FF800
001FF800
003FF000
003FE000
007FE000
007FC000
007FC000
00FF8000
00FF8000
00FF8000
00FF8000
00FF8000
00FF8000
00FF8000
00FF8000
00FF8000
00FF8000
007F0000
003F0000
001E0000
ENDCHAR
STARTCHAR eight
ENCODING 56
SWIDTH 611 0
DWIDTH 39 0
BBX 35 46 2 -1
BITMAP
0007FC0000
003FFF8000
00FFFFE000
03FFFFF800
07FFFFFC00
0FFFFFFE00
0FFFFFFF00
1FFE0FFF00
1FF803FF80
3FF001FF80
3FE000FF80
3FE000FF80
3FE000FF80
3FE000FF80
3FF001FF80
1FF803FF80
1FFC07FF00
0FFFFFFE00
07FFFFFE00
03FFFFF800
03FFFFF800
07FFFFFE00
1FFFFFFF00
3FFFFFFF80
3FFC07FFC0
7FF001FFC0
FFE000FFE0
FFC0007FE0
FF80003FE0
FF80003FE0
FF80003FE0
FF80003FE0
FF80003FE0
FF80003FE0
FFC0007FE0
FFC000FFE0
FFF001FFE0
7FF803FFC0
7FFFFFFFC0
3FFFFFFF80
1FFFFFFF00
0FFFFFFE00
07FFFFFC00
01FFFFF000
007FFFC000
000FFE0000
ENDCHAR
STARTCHAR nine
ENCODING 57
SWIDTH 611 0
DWIDTH 39 0
BBX 35 46 2 -1
BITMAP
000FFC0000
007FFF8000
01FFFFE000
03FFFFF000
07FFFFF800
0FFFFFFC00
1FFFFFFE00
3FFE1FFF00
3FF007FF00
7FE001FF80
7FC000FF80
FFC000FF80
FF80007FC0
FF80007FC0
FF00007FC0
FF00007FC0
FF00007FE0
FF00007FE0
FF80007FE0
FF80007FE0
FF8000FFE0
FFC000FFE0
7FE001FFE0
7FF003FFE0
3FFC0FFFE0
3FFFFFFFE0
1FFFFFFFE0
0FFFFFFFE0
07FFFFFFC0
03FFFFFFC0
00FFFE7FC0
003FF07FC0
0000007F80
000000FF80
000000FF80
000001FF00
000003FF00
00000FFE00
00007FFE00
3FFFFFFC00
7FFFFFF800
7FFFFFF000
7FFFFFE000
7FFFFFC000
3FFFFF0000
1FFFF80000
ENDCHAR
STARTCHAR colon
ENCODING 58
SWIDTH 305 0
DWIDTH 20 0
BBX 9 28 5 -1
BITMAP
3E00
7F00
7F80
FF80
FF80
FF80
7F80
7F00
3E00
0000
0000
0000
0000
0000
0000
0000
0000
0000
0000
3E00
7F00
7F80
FF80
FF80
FF80
7F80
7F00
1E00
ENDCHAR
STARTCHAR semicolon
ENCODING 59
SWIDTH 305 0
DWIDTH 20 0
BBX 11 34 3 -7
BITMAP
1F80
3FC0
3FC0
3FE0
3FE0
3FC0
3FC0
1FC0
0F00
0000
0000
0000
0000
0000
0000
0000
07C0
0FE0
1FE0
1FE0
1FE0
3FE0
3FC0
3FC0
7FC0
7F80
7F80
FF00
FF00
FE00
FE00
FC00
FC00
1000
ENDCHAR
STARTCHAR less
ENCODING 60
SWIDTH 600 0
DWIDTH 38 0
BBX 32 33 3 0
BITMAP
00000001
00000007
0000003F
000000FF
000007FF
00001FFF
0000FFFF
0003FFFE
001FFFF8
007FFFC0
03FFFF00
0FFFF800
7FFFE000
FFFF0000
FFFC0000
FFE00000
FF800000
FFE00000
FFFC0000
FFFF0000
7FFFE000
0FFFF800
03FFFF00
007FFFC0
001FFFF8
0003FFFE
0000FFFF
00001FFF
000007FF
000000FF
0000003F
00000007
00000001
ENDCHAR
STARTCHAR equal
ENCODING 61
SWIDTH 600 0
DWIDTH 38 0
BBX 32 20 3 6
BITMAP
FFFFFFFF
FFFFFFFF
FFFFFFFF
FFFFFFFF
FFFFFFFF
FFFFFFFF
FFFFFFFF
00000000
00000000
00000000
00000000
00000000
00000000
FFFFFFFF
FFFFFFFF
FFFFFFFF
FFFFFFFF
FFFFFFFF
FFFFFFFF
FFFFFFFF
ENDCHAR
STARTCHAR greater
ENCODING 62
SWIDTH 600 0
DWIDTH 38 0
BBX 32 33 3 0
BITMAP
80000000
F0000000
FC000000
FF800000
FFE00000
FFFC0000
FFFF0000
7FFFE000
0FFFF800
03FFFE00
007FFFC0
001FFFF0
0003FFFE
0000FFFF
00001FFF
000007FF
000000FF
000007FF
00001FFF
0000FFFF
0003FFFE
001FFFF0
007FFFC0
03FFFF00
0FFFF800
7FFFE000
FFFF0000
FFFC0000
FFE00000
FF800000
FC000000
F0000000
80000000
ENDCHAR
STARTCHAR question
ENCODING 63
SWIDTH 500 0
DWIDTH 32 0
BBX 28 45 1 -1
BITMAP
3FFFF800
7FFFFF00
FFFFFF80
FFFFFFC0
FFFFFFE0
7FFFFFF0
7FFFFFF0
00003FF0
00001FF0
00000FF0
00000FF0
00001FF0
00001FF0
00003FF0
00007FF0
0000FFE0
0001FFC0
0003FFC0
000FFF80
001FFE00
003FFC00
007FF800
007FE000
00FFC000
00FF8000
00FF0000
00FF0000
00FF0000
00FE0000
00FE0000
007C0000
00000000
00000000
00000000
00000000
00380000
00FE0000
01FE0000
01FF0000
01FF0000
01FF0000
01FF0000
01FF0000
00FE0000
007C0000
ENDCHAR
STARTCHAR at
ENCODING 64
SWIDTH 800 0
DWIDTH 51 0
BBX 45 46 3 -1
BITMAP
00001FF80000
0001FFFF0000
0007FFFFC000
001FFFFFF000
003FFFFFFC00
00FFC007FE00
01FF0000FF00
03FC00003F80
07F800001FC0
0FE000000FE0
0FE0000007E0
1FC01FC003F0
1F807FF1F3F0
3F01FFF9F1F0
3F03FFFFF1F8
7F07FFFFF1F8
7E07FFFFE0F8
7E0FF03FE0F8
FE1FE01FE0F8
FC1FC00FE0F8
FC1F800FC0F8
FC3F800FC0F8
FC3F800FC0F8
FC3F000FC0F8
FC3F000F81F0
FC3F000F81F0
FC3F001F81F0
FC3F801F83E0
7E3F803F83E0
7E3FC07F07C0
7E1FE1FF0F80
7F1FFFFFFF00
3F0FFFFFFE00
3F87FFFFFC00
1FC3FFBFF800
0FC1FF1FE000
0FE0780787E0
07F000000FC0
03FC00001F80
01FF00007F00
00FFC003FE00
007FFFFFFC00
001FFFFFF000
0007FFFFE000
0001FFFF0000
00001FF80000
ENDCHAR
STARTCHAR A
ENCODING 65
SWIDTH 667 0
DWIDTH 43 0
BBX 39 45 2 0
BITMAP
0000780000
0001FE0000
0003FF0000
0007FF8000
000FFFC000
000FFFC000
001FFFE000
001FFFE000
003FEFF000
003FCFF000
007F87F800
00FF87F800
00FF03FC00
01FF03FC00
01FE01FE00
01FE01FE00
03FC00FF00
03FC00FF00
07F8007F80
07F8007F80
0FFFF07FC0
0FFFFC3FC0
0FFFFF3FC0
1FFFFFFFE0
1FFFFFFFE0
1FFFFFFFE0
3FE07FFFF0
3FC00FFFF0
3FC003FFF0
7FC000FFF8
7F80007FF8
7F80003FF8
7F80001FFC
FF80000FFC
FF800007FC
FF000007FC
FF000003FE
FF000003FE
FF000003FE
FF000003FE
FF000001FE
FF000001FE
FE000001FE
FE000000FC
7C00000078
ENDCHAR
STARTCHAR B
ENCODING 66
SWIDTH 611 0
DWIDTH 39 0
BBX 33 44 4 0
BITMAP
3FFFFF8000
7FFFFFE000
FFFFFFF800
FFFFFFF800
FFFFFFFC00
FFFFFFFC00
FFFFFFFE00
FF0007FE00
FF0003FE00
FF0001FE00
FF0001FE00
FF0001FE00
FF0003FC00
FFF803FC00
FFFF87FC00
FFFFFFF800
FFFFFFF000
FFFFFFE000
FFFFFFC000
FF7FFFE000
FF03FFF000
FF007FF800
FF001FFC00
FF000FFE00
FF0007FE00
FF0003FF00
FF0001FF00
FF0000FF80
FF0000FF80
FF0000FF80
FF00007F80
FF00007F80
FF00007F80
FF0000FF80
FF0000FF80
FF0003FF00
FF001FFF00
FFFFFFFF00
FFFFFFFE00
FFFFFFFC00
FFFFFFF800
FFFFFFF000
7FFFFFE000
3FFFFF0000
ENDCHAR
STARTCHAR C
ENCODING 67
SWIDTH 611 0
DWIDTH 39 0
BBX 35 45 3 -1
BITMAP
000FFFFF00
007FFFFF80
01FFFFFFC0
03FFFFFFC0
07FFFFFFC0
0FFFFFFFC0
1FFFFFFF80
3FFFFFFE00
3FFC000000
7FF0000000
7FE0000000
7FC0000000
FFC0000000
FFC0000000
FF80000000
FF80000000
FF80000000
FF80000000
FF80000000
FF80000000
FF80000000
FF80000000
FF80000000
FFC0000000
FFC0000000
7FC0000000
7FE0000000
7FE0000000
3FF0000000
3FF8000000
3FF8000000
1FFC000000
0FFF000000
0FFF800000
07FFE00000
03FFF80000
01FFFF8000
00FFFFFF00
007FFFFFC0
003FFFFFC0
000FFFFFE0
0003FFFFE0
0000FFFFC0
00001FFFC0
000001FF00
ENDCHAR
STARTCHAR D
ENCODING 68
SWIDTH 667 0
DWIDTH 43 0
BBX 36 44 4 0
BITMAP
1FF8000000
7FFF800000
7FFFF00000
FFFFFE0000
FFFFFF0000
FFFFFFC000
FFFFFFE000
FFFFFFF000
FF03FFF800
FF007FFC00
FF003FFE00
FF000FFF00
FF0007FF80
FF0003FF80
FF0001FFC0
FF0000FFC0
FF0000FFE0
FF00007FE0
FF00003FE0
FF00003FF0
FF00003FF0
FF00001FF0
FF00001FF0
FF00001FF0
FF00001FF0
FF00001FF0
FF00001FF0
FF00001FF0
FF00001FF0
FF00001FF0
FF00001FF0
FF00003FF0
FF00003FE0
FF00007FE0
FF0001FFC0
FF0007FFC0
FFFFFFFF80
FFFFFFFF80
FFFFFFFF00
FFFFFFFE00
FFFFFFFC00
FFFFFFF000
7FFFFFE000
3FFFFF0000
ENDCHAR
STARTCHAR E
ENCODING 69
SWIDTH 556 0
DWIDTH 36 0
BBX 29 44 4 0
BITMAP
3FFFFFE0
7FFFFFF0
7FFFFFF8
FFFFFFF8
FFFFFFF8
FFFFFFF0
FFFFFFF0
FF800000
FF800000
FF800000
FF800000
FF800000
FF800000
FFFFFFE0
FFFFFFF0
FFFFFFF0
FFFFFFF0
FFFFFFF0
FFFFFFF0
FFFFFFC0
FF800000
FF800000
FF800000
FF800000
FF800000
FF800000
FF800000
FF800000
FF800000
FF800000
FF800000
FF800000
FF800000
FF800000
FF800000
FF800000
FF800000
FFFFFFE0
FFFFFFF0
FFFFFFF8
7FFFFFF8
7FFFFFF8
3FFFFFF0
1FFFFFE0
ENDCHAR
STARTCHAR F
ENCODING 70
SWIDTH 500 0
DWIDTH 32 0
BBX 27 44 4 0
BITMAP
3FFFFFC0
7FFFFFE0
7FFFFFE0
FFFFFFE0
FFFFFFE0
FFFFFFE0
FFFFFFC0
FF800000
FF800000
FF800000
FF800000
FF800000
FF800000
FFFFFF80
FFFFFFC0
FFFFFFE0
FFFFFFE0
FFFFFFE0
FFFFFFC0
FFFFFF80
FF800000
FF800000
FF800000
FF800000
FF800000
FF800000
FF800000
FF800000
FF800000
FF800000
FF800000
FF800000
FF800000
FF800000
FF800000
FF800000
FF800000
FF800000
FF800000
FF800000
FF800000
7F800000
7F000000
3E000000
ENDCHAR
STARTCHAR G
ENCODING 71
SWIDTH 722 0
DWIDTH 46 0
BBX 41 45 2 -1
BITMAP
0003FFFFF800
003FFFFFFC00
00FFFFFFFC00
01FFFFFFFE00
03FFFFFFFE00
07FFFFFFFC00
0FFFFFFFFC00
1FFFFFFFF000
1FFE00000000
3FF800000000
3FF000000000
7FE000000000
7FE000000000
7FC000000000
7FC00FFFFE00
FFC00FFFFF00
FF801FFFFF80
FF801FFFFF80
FF801FFFFF80
FF800FFFFF80
FF8007FFFF80
FFC000007F80
7FC000007F80
7FC000007F80
7FC000007F80
7FE000007F80
3FE000007F80
3FF000007F80
3FF000007F80
1FF800007F80
1FFC00007F80
0FFE00007F80
0FFF00007F80
07FFC0007F80
03FFE0007F80
01FFFC007F80
00FFFF807F80
007FFFFFFF80
003FFFFFFF80
000FFFFFFF80
0007FFFFFF80
0001FFFFFF80
00003FFFFF00
000007FFFF00
0000003FF800
ENDCHAR
STARTCHAR H
ENCODING 72
SWIDTH 611 0
DWIDTH 39 0
BBX 31 44 4 0
BITMAP
3C000078
7E0000FC
FF0001FE
FF0001FE
FF0001FE
FF0001FE
FF0001FE
FF0001FE
FF0001FE
FF0001FE
FF0001FE
FF0001FE
FF0001FE
FFFFFFFE
FFFFFFFE
FFFFFFFE
FFFFFFFE
FFFFFFFE
FFFFFFFE
FFFFFFFE
FF0001FE
FF0001FE
FF0001FE
FF0001FE
FF0001FE
FF0001FE
FF0001FE
FF0001FE
FF0001FE
FF0001FE
FF0001FE
FF0001FE
FF0001FE
FF0001FE
FF0001FE
FF0001FE
FF0001FE
FF0001FE
FF0001FE
FF0001FE
FF0001FE
FF0001FE
7E0000FC
3C000078
ENDCHAR
STARTCHAR I
ENCODING 73
SWIDTH 278 0
DWIDTH 18 0
BBX 8 44 5 0
BITMAP
3C
7E
FF
FF
FF
FF
FF
FF
FF
FF
FF
FF
FF
FF
FF
FF
FF
FF
FF
FF
FF
FF
FF
FF
FF
FF
FF
FF
FF
FF
FF
FF
FF
FF
FF
FF
FF
FF
FF
FF
FF
FF
7E
3C
ENDCHAR
STARTCHAR J
ENCODING 74
SWIDTH 444 0
DWIDTH 28 0
BBX 25 45 -1 -1
BITMAP
00001E00
00003F00
00003F80
00007F80
00007F80
00007F80
00007F80
00007F80
00007F80
00007F80
00007F80
00007F80
00007F80
00007F80
00007F80
00007F80
00007F80
00007F80
00007F80
00007F80
00007F80
00007F80
00007F80
00007F80
00007F80
00007F80
00007F80
00007F80
00007F80
00007F80
00007F80
00007F80
00007F80
00007F80
00007F80
3C00FF80
7F01FF80
FFFFFF00
FFFFFF00
FFFFFE00
7FFFFC00
7FFFF800
3FFFF000
0FFFC000
01FF0000
ENDCHAR
STARTCHAR K
ENCODING 75
SWIDTH 611 0
DWIDTH 39 0
BBX 34 44 4 0
BITMAP
3C00007800
7F0000FC00
7F0000FE00
FF0001FE00
FF0001FE00
FF0001FE00
FF0003FE00
FF0003FC00
FF0007FC00
FF000FF800
FF001FF800
FF003FF000
FF007FE000
FFF1FFC000
FFFFFF8000
FFFFFF0000
FFFFFC0000
FFFFFC0000
FFFFFF0000
FFFFFF8000
FF0FFFC000
FF01FFE000
FF007FF000
FF001FF800
FF000FF800
FF0007FC00
FF0003FE00
FF0003FE00
FF0001FF00
FF0001FF00
FF0000FF00
FF0000FF80
FF00007F80
FF00007F80
FF00007F80
FF00007FC0
FF00003FC0
FF00003FC0
FF00003FC0
FF00003FC0
FF00003FC0
7F00003FC0
7F00001F80
3E00000F00
ENDCHAR
STARTCHAR L
ENCODING 76
SWIDTH 444 0
DWIDTH 28 0
BBX 24 44 5 0
BITMAP
3C0000
FE0000
FE0000
FF0000
FF0000
FF0000
FF0000
FF0000
FF0000
FF0000
FF0000
FF0000
FF0000
FF0000
FF0000
FF0000
FF0000
FF0000
FF0000
FF0000
FF0000
FF0000
FF0000
FF0000
FF0000
FF0000
FF0000
FF0000
FF0000
FF0000
FF0000
FF0000
FF0000
FF0000
FF0000
FF0000
FFFFF8
FFFFFE
FFFFFF
FFFFFF
FFFFFF
FFFFFF
7FFFFE
3FFFFC
ENDCHAR
STARTCHAR M
ENCODING 77
SWIDTH 722 0
DWIDTH 46 0
BBX 40 44 3 0
BITMAP
03E00007C0
07F8000FE0
0FF8001FF0
0FFC003FF0
1FFC003FF8
1FFE003FF8
1FFE007FF8
1FFE007FF8
1FFF00FFF8
1FFF00FFFC
3FFF81FFFC
3FFF81FFFC
3FFFC3FDFC
3F9FC3FDFC
3F9FE7F9FC
3F9FFFF9FC
3F8FFFF1FE
7F8FFFF1FE
7F87FFE1FE
7F83FFE1FE
7F83FFC0FE
7F81FF80FE
7F00FF80FE
7F007F00FE
7F003C00FE
7F000000FE
7F000000FF
7F000000FF
FF000000FF
FF000000FF
FF000000FF
FF000000FF
FF000000FF
FF000000FF
FF000000FF
FF000000FF
FF000000FF
FF000000FF
FF000000FF
FF000000FF
FF000000FF
7F000000FF
7F0000007E
3C0000003C
ENDCHAR
STARTCHAR N
ENCODING 78
SWIDTH 611 0
DWIDTH 39 0
BBX 31 44 4 0
BITMAP
3F000078
7F8000FC
FFC001FE
FFE001FE
FFF001FE
FFF801FE
FFFC01FE
FFFE01FE
FFFF01FE
FFFF81FE
FFFFE1FE
FF7FF9FE
FF3FFFFE
FF1FFFFE
FF07FFFE
FF03FFFE
FF00FFFE
FF003FFE
FF000FFE
FF0001FE
FF0001FE
FF0001FE
FF0001FE
FF0001FE
FF0001FE
FF0001FE
FF0001FE
FF0001FE
FF0001FE
FF0001FE
FF0001FE
FF0001FE
FF0001FE
FF0001FE
FF0001FE
FF0001FE
FF0001FE
FF0001FE
FF0001FE
FF0001FE
FF0001FE
FF0001FE
7E0000FC
3C000078
ENDCHAR
STARTCHAR O
ENCODING 79
SWIDTH 722 0
DWIDTH 46 0
BBX 42 46 2 -1
BITMAP
0000FFC00000
0007FFF80000
001FFFFE0000
007FFFFF8000
00FFFFFFC000
01FFFFFFE000
03FFFFFFF000
07FFF1FFF800
0FFF003FFC00
0FFE001FFC00
1FFC000FFE00
1FF80007FE00
3FF00003FF00
3FF00001FF00
7FE00001FF80
7FE00001FF80
7FC00000FF80
7FC00000FF80
7FC00000FFC0
FFC000007FC0
FF8000007FC0
FF8000007FC0
FF8000007FC0
FF8000007FC0
FF8000007FC0
FFC000007FC0
FFC000007FC0
7FC00000FFC0
7FC00000FF80
7FC00000FF80
7FE00001FF80
7FE00001FF80
3FF00001FF00
3FF00003FF00
1FF80007FE00
1FFC000FFE00
0FFE001FFC00
0FFF003FFC00
07FFE1FFF800
03FFFFFFF000
01FFFFFFE000
00FFFFFFC000
007FFFFF8000
001FFFFE0000
0007FFF80000
00007FC00000
ENDCHAR
STARTCHAR P
ENCODING 80
SWIDTH 556 0
DWIDTH 36 0
BBX 32 44 4 0
BITMAP
3FFFFF80
7FFFFFF0
7FFFFFF8
FFFFFFFC
FFFFFFFC
FFFFFFFE
FFFFFFFE
FF0003FE
FF0001FF
FF0001FE
FF0001FE
FF0001FE
FF0003FE
FF0007FE
FF001FFC
FF007FFC
FF01FFF8
FF07FFF0
FF3FFFE0
FFFFFFC0
FFFFFF00
FFFFFC00
FFFFF000
FFFFC000
FFFE0000
FFF00000
FF800000
FF000000
FF000000
FF000000
FF000000
FF000000
FF000000
FF000000
FF000000
FF000000
FF000000
FF000000
FF000000
FF000000
FF000000
7F000000
7F000000
3E000000
ENDCHAR
STARTCHAR Q
ENCODING 81
SWIDTH 722 0
DWIDTH 46 0
BBX 42 55 2 -10
BITMAP
0000FFC00000
0007FFF80000
001FFFFE0000
007FFFFF8000
00FFFFFFC000
01FFFFFFE000
03FFFFFFF000
07FFF1FFF800
0FFF003FFC00
0FFE001FFC00
1FFC000FFE00
1FF80007FE00
3FF00003FF00
3FF00001FF00
7FE00001FF80
7FE00001FF80
7FC00000FF80
7FC00000FF80
7FC00000FFC0
FFC000007FC0
FF8000007FC0
FF8000007FC0
FF8000007FC0
FF8000007FC0
FF8000007FC0
FFC000007FC0
FFC0F8007FC0
7FC1FF00FFC0
7FC3FF80FF80
7FC3FFC0FF80
7FE3FFE1FF80
7FE3FFE1FF80
3FF3FFF1FF00
3FF07FF3FF00
1FF80FFFFF00
1FFC07FFFE00
0FFE07FFFC00
0FFF03FFFC00
07FFE3FFF800
03FFFFFFF000
01FFFFFFE000
00FFFFFFC000
007FFFFF8000
001FFFFF0000
0007FFFF8000
00007E7FC000
0000007FF000
0000003FFF00
0000001FFFC0
0000001FFFC0
0000000FFFC0
00000007FFC0
00000003FFC0
00000000FF80
000000000C00
ENDCHAR
STARTCHAR R
ENCODING 82
SWIDTH 611 0
DWIDTH 39 0
BBX 34 44 4 0
BITMAP
3FFFFF0000
7FFFFFE000
FFFFFFF800
FFFFFFFC00
FFFFFFFC00
FFFFFFFE00
FFFFFFFE00
FF0007FE00
FF0001FE00
FF0001FE00
FF0001FE00
FF0001FE00
FF0003FE00
FFF807FC00
FFFFCFFC00
FFFFFFF800
FFFFFFF000
FFFFFFE000
FFFFFFC000
FFFFFFC000
FF07FFE000
FF00FFF000
FF003FF800
FF001FF800
FF000FFC00
FF0007FC00
FF0003FE00
FF0001FE00
FF0001FF00
FF0000FF00
FF0000FF80
FF00007F80
FF00007F80
FF00007F80
FF00007F80
FF00007FC0
FF00003FC0
FF00003FC0
FF00003FC0
FF00003FC0
FF00003FC0
FF00003F80
7E00001F80
3C00000F00
ENDCHAR
STARTCHAR S
ENCODING 83
SWIDTH 611 0
DWIDTH 39 0
BBX 35 44 2 0
BITMAP
007FFFF800
03FFFFFC00
0FFFFFFE00
1FFFFFFE00
3FFFFFFE00
3FFFFFFE00
7FFFFFFC00
7FFFFFF000
7FC0000000
FF80000000
FF80000000
FF80000000
7FE0000000
7FFE000000
7FFFF00000
3FFFFF0000
3FFFFFE000
1FFFFFF800
07FFFFFC00
03FFFFFE00
003FFFFF00
0003FFFF80
00000FFF80
000003FFC0
000000FFC0
0000007FC0
0000003FE0
0000003FE0
0000003FE0
0000003FE0
0000003FE0
0000003FC0
0000007FC0
0000007FC0
000000FF80
000007FF80
3FFFFFFF00
7FFFFFFF00
FFFFFFFE00
FFFFFFFC00
FFFFFFF800
FFFFFFE000
FFFFFFC000
3FFFFC0000
ENDCHAR
STARTCHAR T
ENCODING 84
SWIDTH 500 0
DWIDTH 32 0
BBX 32 44 0 0
BITMAP
3FFFFFFC
7FFFFFFE
7FFFFFFE
FFFFFFFF
FFFFFFFF
7FFFFFFE
7FFFFFFE
1FFFFFF8
000FF000
000FF000
000FF000
000FF000
000FF000
000FF000
000FF000
000FF000
000FF000
000FF000
000FF000
000FF000
000FF000
000FF000
000FF000
000FF000
000FF000
000FF000
000FF000
000FF000
000FF000
000FF000
000FF000
000FF000
000FF000
000FF000
000FF000
000FF000
000FF000
000FF000
000FF000
000FF000
000FF000
000FF000
0007E000
0003C000
ENDCHAR
STARTCHAR U
ENCODING 85
SWIDTH 611 0
DWIDTH 39 0
BBX 33 45 3 -1
BITMAP
0F00007800
1F8000FC00
1FC001FC00
3FC001FE00
3FC001FE00
3FC001FE00
3FC001FE00
3FC001FE00
3FC001FE00
3FC001FE00
3FC001FE00
3FC001FE00
3F8000FE00
7F8000FF00
7F8000FF00
7F8000FF00
7F8000FF00
7F8000FF00
7F8000FF00
7F8000FF00
7F8000FF00
7F00007F00
7F00007F00
7F00007F80
FF00007F80
FF00007F80
FF00007F80
FF00007F80
FF00007F80
FF00007F80
FF00007F80
FF00007F80
FF8000FF00
7F8000FF00
7FC001FF00
7FE003FF00
3FF007FE00
3FFC3FFE00
1FFFFFFC00
0FFFFFF800
07FFFFF000
03FFFFE000
01FFFFC000
007FFF0000
000FF80000
ENDCHAR
STARTCHAR V
ENCODING 86
SWIDTH 611 0
DWIDTH 39 0
BBX 35 45 2 -1
BITMAP
3C00000780
7F00001FC0
FF00001FE0
FF00001FE0
FF00001FE0
FF80003FE0
FF80003FE0
FF80003FE0
FF80003FE0
FF80003FE0
FF80003FC0
7F80003FC0
7F80003FC0
7FC0007FC0
7FC0007FC0
7FC0007FC0
3FC0007F80
3FC0007F80
3FE000FF80
3FE000FF80
1FE000FF00
1FE000FF00
1FF001FF00
0FF001FE00
0FF001FE00
0FF803FE00
07F803FC00
07F803FC00
07FC07FC00
03FC07F800
03FE0FF800
03FE0FF000
01FF1FF000
01FF1FF000
00FFBFE000
00FFBFE000
007FFFC000
007FFFC000
003FFF8000
003FFF8000
001FFF0000
000FFE0000
000FFE0000
0007FC0000
0001F00000
ENDCHAR
STARTCHAR W
ENCODING 87
SWIDTH 833 0
DWIDTH 53 0
BBX 49 45 2 -1
BITMAP
3C0001E0001E00
7E0007F0003F00
FF0007F0003F80
FF0007F8007F80
FF000FF8007F80
FF000FF8007F80
FF000FF8007F80
FF000FF8007F80
FF000FF8007F80
FF000FF8007F80
FF800FF8007F80
FF800FF800FF80
7F800FF800FF80
7F800FFC00FF00
7F800FFC00FF00
7F801FFC00FF00
7F801FFC00FF00
3F801FFC00FF00
3FC01FFC00FE00
3FC01FFC01FE00
3FC01FFE01FE00
3FC03FFE01FE00
1FC03FFE01FE00
1FE03F7E01FC00
1FE03F7F03FC00
1FE07F7F03FC00
0FE07F7F03FC00
0FE07F3F03F800
0FF0FE3F87F800
0FF0FE3F87F800
07F0FE3FC7F800
07F9FE1FC7F000
07F9FC1FCFF000
03FBFC1FEFF000
03FFFC0FEFE000
03FFF80FFFE000
03FFF80FFFE000
01FFF007FFC000
01FFF007FFC000
01FFF003FFC000
00FFE003FF8000
00FFE001FF8000
007FC001FF0000
003F8000FE0000
001F00003C0000
ENDCHAR
STARTCHAR X
ENCODING 88
SWIDTH 611 0
DWIDTH 39 0
BBX 37 44 1 0
BITMAP
0F00000780
1F80000FC0
3FC0001FE0
3FE0003FE0
3FE0003FE0
3FF0007FE0
1FF0007FC0
1FF800FFC0
0FFC01FF80
0FFE03FF80
07FF07FF00
03FF8FFE00
01FFFFFC00
00FFFFF800
007FFFF000
001FFFC000
000FFF8000
000FFF8000
001FFFC000
003FFFE000
007FFFF000
00FFDFF800
01FF8FFC00
03FF07FE00
07FE03FF00
07FC01FF00
0FFC01FF80
0FF800FF80
1FF0007FC0
1FF0007FC0
3FE0003FE0
3FE0003FE0
7FC0001FF0
7FC0001FF0
7FC0001FF0
7F80000FF0
FF80000FF8
FF80000FF8
FF80000FF8
FF80000FF8
FF80000FF8
FF000007F8
7F000007F0
3E000003E0
ENDCHAR
STARTCHAR Y
ENCODING 89
SWIDTH 556 0
DWIDTH 36 0
BBX 33 44 1 0
BITMAP
3C00000F00
7E00003F80
FF00003F80
FF00007F80
FF80007F80
FF80007F80
FF8000FF80
7FC000FF80
7FC001FF00
3FE001FF00
3FE003FF00
1FF003FE00
1FF007FC00
0FF80FFC00
0FFC0FF800
07FE1FF800
03FF3FF000
01FFFFE000
01FFFFC000
00FFFF8000
007FFF0000
003FFE0000
001FFC0000
000FF80000
000FF80000
000FF80000
000FF80000
000FF80000
000FF80000
000FF80000
000FF80000
000FF80000
000FF80000
000FF80000
000FF80000
000FF80000
000FF80000
000FF80000
000FF80000
000FF80000
0007F80000
0007F80000
0007F00000
0001E00000
ENDCHAR
STARTCHAR Z
ENCODING 90
SWIDTH 500 0
DWIDTH 32 0
BBX 29 44 2 0
BITMAP
1FFFFFC0
3FFFFFE0
3FFFFFF0
7FFFFFF0
7FFFFFF0
3FFFFFF0
3FFFFFF0
0FFFFFF0
00000FF0
00001FF0
00001FE0
00003FE0
00003FE0
00007FC0
0000FFC0
0001FF80
0003FF00
0007FF00
000FFE00
001FFC00
003FF800
007FF000
00FFF000
01FFE000
03FFC000
07FF0000
0FFE0000
1FFC0000
1FF80000
3FF00000
3FE00000
7FC00000
7FC00000
FF800000
FF000000
FF000000
FFFFFFC0
FFFFFFF0
FFFFFFF8
FFFFFFF8
FFFFFFF8
FFFFFFF8
7FFFFFF0
1FFFFFE0
ENDCHAR
STARTCHAR bracketleft
ENCODING 91
SWIDTH 389 0
DWIDTH 25 0
BBX 18 61 5 -15
BITMAP
3FFF00
FFFF80
FFFFC0
FFFFC0
FFFFC0
FFFF80
FFFE00
FF0000
FF0000
FF0000
FF0000
FF0000
FF0000
FF0000
FF0000
FF0000
FF0000
FF0000
FF0000
FF0000
FF0000
FF0000
FF0000
FF0000
FF0000
FF0000
FF0000
FF0000
FF0000
FF0000
FF0000
FF0000
FF0000
FF0000
FF0000
FF0000
FF0000
FF0000
FF0000
FF0000
FF0000
FF0000
FF0000
FF0000
FF0000
FF0000
FF0000
FF0000
FF0000
FF0000
FF0000
FF0000
FF0000
FF0000
FFFE00
FFFF80
FFFFC0
FFFFC0
FFFFC0
FFFF80
3FFF00
ENDCHAR
STARTCHAR backslash
ENCODING 92
SWIDTH 278 0
DWIDTH 18 0
BBX 21 46 -2 -1
BITMAP
3C0000
7E0000
FE0000
FF0000
FF0000
FF8000
7F8000
7F8000
7FC000
3FC000
3FC000
1FE000
1FE000
1FE000
0FF000
0FF000
0FF800
07F800
07F800
07FC00
03FC00
03FC00
01FE00
01FE00
01FF00
00FF00
00FF00
00FF80
007F80
007F80
007FC0
003FC0
003FC0
001FE0
001FE0
001FF0
000FF0
000FF0
000FF8
0007F8
0007F8
0007F8
0003F8
0003F8
0001F8
0000F0
ENDCHAR
STARTCHAR bracketright
ENCODING 93
SWIDTH 389 0
DWIDTH 25 0
BBX 18 61 2 -15
BITMAP
7FFF00
FFFF80
FFFFC0
FFFFC0
FFFFC0
7FFFC0
3FFFC0
003FC0
003FC0
003FC0
003FC0
003FC0
003FC0
003FC0
003FC0
003FC0
003FC0
003FC0
003FC0
003FC0
003FC0
003FC0
003FC0
003FC0
003FC0
003FC0
003FC0
003FC0
003FC0
003FC0
003FC0
003FC0
003FC0
003FC0
003FC0
003FC0
003FC0
003FC0
003FC0
003FC0
003FC0
003FC0
003FC0
003FC0
003FC0
003FC0
003FC0
003FC0
003FC0
003FC0
003FC0
003FC0
003FC0
003FC0
1FFFC0
7FFFC0
FFFFC0
FFFFC0
FFFFC0
FFFF80
7FFF00
ENDCHAR
STARTCHAR asciicircum
ENCODING 94
SWIDTH 600 0
DWIDTH 38 0
BBX 30 25 4 19
BITMAP
000FC000
001FE000
001FE000
003FF000
003FF000
003FF800
007FF800
007EFC00
00FCFC00
00FCFE00
01F87E00
01F87F00
03F03F00
03F03F80
07F01F80
07E01FC0
0FE00FC0
0FC00FE0
1FC007E0
1F8007F0
3F8003F0
3F0003F8
7F0001F8
7E0001FC
FE0001FC
ENDCHAR
STARTCHAR underscore
ENCODING 95
SWIDTH 500 0
DWIDTH 32 0
BBX 32 3 0 -8
BITMAP
FFFFFFFF
FFFFFFFF
FFFFFFFF
ENDCHAR
STARTCHAR grave
ENCODING 96
SWIDTH 278 0
DWIDTH 18 0
BBX 18 9 0 36
BITMAP
780000
FF0000
FFC000
FFF800
FFFF00
FFFF80
1FFFC0
01FF80
000F80
ENDCHAR
STARTCHAR a
ENCODING 97
SWIDTH 556 0
DWIDTH 36 0
BBX 28 34 2 -1
BITMAP
0FFFF800
1FFFFF00
3FFFFF80
3FFFFFC0
3FFFFFE0
1FFFFFE0
0FFFFFE0
00001FF0
00000FF0
00000FF0
00000FF0
0003FFF0
007FFFF0
03FFFFF0
07FFFFF0
1FFFFFF0
3FFFFFF0
3FFE07F0
7FF007F0
7FC007F0
FF8007F0
FF0007F0
FF0007F0
FF000FF0
FF000FF0
FF001FF0
FF803FF0
7FE0FFF0
7FFFFFF0
3FFFFFF0
3FFFFFF0
1FFFF7F0
07FFC3E0
01FF03C0
ENDCHAR
STARTCHAR b
ENCODING 98
SWIDTH 556 0
DWIDTH 36 0
BBX 30 46 4 0
BITMAP
3C000000
7E000000
FE000000
FF000000
FF000000
FF000000
FF000000
FF000000
FF000000
FF000000
FF000000
FF000000
FFF80000
FFFF8000
FFFFE000
FFFFF800
FFFFFE00
FFFFFF00
FFFFFF80
FF0FFFC0
FF03FFC0
FF00FFE0
FF007FF0
FF003FF0
FF001FF0
FF000FF8
FF0007F8
FF0007F8
FF0007F8
FF0007FC
FF0003FC
FF0003FC
FF0007FC
FF0007FC
FF0007F8
FF0007F8
FF000FF8
FF001FF0
FF007FF0
FFFFFFE0
FFFFFFE0
FFFFFFC0
FFFFFF80
FFFFFE00
FFFFFC00
7FFFE000
ENDCHAR
STARTCHAR c
ENCODING 99
SWIDTH 500 0
DWIDTH 32 0
BBX 30 33 2 0
BITMAP
003FFFE0
01FFFFF0
03FFFFF8
0FFFFFF8
1FFFFFF8
1FFFFFF8
3FFFFFF0
7FFC0000
7FE00000
7FC00000
FF800000
FF800000
FF800000
FF000000
FF000000
FF800000
FF800000
FF800000
7F800000
7FC00000
7FC00000
3FE00000
3FF00000
1FFC0000
1FFF0000
0FFFF000
07FFFFF8
03FFFFFC
01FFFFFC
00FFFFFC
003FFFFC
0007FFF8
00007FE0
ENDCHAR
STARTCHAR d
ENCODING 100
SWIDTH 556 0
DWIDTH 36 0
BBX 30 46 2 0
BITMAP
000000F0
000003F8
000003F8
000003FC
000003FC
000003FC
000003FC
000003FC
000003FC
000003FC
000003FC
000003FC
0000FFFC
000FFFFC
003FFFFC
00FFFFFC
01FFFFFC
03FFFFFC
07FFFFFC
0FFFC3FC
1FFE03FC
3FF803FC
3FF003FC
7FE003FC
7FC003FC
7FC003FC
FF8003FC
FF8003FC
FF0003FC
FF0003FC
FF0003FC
FF0003FC
FF0003FC
FF0003FC
FF0003FC
FF8003FC
7FC003FC
7FC003FC
7FF003FC
3FFFFFFC
1FFFFFFC
0FFFFFFC
07FFFFFC
03FFFFF8
00FFFFF8
001FFFF0
ENDCHAR
STARTCHAR e
ENCODING 101
SWIDTH 556 0
DWIDTH 36 0
BBX 31 34 2 0
BITMAP
000FF800
007FFF00
01FFFF80
03FFFFE0
07FFFFF0
0FFFFFF0
1FFF7FF8
1FF80FFC
3FF007FC
3FE003FC
7FC003FE
7FC001FE
7F8001FE
7FFFFFFE
FFFFFFFE
FFFFFFFE
FFFFFFFE
FFFFFFFE
FFFFFFFC
FF800000
FF800000
FF800000
7F800000
7FC00000
7FE00000
3FF00000
3FFC0000
1FFFFFF8
0FFFFFFC
07FFFFFE
03FFFFFE
01FFFFFE
007FFFFC
0007FFF8
ENDCHAR
STARTCHAR f
ENCODING 102
SWIDTH 333 0
DWIDTH 21 0
BBX 24 46 -1 0
BITMAP
0007FC
003FFF
007FFF
00FFFF
01FFFF
01FFFF
01FFFE
03FF00
03FC00
03FC00
03FC00
03FC00
03FC00
3FFFF8
7FFFFE
7FFFFE
FFFFFE
7FFFFE
7FFFFE
3FFFF8
03FC00
03FC00
03FC00
03FC00
03FC00
03FC00
03FC00
03FC00
03FC00
03FC00
03FC00
03FC00
03FC00
03FC00
03FC00
03FC00
03FC00
03FC00
03FC00
03FC00
03FC00
03FC00
03FC00
01FC00
01F800
00F000
ENDCHAR
STARTCHAR g
ENCODING 103
SWIDTH 556 0
DWIDTH 36 0
BBX 33 49 2 -15
BITMAP
0001FFF800
001FFFFE00
007FFFFF00
00FFFFFF00
03FFFFFF00
07FFFFFE00
0FFFFFFC00
0FFE07F800
1FF807F800
3FF007F800
3FE007F800
7FC007F800
7F8007F800
7F8007F800
7F0007F800
FF0007F800
FF0007F800
FF0007F800
FF0007F800
FF0007F800
FF0007F800
FF0007F800
FF0007F800
7F8007F800
7F8007F800
7FC007F800
3FF807F800
3FFFFFF800
1FFFFFF800
0FFFFFFC00
07FFFFFF00
03FFFFFF00
00FFFFFF80
003FFFFF80
000000FF80
0000007F80
0000007F80
0000007F80
0000007F80
200000FF80
FC0003FF80
FF800FFF00
FFFFFFFE00
FFFFFFFE00
FFFFFFFC00
7FFFFFF000
3FFFFFE000
07FFFF0000
00FFF00000
ENDCHAR
STARTCHAR h
ENCODING 104
SWIDTH 556 0
DWIDTH 36 0
BBX 28 46 4 0
BITMAP
3C000000
7E000000
FE000000
FF000000
FF000000
FF000000
FF000000
FF000000
FF000000
FF000000
FF000000
FF000000
FF0FF000
FF3FFC00
FF7FFF00
FFFFFF80
FFFFFF80
FFFFFFC0
FFFFFFE0
FFF07FE0
FFC03FE0
FF801FE0
FF800FF0
FF000FF0
FF000FF0
FF000FF0
FF000FF0
FF000FF0
FF000FF0
FF000FF0
FF000FF0
FF000FF0
FF000FF0
FF000FF0
FF000FF0
FF000FF0
FF000FF0
FF000FF0
FF000FF0
FF000FF0
FF000FF0
FF000FF0
FF000FF0
FE000FE0
7E0007E0
3C0003C0
ENDCHAR
STARTCHAR i
ENCODING 105
SWIDTH 278 0
DWIDTH 18 0
BBX 8 46 5 0
BITMAP
3C
7E
FF
FF
FF
FF
FF
FE
7E
00
00
00
3C
7E
FE
FF
FF
FF
FF
FF
FF
FF
FF
FF
FF
FF
FF
FF
FF
FF
FF
FF
FF
FF
FF
FF
FF
FF
FF
FF
FF
FF
FF
FE
7E
3C
ENDCHAR
STARTCHAR j
ENCODING 106
SWIDTH 222 0
DWIDTH 14 0
BBX 21 60 -10 -14
BITMAP
0001E0
0003F0
0007F8
0007F8
0007F8
0007F8
0007F8
0003F8
0003F0
000000
000000
000000
0001E0
0003F0
0003F8
0007F8
0007F8
0007F8
0007F8
0007F8
0007F8
0007F8
0007F8
0007F8
0007F8
0007F8
0007F8
0007F8
0007F8
0007F8
0007F8
0007F8
0007F8
0007F8
0007F8
0007F8
0007F8
0007F8
0007F8
0007F8
0007F8
0007F8
0007F8
0007F8
0007F8
0007F8
0007F8
0007F8
0007F8
0007F8
000FF8
000FF0
187FF0
7FFFF0
FFFFE0
FFFFC0
FFFFC0
7FFF00
7FFE00
0FF000
ENDCHAR
STARTCHAR k
ENCODING 107
SWIDTH 500 0
DWIDTH 32 0
BBX 27 46 4 0
BITMAP
3C000000
7E000000
FE000000
FF000000
FF000000
FF000000
FF000000
FF000000
FF000000
FF000000
FF000000
FF000000
FF000F00
FF001F80
FF003F80
FF007F80
FF007F80
FF00FF80
FF01FF00
FF03FF00
FF0FFE00
FFFFFC00
FFFFF800
FFFFE000
FFFF8000
FFFFC000
FFFFF000
FFFFF800
FF1FFE00
FF07FE00
FF01FF00
FF00FF80
FF007F80
FF007FC0
FF003FC0
FF003FC0
FF001FE0
FF001FE0
FF001FE0
FF000FE0
FF000FE0
FF000FE0
FF000FE0
FE000FE0
7E000FE0
3C000780
ENDCHAR
STARTCHAR l
ENCODING 108
SWIDTH 278 0
DWIDTH 18 0
BBX 8 46 5 0
BITMAP
3C
7E
FE
FF
FF
FF
FF
FF
FF
FF
FF
FF
FF
FF
FF
FF
FF
FF
FF
FF
FF
FF
FF
FF
FF
FF
FF
FF
FF
FF
FF
FF
FF
FF
FF
FF
FF
FF
FF
FF
FF
FF
FF
FE
7E
3C
ENDCHAR
STARTCHAR m
ENCODING 109
SWIDTH 833 0
DWIDTH 53 0
BBX 45 34 4 0
BITMAP
781FC001FC00
FC7FF00FFF00
FEFFFC1FFF80
FFFFFE7FFFC0
FFFFFFFFFFE0
FFFFFFFFFFF0
FFFFFFFFFFF0
FFE0FFFC1FF8
FFC07FF80FF8
FF803FF007F8
FF803FF007F8
FF003FE007F8
FF001FE003F8
FF001FE003F8
FF001FE003F8
FE001FC003F8
FE001FC003F8
FE001FC003F8
FE001FC003F8
FE001FC003F8
FE001FC003F8
FE001FC003F8
FE001FC003F8
FE001FC003F8
FE001FC003F8
FE001FC003F8
FE001FC003F8
FE001FC003F8
FE001FC003F8
FE001FC003F8
FE001FC003F8
FE001FC003F8
7E000FC001F8
3C00078000F0
ENDCHAR
STARTCHAR n
ENCODING 110
SWIDTH 556 0
DWIDTH 36 0
BBX 28 34 4 0
BITMAP
3C0FF000
7E3FFC00
FE7FFF00
FFFFFF80
FFFFFF80
FFFFFFC0
FFFFFFE0
FFF07FE0
FFC03FE0
FF801FE0
FF800FF0
FF000FF0
FF000FF0
FF000FF0
FF000FF0
FF000FF0
FF000FF0
FF000FF0
FF000FF0
FF000FF0
FF000FF0
FF000FF0
FF000FF0
FF000FF0
FF000FF0
FF000FF0
FF000FF0
FF000FF0
FF000FF0
FF000FF0
FF000FF0
FE000FE0
7E0007E0
3C0003C0
ENDCHAR
STARTCHAR o
ENCODING 111
SWIDTH 556 0
DWIDTH 36 0
BBX 32 35 2 -1
BITMAP
000FF000
007FFE00
01FFFF80
03FFFFC0
07FFFFE0
0FFFFFF0
1FFFFFF8
3FF81FF8
3FE00FFC
7FC007FC
7FC003FC
7F8003FE
7F8001FE
FF8001FE
FF0001FE
FF0001FE
FF0001FF
FF0001FF
FF0001FE
FF0001FE
FF0001FE
FF8001FE
7F8001FE
7F8003FE
7FC003FC
7FC007FC
3FE00FFC
3FF81FF8
1FFFFFF8
0FFFFFF0
07FFFFE0
03FFFFC0
01FFFF80
007FFE00
000FF000
ENDCHAR
STARTCHAR p
ENCODING 112
SWIDTH 556 0
DWIDTH 36 0
BBX 30 48 4 -14
BITMAP
1FF80000
7FFF8000
FFFFE000
FFFFF800
FFFFFE00
FFFFFF00
FFFFFF80
FF0FFFC0
FF01FFE0
FF007FE0
FF003FF0
FF001FF0
FF000FF8
FF000FF8
FF0007F8
FF0007F8
FF0007FC
FF0003FC
FF0003FC
FF0003FC
FF0003FC
FF0007FC
FF0007F8
FF000FF8
FF000FF8
FF003FF8
FF00FFF0
FFFFFFE0
FFFFFFE0
FFFFFFC0
FFFFFF80
FFFFFE00
FFFFFC00
FFFFC000
FF000000
FF000000
FF000000
FF000000
FF000000
FF000000
FF000000
FF000000
FF000000
FF000000
FF000000
FE000000
7E000000
3C000000
ENDCHAR
STARTCHAR q
ENCODING 113
SWIDTH 556 0
DWIDTH 36 0
BBX 30 48 2 -14
BITMAP
0000FFE0
000FFFF8
003FFFF8
00FFFFFC
01FFFFFC
03FFFFFC
0FFFFFFC
0FFFC3FC
1FFE03FC
3FF803FC
3FF003FC
7FE003FC
7FC003FC
7F8003FC
FF8003FC
FF0003FC
FF0003FC
FF0003FC
FF0003FC
FF0003FC
FF0003FC
FF0003FC
FF0003FC
FF8003FC
7FC003FC
7FE003FC
7FF803FC
3FFFFFFC
1FFFFFFC
0FFFFFFC
07FFFFFC
03FFFFFC
00FFFFFC
001FFFFC
000003FC
000003FC
000003FC
000003FC
000003FC
000003FC
000003FC
000003FC
000003FC
000003FC
000003F8
000003F8
000001F8
000000F0
ENDCHAR
STARTCHAR r
ENCODING 114
SWIDTH 333 0
DWIDTH 21 0
BBX 18 34 4 0
BITMAP
3C1F00
7E7FC0
7E7FC0
FEFFC0
FEFFC0
FFFFC0
FFFF80
FFF000
FFC000
FF8000
FF8000
FF0000
FF0000
FF0000
FF0000
FF0000
FF0000
FF0000
FF0000
FF0000
FF0000
FF0000
FF0000
FF0000
FF0000
FF0000
FF0000
FF0000
FF0000
FF0000
FF0000
7F0000
7E0000
3C0000
ENDCHAR
STARTCHAR s
ENCODING 115
SWIDTH 500 0
DWIDTH 32 0
BBX 28 33 2 0
BITMAP
01FFFF00
0FFFFF80
1FFFFFC0
3FFFFFC0
7FFFFFC0
7FFFFF80
7FFFFF00
FF000000
FF000000
FF000000
FFE00000
7FFF8000
7FFFF800
3FFFFE00
3FFFFF80
0FFFFFC0
03FFFFE0
007FFFE0
0000FFF0
00001FF0
00000FF0
00000FF0
00000FF0
00000FF0
00000FF0
00003FF0
7FFFFFE0
FFFFFFE0
FFFFFFC0
FFFFFFC0
FFFFFF00
FFFFFE00
7FFFF000
ENDCHAR
STARTCHAR t
ENCODING 116
SWIDTH 389 0
DWIDTH 25 0
BBX 26 43 0 0
BITMAP
00200000
01F80000
01FC0000
03FC0000
03FC0000
03FC0000
03FC0000
03FC0000
03FC0000
03FC0000
3FFFFC00
7FFFFE00
7FFFFE00
FFFFFE00
7FFFFE00
7FFFFE00
3FFFFC00
03FC0000
03FC0000
03FC0000
03FC0000
03FC0000
03FC0000
03FC0000
03FC0000
03FC0000
03FC0000
03FC0000
03FC0000
03FC0000
03FC0000
03FC0000
03FC0000
03FC0000
01FE0000
01FF8000
01FFFF80
01FFFF80
01FFFFC0
00FFFFC0
007FFFC0
003FFF80
0007FF00
ENDCHAR
STARTCHAR u
ENCODING 117
SWIDTH 556 0
DWIDTH 36 0
BBX 28 35 4 -1
BITMAP
3C0003C0
7E0007E0
FE000FE0
FF000FF0
FF000FF0
FF000FF0
FF000FF0
FF000FF0
FF000FF0
FF000FF0
FF000FF0
FF000FF0
FF000FF0
FF000FF0
FF000FF0
FF000FF0
FF000FF0
FF000FF0
FF000FF0
FF000FF0
FF000FF0
FF000FF0
FF001FF0
FF001FF0
FF001FF0
FF003FF0
FF807FF0
7FC0FFF0
7FFFFFF0
7FFFFFF0
3FFFFFF0
1FFFFFF0
0FFFEFE0
07FF87E0
00FE03C0
ENDCHAR
STARTCHAR v
ENCODING 118
SWIDTH 500 0
DWIDTH 32 0
BBX 28 35 2 -1
BITMAP
3C0003C0
7E0007E0
FE0007F0
FE0007F0
FE000FF0
FF000FF0
FF000FF0
FF000FF0
FF000FF0
7F000FE0
7F001FE0
7F801FE0
7F801FE0
7F801FE0
3F801FC0
3FC03FC0
3FC03FC0
1FC03F80
1FC03F80
1FE07F80
0FE07F00
0FF0FF00
0FF0FF00
07F0FE00
07F9FE00
03FBFC00
03FFFC00
03FFF800
01FFF800
00FFF000
00FFF000
007FE000
007FE000
003FC000
000F0000
ENDCHAR
STARTCHAR w
ENCODING 119
SWIDTH 722 0
DWIDTH 46 0
BBX 42 35 2 -1
BITMAP
3C001E000F00
7E003F001F80
FE007F801FC0
FE007F801FC0
FF007F801FC0
FF007F801FC0
FF007F803FC0
FF007F803FC0
FF007F803FC0
7F007FC03FC0
7F007FC03F80
7F00FFC03F80
7F00FFC03F80
7F80FFC03F80
7F80FFC07F80
3F80FFC07F80
3F81FFE07F00
3F81FFE07F00
3F81FFE07F00
1FC1FFF0FF00
1FC3FFF0FE00
1FC3F3F0FE00
1FE3F3F8FE00
0FE7F3F9FC00
0FE7F3F9FC00
0FFFE1FFFC00
07FFE1FFF800
07FFE1FFF800
03FFC0FFF000
03FFC0FFF000
01FFC0FFF000
01FF807FE000
00FF803FC000
00FF003FC000
007E000F8000
ENDCHAR
STARTCHAR x
ENCODING 120
SWIDTH 500 0
DWIDTH 32 0
BBX 30 34 1 0
BITMAP
0F0003C0
1F8007E0
3F8007F0
3FC00FF0
3FC00FF0
3FC00FF0
3FE01FF0
1FE01FE0
1FF03FE0
0FF87FC0
0FFCFFC0
07FFFF80
03FFFF00
01FFFE00
00FFFC00
00FFFC00
01FFFE00
03FFFF00
07FFFF80
0FFCFFC0
1FF87FE0
1FF03FE0
3FE01FF0
3FE01FF0
7FC00FF8
7FC00FF8
7F8007F8
FF8007F8
FF8007FC
FF0003FC
FF0003FC
7F0003F8
7E0001F8
3C0000F0
ENDCHAR
STARTCHAR y
ENCODING 121
SWIDTH 500 0
DWIDTH 32 0
BBX 29 48 2 -14
BITMAP
3C0001E0
7E0003F0
7E0003F8
FF0003F8
FF0007F8
FF0007F8
FF0007F8
FF0007F8
7F0007F0
7F000FF0
7F000FF0
7F800FF0
7F800FE0
7F800FE0
3F801FE0
3FC01FC0
3FC01FC0
3FC03FC0
1FE03F80
1FE03F80
0FE07F80
0FF07F00
0FF0FF00
07F8FE00
07F8FE00
03FDFE00
03FFFC00
01FFFC00
00FFF800
00FFF800
007FF000
007FF000
003FE000
001FE000
003FC000
007FC000
007F8000
00FF8000
01FF0000
01FE0000
03FE0000
07FC0000
07F80000
0FF80000
0FF00000
0FE00000
07E00000
03C00000
ENDCHAR
STARTCHAR z
ENCODING 122
SWIDTH 444 0
DWIDTH 28 0
BBX 26 33 1 0
BITMAP
1FFFFF00
3FFFFF80
3FFFFF80
3FFFFFC0
3FFFFFC0
3FFFFFC0
1FFFFF80
0000FF80
0000FF80
0001FF00
0003FF00
0007FE00
001FFC00
003FFC00
007FF800
00FFF000
01FFC000
03FF8000
07FF0000
0FFE0000
1FFC0000
3FF00000
3FE00000
7FC00000
7FC00000
FF800000
FFFFFF80
FFFFFFC0
FFFFFFC0
FFFFFFC0
FFFFFFC0
7FFFFFC0
3FFFFF80
ENDCHAR
STARTCHAR braceleft
ENCODING 123
SWIDTH 389 0
DWIDTH 25 0
BBX 20 61 3 -15
BITMAP
001FE0
007FF0
00FFF0
01FFF0
03FFE0
03FE00
03FC00
03FC00
03F800
03F800
03F800
03F800
03F800
03F800
03F800
03F800
03F800
03F800
03F800
03F800
03F800
03F800
03F800
03F800
07F800
07F800
0FF800
1FF000
FFE000
FFC000
FE0000
FF8000
FFE000
3FF000
0FF000
07F800
07F800
03F800
03F800
03F800
03F800
03F800
03F800
03F800
03F800
03F800
03F800
03F800
03F800
03F800
03F800
03F800
03F800
03FC00
03FC00
03FE00
03FFE0
01FFF0
00FFF0
007FF0
001FE0
ENDCHAR
STARTCHAR bar
ENCODING 124
SWIDTH 222 0
DWIDTH 14 0
BBX 6 64 4 -16
BITMAP
FC
FC
FC
FC
FC
FC
FC
FC
FC
FC
FC
FC
FC
FC
FC
FC
FC
FC
FC
FC
FC
FC
FC
FC
FC
FC
FC
FC
FC
FC
FC
FC
FC
FC
FC
FC
FC
FC
FC
FC
FC
FC
FC
FC
FC
FC
FC
FC
FC
FC
FC
FC
FC
FC
FC
FC
FC
FC
FC
FC
FC
FC
FC
FC
ENDCHAR
STARTCHAR braceright
ENCODING 125
SWIDTH 389 0
DWIDTH 25 0
BBX 20 61 2 -15
BITMAP
7F8000
FFE000
FFF000
FFF800
7FF800
07FC00
03FC00
03FC00
03FC00
03FC00
03FC00
03FC00
03FC00
03FC00
03FC00
03FC00
03FC00
03FC00
03FC00
03FC00
03FC00
03FC00
03FC00
03FC00
01FE00
01FE00
01FF00
00FF80
007FF0
003FF0
0007F0
001FF0
007FF0
00FFC0
01FF00
01FE00
01FE00
01FC00
03FC00
03FC00
03FC00
03FC00
03FC00
03FC00
03FC00
03FC00
03FC00
03FC00
03FC00
03FC00
03FC00
03FC00
03FC00
03FC00
03FC00
07FC00
7FF800
FFF800
FFF000
FFE000
7F8000
ENDCHAR
STARTCHAR asciitilde
ENCODING 126
SWIDTH 600 0
DWIDTH 38 0
BBX 30 11 4 11
BITMAP
00000010
07F00010
1FFE0038
3FFFC078
3FFFF0FC
7FFFFFFC
FFFFFFF8
7C1FFFF0
7803FFF0
3000FFC0
20001F80
ENDCHAR
STARTCHAR uni00A0
ENCODING 160
SWIDTH 305 0
DWIDTH 20 0
BBX 1 1 0 0
BITMAP
00
ENDCHAR
STARTCHAR exclamdown
ENCODING 161
SWIDTH 333 0
DWIDTH 21 0
BBX 9 45 6 -14
BITMAP
1C00
7F00
7F80
FF80
FF80
FF80
FF80
FF80
7F00
3E00
0000
0000
0000
0800
3E00
7F00
7F00
7F00
7F80
7F80
7F80
7F80
7F80
7F80
7F80
7F80
7F80
FF80
FF80
FF80
FF80
FF80
FF80
FF80
FF80
FF80
FF80
FF80
FF80
FF80
FF80
FF80
7F80
7F00
3E00
ENDCHAR
STARTCHAR cent
ENCODING 162
SWIDTH 611 0
DWIDTH 39 0
BBX 31 49 2 -3
BITMAP
0000F000
0001F800
0001FC00
0001FC00
0001FC00
0001FC00
0001FC00
0001FC00
0001FC00
001FFFF0
00FFFFF8
03FFFFFC
0FFFFFFC
1FFFFFFC
3FFFFFF8
3FFFFFF0
7FF1FC00
7FE1FC00
7FC1FC00
FF81FC00
FF81FC00
FF81FC00
FF81FC00
FF81FC00
FF81FC00
FF81FC00
7FC1FC00
7FC1FC00
7FE1FC00
3FF1FC00
3FFDFC00
1FFFFC00
0FFFFFF8
07FFFFFC
03FFFFFC
00FFFFFE
007FFFFC
000FFFFC
0001FFF8
0001FC00
0001FC00
0001FC00
0001FC00
0001FC00
0001FC00
0001FC00
0001FC00
0000F800
00002000
ENDCHAR
STARTCHAR sterling
ENCODING 163
SWIDTH 611 0
DWIDTH 39 0
BBX 39 46 0 -1
BITMAP
000001FF80
00000FFFF0
00003FFFF8
00007FFFFC
0000FFFFFE
0001FFFFFE
0003FFFFFC
0007FFC7FC
0007FE0070
0007FC0000
000FF80000
000FF80000
000FF00000
000FF00000
000FF00000
000FF00000
000FF00000
07FFFFFF80
0FFFFFFFC0
0FFFFFFFE0
0FFFFFFFE0
0FFFFFFFE0
0FFFFFFFC0
07FFFFFF80
000FF80000
000FF80000
000FF80000
000FF80000
000FF80000
000FF80000
000FF80000
000FF80000
000FF80000
000FF00000
000FF00000
000FF00000
001FF00000
007FE00000
07FFFE0FE0
3FFFFFFFF0
7FFFFFFFF8
FFFFFFFFF8
FFFFFFFFF0
FFFFFFFFF0
7FFFFFFFC0
3E0007FF00
ENDCHAR
STARTCHAR currency
ENCODING 164
SWIDTH 611 0
DWIDTH 39 0
BBX 33 32 3 6
BITMAP
180FF80C00
3C3FFE1E00
7EFFFFBF00
FFFFFFFF80
7FFFFFFF00
3FFFFFFE00
1FFFFFFC00
1FF80FFC00
3FE003FE00
3FC001FE00
3F8000FE00
7F8000FF00
7F00007F00
7F00007F00
7F00007F00
7F00007F00
7F00007F00
7F00007F00
7F00007F00
7F00007F00
7F8000FF00
3F8000FE00
3FC001FE00
3FE003FE00
1FF80FFC00
1FFFFFFC00
3FFFFFFE00
7FFFFFFF00
FFFFFFFF80
7EFFFFBF00
3C7FFF1E00
180FF80C00
ENDCHAR
STARTCHAR yen
ENCODING 165
SWIDTH 611 0
DWIDTH 39 0
BBX 33 46 3 -1
BITMAP
3C00001E00
7E00003F00
FF00003F80
FF00007F80
FF00007F80
FF80007F80
FF8000FF80
FF8000FF80
7FC001FF00
7FC001FF00
7FC001FF00
3FE003FE00
3FF007FE00
1FF007FC00
1FF80FFC00
3FFC1FFE00
7FFC1FFF00
7FFE3FFF80
7FFFFFFF80
7FFFFFFF80
7FFFFFFF00
3FFFFFFE00
003FFE0000
001FFC0000
0FFFFFFC00
3FFFFFFE00
3FFFFFFE00
3FFFFFFE00
3FFFFFFE00
3FFFFFFE00
1FFFFFFC00
000FF80000
000FF80000
000FF80000
000FF80000
000FF80000
000FF80000
000FF80000
000FF80000
000FF80000
000FF80000
000FF80000
000FF80000
0007F00000
0007F00000
0003E00000
ENDCHAR
STARTCHAR brokenbar
ENCODING 166
SWIDTH 222 0
DWIDTH 14 0
BBX 6 54 4 -11
BITMAP
FC
FC
FC
FC
FC
FC
FC
FC
FC
FC
FC
FC
FC
FC
FC
FC
FC
FC
FC
FC
FC
FC
00
00
00
00
00
00
00
00
00
00
FC
FC
FC
FC
FC
FC
FC
FC
FC
FC
FC
FC
FC
FC
FC
FC
FC
FC
FC
FC
FC
FC
ENDCHAR
STARTCHAR section
ENCODING 167
SWIDTH 500 0
DWIDTH 32 0
BBX 28 45 2 -1
BITMAP
00FFFF00
03FFFF80
0FFFFFC0
0FFFFFC0
1FFFFF80
1FFFFF80
3FFFFE00
3FC00000
3FC00000
3FC00000
1FE00000
1FF80000
1FFF0000
1FFFE000
3FFFFC00
7FFFFE00
7FFFFF80
7FFFFFC0
FF0FFFE0
FF03FFE0
FF007FE0
FF801FF0
FFE00FF0
7FF80FF0
7FFF0FF0
3FFFCFE0
1FFFFFE0
0FFFFFE0
03FFFFE0
00FFFFC0
001FFF80
0003FFC0
0000FFC0
00003FC0
00001FC0
00001FE0
00001FC0
00003FC0
0FFFFFC0
3FFFFFC0
7FFFFF80
7FFFFF00
7FFFFE00
7FFFFC00
3FFFE000
ENDCHAR
STARTCHAR dieresis
ENCODING 168
SWIDTH 278 0
DWIDTH 18 0
BBX 22 8 -2 37
BITMAP
3800F0
7E01F8
FE03FC
FF03FC
FF03FC
FE03FC
7E01F8
3C00F0
ENDCHAR
STARTCHAR copyright
ENCODING 169
SWIDTH 800 0
DWIDTH 51 0
BBX 46 46 3 -1
BITMAP
00003FE00000
0003FFFE0000
000FFFFF8000
003FFFFFE000
007FFFFFF800
01FFE01FFC00
03FF0003FE00
07FC0001FF00
0FF000007F80
0FE00FC03F80
1FC07FF81FC0
3F80FFFE0FE0
3F81FFFF0FE0
7F03FFFF07F0
7F07F83F83F0
7E07F00F83F0
FE0FE00FC3F8
FE0FC007C1F8
FC1FC007C1F8
FC1F800001F8
FC1F800001F8
FC1F800001F8
FC1F800001FC
FC1F800001F8
FC1F800001F8
FC1F800001F8
FC1F8007C1F8
FC0FC007C1F8
FE0FE00FC1F8
7E0FE00F83F8
7E07F83F83F0
7F03FFFF07F0
3F01FFFF07F0
3F80FFFE0FE0
1FC07FF80FE0
1FC00FE01FC0
0FE000003F80
07F800007F80
07FC0001FF00
03FF0007FE00
00FFE01FFC00
007FFFFFF000
003FFFFFE000
000FFFFF8000
0003FFFE0000
00003FE00000
ENDCHAR
STARTCHAR ordfeminine
ENCODING 170
SWIDTH 334 0
DWIDTH 21 0
BBX 19 21 1 24
BITMAP
1FFE00
3FFF80
3FFFC0
3FFFC0
000FE0
0007E0
0003E0
01FFE0
0FFFE0
3FFFE0
7FFFE0
7F03E0
FC03E0
FC03E0
F807E0
FC07E0
FE1FE0
7FFFE0
7FFFE0
3FFBE0
0FE1C0
ENDCHAR
STARTCHAR guillemotleft
ENCODING 171
SWIDTH 500 0
DWIDTH 32 0
BBX 25 26 4 3
BITMAP
01C01E00
03F03F00
07F03F80
07F07F80
0FF07F00
1FF0FF00
1FE1FF00
3FE1FE00
3FC3FE00
7F83FC00
7F87FC00
FF07F800
FF0FF000
FF0FF800
FF87F800
7F87FC00
7FC3FC00
3FC1FE00
1FE1FE00
1FE0FF00
0FF0FF00
0FF07F80
07F07F80
07F03F00
03E01F00
00800400
ENDCHAR
STARTCHAR logicalnot
ENCODING 172
SWIDTH 600 0
DWIDTH 38 0
BBX 32 20 3 6
BITMAP
FFFFFFFF
FFFFFFFF
FFFFFFFF
FFFFFFFF
FFFFFFFF
FFFFFFFF
FFFFFFFF
0000003F
0000003F
0000003F
0000003F
0000003F
0000003F
0000003F
0000003F
0000003F
0000003F
0000003F
0000003F
0000003F
ENDCHAR
STARTCHAR uni00AD
ENCODING 173
SWIDTH 333 0
DWIDTH 21 0
BBX 16 7 3 13
BITMAP
7FFC
FFFE
FFFE
FFFF
FFFE
FFFE
7FFC
ENDCHAR
STARTCHAR registered
ENCODING 174
SWIDTH 800 0
DWIDTH 51 0
BBX 45 46 3 -1
BITMAP
00003FE00000
0003FFFE0000
000FFFFF8000
003FFFFFE000
007FFFFFF800
01FFE01FFC00
03FF0007FE00
07FC0001FF00
0FF000007F80
0FE000003F80
1FC3FFF01FC0
3F83FFFC0FE0
3F83FFFE0FE0
3F03FFFF07F0
7F03E03F03F0
7E03E01F83F0
FE03E01F83F8
FE03E00F81F8
FC03E01F81F8
FC03E01F81F8
FC03E03F01F8
FC03FFFF01F8
FC03FFFE01F8
FC03FFFC01F8
FC03FFF001F8
FC03E3E001F8
FC03E3E001F8
FC03E1F001F8
FE03E1F001F8
FE03E0F803F8
7E03E0F803F0
7F03E07C07F0
3F03E03E07F0
3F83E03E0FE0
3FC3E01F0FE0
1FC3E01F1FC0
0FE000003F80
0FF000007F80
07FC0001FF00
03FF0007FE00
01FFC01FFC00
007FFFFFF800
003FFFFFE000
000FFFFF8000
0003FFFE0000
00003FF00000
ENDCHAR
STARTCHAR macron
ENCODING 175
SWIDTH 278 0
DWIDTH 18 0
BBX 19 5 -1 38
BITMAP
7FFFE0
FFFFE0
FFFFE0
FFFFE0
7FFFE0
ENDCHAR
STARTCHAR degree
ENCODING 176
SWIDTH 400 0
DWIDTH 26 0
BBX 18 18 4 27
BITMAP
03F000
0FFC00
1FFE00
3FFF00
7C1F80
F80780
F00780
F003C0
F003C0
F003C0
F003C0
F00780
F80780
7C1F80
3FFF00
1FFE00
0FFC00
03F000
ENDCHAR
STARTCHAR plusminus
ENCODING 177
SWIDTH 600 0
DWIDTH 38 0
BBX 32 33 3 0
BITMAP
0007F000
0007F000
0007F000
0007F000
0007F000
0007F000
0007F000
0007F000
0007F000
FFFFFFFF
FFFFFFFF
FFFFFFFF
FFFFFFFF
FFFFFFFF
FFFFFFFF
FFFFFFFF
0007F000
0007F000
0007F000
0007F000
0007F000
0007F000
0007F000
0007F000
00000000
00000000
FFFFFFFF
FFFFFFFF
FFFFFFFF
FFFFFFFF
FFFFFFFF
FFFFFFFF
FFFFFFFF
ENDCHAR
STARTCHAR twosuperior
ENCODING 178
SWIDTH 366 0
DWIDTH 23 0
BBX 23 26 0 18
BITMAP
1FFF80
3FFFE0
3FFFF0
3FFFF8
3FFFF8
0001FC
0001FC
0001FC
0001FC
0003F8
0007F8
001FF0
007FE0
01FFC0
07FF00
0FFC00
1FF000
3FC000
7F0000
7E0000
7E0000
FFFFFC
FFFFFE
7FFFFE
7FFFFE
3FFFFC
ENDCHAR
STARTCHAR threesuperior
ENCODING 179
SWIDTH 366 0
DWIDTH 23 0
BBX 23 26 0 18
BITMAP
3FFFE0
7FFFF0
7FFFF0
7FFFF0
7FFFF0
001FC0
007F00
03FC00
0FF000
1FFF80
1FFFE0
1FFFF0
0FFFF8
0007FC
0001FE
0000FE
0000FE
0000FE
0000FE
0000FE
0003FC
7FFFFC
FFFFF8
FFFFF0
FFFFC0
7FFF00
ENDCHAR
STARTCHAR acute
ENCODING 180
SWIDTH 278 0
DWIDTH 18 0
BBX 18 9 0 36
BITMAP
000780
003F80
01FFC0
07FFC0
3FFFC0
FFFF80
FFFE00
FFC000
7C0000
ENDCHAR
STARTCHAR mu
ENCODING 181
SWIDTH 556 0
DWIDTH 36 0
BBX 28 48 4 -14
BITMAP
3C0003C0
7E0007E0
FE000FE0
FF000FF0
FF000FF0
FF000FF0
FF000FF0
FF000FF0
FF000FF0
FF000FF0
FF000FF0
FF000FF0
FF000FF0
FF000FF0
FF000FF0
FF000FF0
FF000FF0
FF000FF0
FF000FF0
FF000FF0
FF000FF0
FF000FF0
FF001FF0
FF001FF0
FF001FF0
FF003FF0
FF807FF0
FFC0FFF0
FFFFFFF0
FFFFFFF0
FFFFFFF0
FFFFFFF0
FFFFEFE0
FFFF87E0
FFFE03C0
FF000000
FF000000
FF000000
FF000000
FF000000
FF000000
FF000000
FF000000
FF000000
FF000000
FE000000
7E000000
3C000000
ENDCHAR
STARTCHAR paragraph
ENCODING 182
SWIDTH 620 0
DWIDTH 40 0
BBX 34 45 2 -1
BITMAP
003FFFFFC0
03FFFFFFC0
0FFFFFFFC0
1FFFFFFFC0
3FFFFFFFC0
3FFFFFFFC0
7FFFFFFFC0
7FFFF81FC0
FFFFF81FC0
FFFFF81FC0
FFFFF81FC0
FFFFF81FC0
FFFFF81FC0
FFFFF81FC0
FFFFF81FC0
7FFFF81FC0
7FFFF81FC0
3FFFF81FC0
3FFFF81FC0
1FFFF81FC0
0FFFF81FC0
03FFF81FC0
007FF81FC0
0003F81FC0
0003F81FC0
0003F81FC0
0003F81FC0
0003F81FC0
0003F81FC0
0003F81FC0
0003F81FC0
0003F81FC0
0003F81FC0
0003F81FC0
0003F81FC0
0003F81FC0
0003F81FC0
0003F81FC0
0003F81FC0
0003F81FC0
0003F81FC0
0003F81FC0
0003F81FC0
0003F81FC0
0003F81FC0
ENDCHAR
STARTCHAR periodcentered
ENCODING 183
SWIDTH 305 0
DWIDTH 20 0
BBX 9 9 5 12
BITMAP
1E00
7F00
7F80
FF80
FF80
FF80
FF80
7F00
3E00
ENDCHAR
STARTCHAR cedilla
ENCODING 184
SWIDTH 278 0
DWIDTH 18 0
BBX 17 15 0 -13
BITMAP
01C000
01C000
01C000
038000
038000
03F800
03FF00
07FF80
001F80
000F80
601F80
F83F80
7FFF00
3FFE00
0FF800
ENDCHAR
STARTCHAR onesuperior
ENCODING 185
SWIDTH 366 0
DWIDTH 23 0
BBX 20 27 1 18
BITMAP
007800
07F800
7FFC00
7FFC00
FFFC00
7FFC00
39FC00
01FC00
01FC00
01FC00
01FC00
01FC00
01FC00
01FC00
01FC00
01FC00
01FC00
01FC00
01FC00
01FC00
01FC00
01FC00
7FFFF0
7FFFF0
FFFFF0
7FFFF0
3FFFE0
ENDCHAR
STARTCHAR ordmasculine
ENCODING 186
SWIDTH 334 0
DWIDTH 21 0
BBX 21 21 0 24
BITMAP
01FC00
07FF00
0FFFC0
1FFFE0
3FCFE0
7F03F0
7E03F0
7C01F8
7C01F8
FC01F8
FC00F8
FC01F8
7C01F8
7C01F8
7E03F0
7F03F0
3F8FE0
1FFFE0
0FFFC0
07FF00
01FC00
ENDCHAR
STARTCHAR guillemotright
ENCODING 187
SWIDTH 500 0
DWIDTH 32 0
BBX 25 26 3 3
BITMAP
3801C000
7E07E000
FE07F000
FF07F000
FF07F800
7F87F800
7F83FC00
3FC3FE00
3FE1FE00
1FE1FF00
1FF0FF00
0FF07F80
07F87F80
0FF87F80
0FF0FF80
1FF0FF00
1FE1FF00
3FC1FE00
3FC3FC00
7F83FC00
7F87F800
FF07F800
FF07F000
7E07E000
7C03E000
10008000
ENDCHAR
STARTCHAR onequarter
ENCODING 188
SWIDTH 916 0
DWIDTH 59 0
BBX 56 46 2 -1
BITMAP
00F0000001E000
0FF8000003F000
FFF8000003F800
FFF8000007F800
FFF800000FF800
FFF800000FF000
7BF800001FE000
03F800003FE000
03F800003FC000
03F800007F8000
03F80000FF8000
03F80000FF0000
03F80001FE0000
03F80003FE0000
03F80003FC0000
03F80007F80000
03F8000FF80000
03F8000FF00000
03F8001FF00F00
03F8003FE03FC0
03F8003FC0FFC0
03F8007FC1FFC0
7FFFE0FF83FFC0
FFFFF0FF07FFC0
FFFFF1FF0FEFC0
FFFFF3FE1FCFC0
7FFFE3FC3F8FC0
000007FC3F0FC0
00000FF87E0FC0
00000FF0FE0FC0
00001FF0FC0FC0
00003FE0FC0FC0
00003FC1F80FC0
00007FC1F80FC0
0000FF81F80FC0
0000FF03FFFFFE
0001FF03FFFFFE
0003FE03FFFFFF
0003FC01FFFFFE
0007FC00FFFFFC
000FF800000FC0
000FF000000FC0
000FF000000FC0
000FE000000FC0
000FC0000007C0
00038000000780
ENDCHAR
STARTCHAR onehalf
ENCODING 189
SWIDTH 916 0
DWIDTH 59 0
BBX 56 46 1 -1
BITMAP
00F0000001C000
07F8000003E000
7FFC000007F000
FFFC00000FF000
FFFC00000FF000
7FFC00001FE000
39FC00003FE000
01FC00003FC000
01FC00007FC000
01FC0000FF8000
01FC0000FF0000
01FC0001FF0000
01FC0003FE0000
01FC0003FC0000
01FC0007FC0000
01FC000FF80000
01FC000FF00000
01FC001FF00000
01FC003FEFFFC0
01FC003FDFFFF0
01FC007FDFFFFC
01FC00FF9FFFFC
7FFFE0FF0FFFFE
FFFFF1FF0000FE
FFFFF3FE00007E
FFFFF3FC00007E
7FFFE7FC0000FE
00000FF80000FE
00000FF00001FE
00001FF00007FC
00003FE0001FF8
00003FC0007FF0
00007FC000FFC0
0000FF8003FF80
0000FF0007FE00
0001FF000FF800
0003FE001FE000
0003FC001F8000
0007FC003F8000
000FF8003F8000
000FF0003FFFFF
001FF0003FFFFF
001FE0003FFFFF
001FC0003FFFFF
000FC0001FFFFF
00078000000000
ENDCHAR
STARTCHAR threequarters
ENCODING 190
SWIDTH 916 0
DWIDTH 59 0
BBX 57 46 2 -1
BITMAP
0000000000F00000
3FFFE00001F80000
7FFFF00001FC0000
7FFFF80003FC0000
7FFFF00007FC0000
3FFFF00007F80000
001FC0000FF80000
007F00001FF00000
01FC00001FF00000
07F000003FE00000
1FFF80007FC00000
1FFFE0007F800000
1FFFF000FF800000
0FFFF801FF000000
0007FC01FE000000
0001FE03FE000000
0000FE07FC000000
00007E07F8000000
00007E0FF8010000
00007E1FF00FE000
0000FE1FE03FE000
0003FE3FE0FFF000
7FFFFC7FC1FFF000
FFFFF87F83FFF000
FFFFF0FF87F3F000
FFFFE1FF0FE3F000
7FFF01FE0FC3F000
000003FE1F83F000
000007FC3F83F000
000007F83F03F000
00000FF87E03F000
00001FF07E03F000
00001FE07E03F000
00003FE0FC03F000
00007FC0FC03F000
00007F80FFFFFF00
0000FF80FFFFFF80
0001FF00FFFFFF80
0001FE00FFFFFF80
0003FE007FFFFF00
0007FC000003F000
0007F8000003F000
0007F8000003F000
0007F0000003F000
0007E0000003E000
0001C0000001C000
ENDCHAR
STARTCHAR questiondown
ENCODING 191
SWIDTH 500 0
DWIDTH 32 0
BBX 28 45 3 -14
BITMAP
0001C000
0007F000
000FF800
000FF800
000FF800
000FF800
000FF800
000FF800
0007F000
0003E000
00000000
00000000
00000000
00000000
0003E000
0007F000
0007F000
000FF000
000FF000
000FF000
000FF000
001FF000
007FF000
00FFE000
03FFC000
07FF8000
0FFF0000
1FFE0000
3FF80000
7FF00000
7FE00000
FFC00000
FF800000
FF000000
FF000000
FF000000
FF800000
FFC00000
FFFFFFC0
FFFFFFE0
7FFFFFF0
3FFFFFF0
1FFFFFF0
0FFFFFE0
01FFFFC0
ENDCHAR
STARTCHAR Agrave
ENCODING 192
SWIDTH 667 0
DWIDTH 43 0
BBX 39 55 2 0
BITMAP
001F000000
001FE00000
003FF80000
003FFF0000
003FFFE000
001FFFF000
0003FFF000
00001FF000
000001E000
0000000000
0000780000
0001FE0000
0003FF0000
0007FF8000
000FFFC000
000FFFC000
001FFFE000
001FFFE000
003FEFF000
003FCFF000
007F87F800
00FF87F800
00FF03FC00
01FF03FC00
01FE01FE00
01FE01FE00
03FC00FF00
03FC00FF00
07F8007F80
07F8007F80
0FFFF07FC0
0FFFFC3FC0
0FFFFF3FC0
1FFFFFFFE0
1FFFFFFFE0
1FFFFFFFE0
3FE07FFFF0
3FC00FFFF0
3FC003FFF0
7FC000FFF8
7F80007FF8
7F80003FF8
7F80001FFC
FF80000FFC
FF800007FC
FF000007FC
FF000003FE
FF000003FE
FF000003FE
FF000003FE
FF000001FE
FF000001FE
FE000001FE
FE000000FC
7C00000078
ENDCHAR
STARTCHAR Aacute
ENCODING 193
SWIDTH 667 0
DWIDTH 43 0
BBX 39 55 2 0
BITMAP
000001E000
00000FF000
00007FF000
0001FFF000
000FFFF000
001FFFF000
001FFF0000
001FF00000
000F000000
0000000000
0000780000
0001FE0000
0003FF0000
0007FF8000
000FFFC000
000FFFC000
001FFFE000
001FFFE000
003FEFF000
003FCFF000
007F87F800
00FF87F800
00FF03FC00
01FF03FC00
01FE01FE00
01FE01FE00
03FC00FF00
03FC00FF00
07F8007F80
07F8007F80
0FFFF07FC0
0FFFFC3FC0
0FFFFF3FC0
1FFFFFFFE0
1FFFFFFFE0
1FFFFFFFE0
3FE07FFFF0
3FC00FFFF0
3FC003FFF0
7FC000FFF8
7F80007FF8
7F80003FF8
7F80001FFC
FF80000FFC
FF800007FC
FF000007FC
FF000003FE
FF000003FE
FF000003FE
FF000003FE
FF000001FE
FF000001FE
FE000001FE
FE000000FC
7C00000078
ENDCHAR
STARTCHAR Acircumflex
ENCODING 194
SWIDTH 667 0
DWIDTH 43 0
BBX 39 56 2 0
BITMAP
00007C0000
0000FE0000
0001FF0000
0003FF8000
0007FFC000
000FCFC000
001FC7E000
001F83F000
003F01F800
003E00F800
0000000000
0000780000
0001FE0000
0003FF0000
0007FF8000
000FFFC000
000FFFC000
001FFFE000
001FFFE000
003FEFF000
003FCFF000
007F87F800
00FF87F800
00FF03FC00
01FF03FC00
01FE01FE00
01FE01FE00
03FC00FF00
03FC00FF00
07F8007F80
07F8007F80
0FFFF07FC0
0FFFFC3FC0
0FFFFF3FC0
1FFFFFFFE0
1FFFFFFFE0
1FFFFFFFE0
3FE07FFFF0
3FC00FFFF0
3FC003FFF0
7FC000FFF8
7F80007FF8
7F80003FF8
7F80001FFC
FF80000FFC
FF800007FC
FF000007FC
FF000003FE
FF000003FE
FF000003FE
FF000003FE
FF000001FE
FF000001FE
FE000001FE
FE000000FC
7C00000078
ENDCHAR
STARTCHAR Atilde
ENCODING 195
SWIDTH 667 0
DWIDTH 43 0
BBX 39 56 2 0
BITMAP
0000000C00
0007C01C00
001FF83C00
001FFFFC00
003FFFF800
007FFFF000
00787FE000
00600FC000
0060000000
0000000000
0000000000
0000780000
0001FE0000
0003FF0000
0007FF8000
000FFFC000
000FFFC000
001FFFE000
001FFFE000
003FEFF000
003FCFF000
007F87F800
00FF87F800
00FF03FC00
01FF03FC00
01FE01FE00
01FE01FE00
03FC00FF00
03FC00FF00
07F8007F80
07F8007F80
0FFFF07FC0
0FFFFC3FC0
0FFFFF3FC0
1FFFFFFFE0
1FFFFFFFE0
1FFFFFFFE0
3FE07FFFF0
3FC00FFFF0
3FC003FFF0
7FC000FFF8
7F80007FF8
7F80003FF8
7F80001FFC
FF80000FFC
FF800007FC
FF000007FC
FF000003FE
FF000003FE
FF000003FE
FF000003FE
FF000001FE
FF000001FE
FE000001FE
FE000000FC
7C00000078
ENDCHAR
STARTCHAR Adieresis
ENCODING 196
SWIDTH 667 0
DWIDTH 43 0
BBX 39 55 2 0
BITMAP
003C007000
007E01FC00
007F01FC00
00FF01FC00
00FF01FC00
00FF01FC00
007E01FC00
003C007000
0000000000
0000000000
0000780000
0001FE0000
0003FF0000
0007FF8000
000FFFC000
000FFFC000
001FFFE000
001FFFE000
003FEFF000
003FCFF000
007F87F800
00FF87F800
00FF03FC00
01FF03FC00
01FE01FE00
01FE01FE00
03FC00FF00
03FC00FF00
07F8007F80
07F8007F80
0FFFF07FC0
0FFFFC3FC0
0FFFFF3FC0
1FFFFFFFE0
1FFFFFFFE0
1FFFFFFFE0
3FE07FFFF0
3FC00FFFF0
3FC003FFF0
7FC000FFF8
7F80007FF8
7F80003FF8
7F80001FFC
FF80000FFC
FF800007FC
FF000007FC
FF000003FE
FF000003FE
FF000003FE
FF000003FE
FF000001FE
FF000001FE
FE000001FE
FE000000FC
7C00000078
ENDCHAR
STARTCHAR Aring
ENCODING 197
SWIDTH 667 0
DWIDTH 43 0
BBX 39 60 2 0
BITMAP
0000300000
0000FE0000
0003FF0000
0003FF8000
0007C7C000
000783C000
000701C000
000701C000
000703C000
0007C7C000
0003FF8000
0003FF0000
0000FE0000
0000300000
0000000000
0000780000
0001FE0000
0003FF0000
0007FF8000
000FFFC000
000FFFC000
001FFFE000
001FFFE000
003FEFF000
003FCFF000
007F87F800
00FF87F800
00FF03FC00
01FF03FC00
01FE01FE00
01FE01FE00
03FC00FF00
03FC00FF00
07F8007F80
07F8007F80
0FFFF07FC0
0FFFFC3FC0
0FFFFF3FC0
1FFFFFFFE0
1FFFFFFFE0
1FFFFFFFE0
3FE07FFFF0
3FC00FFFF0
3FC003FFF0
7FC000FFF8
7F80007FF8
7F80003FF8
7F80001FFC
FF80000FFC
FF800007FC
FF000007FC
FF000003FE
FF000003FE
FF000003FE
FF000003FE
FF000001FE
FF000001FE
FE000001FE
FE000000FC
7C00000078
ENDCHAR
STARTCHAR AE
ENCODING 198
SWIDTH 889 0
DWIDTH 57 0
BBX 57 44 -1 0
BITMAP
0000003FFFFFFE00
000001FFFFFFFF00
000003FFFFFFFF80
00000FFFFFFFFF80
00001FFFFFFFFF80
00003FFFFFFFFF00
00007FFFFFFFFF00
0000FFFFF8000000
0001FFCFF8000000
0003FF0FF8000000
0007FE0FF8000000
0007F80FF8000000
000FF00FF8000000
001FE00FF8000000
001FE00FFFFFF800
003FC00FFFFFFC00
007F80FFFFFFFC00
007F87FFFFFFFE00
00FF0FFFFFFFFC00
00FF3FFFFFFFFC00
01FEFFFFFFFFF800
01FFFFFFF8000000
03FFFFEFF8000000
03FFFF0FF8000000
07FFF80FF8000000
07FFE00FF8000000
0FFFC00FF8000000
0FFF000FF8000000
1FFE000FF8000000
1FFC000FF8000000
1FF8000FF8000000
3FF0000FF8000000
3FF0000FF8000000
3FE0000FF8000000
7FE0000FF8000000
7FC0000FF8000000
7FC0000FF8000000
7F80000FFFFFFF00
7F80000FFFFFFF00
FF80000FFFFFFF80
FF00000FFFFFFF80
7F000007FFFFFF80
7E000007FFFFFF00
3C000001FFFFFE00
ENDCHAR
STARTCHAR Ccedilla
ENCODING 199
SWIDTH 611 0
DWIDTH 39 0
BBX 35 58 3 -14
BITMAP
000FFFFF00
007FFFFF80
01FFFFFFC0
03FFFFFFC0
07FFFFFFC0
0FFFFFFFC0
1FFFFFFF80
3FFFFFFE00
3FFC000000
7FF0000000
7FE0000000
7FC0000000
FFC0000000
FFC0000000
FF80000000
FF80000000
FF80000000
FF80000000
FF80000000
FF80000000
FF80000000
FF80000000
FF80000000
FFC0000000
FFC0000000
7FC0000000
7FE0000000
7FE0000000
3FF0000000
3FF8000000
3FF8000000
1FFC000000
0FFF000000
0FFF800000
07FFE00000
03FFF80000
01FFFF8000
00FFFFFF00
007FFFFFC0
003FFFFFC0
000FFFFFE0
0003FFFFE0
0000FFFFC0
00003FFFC0
00003BFF00
0000380000
0000380000
0000700000
00007F8000
00007FE000
00007FF000
000003F800
000001F800
000E01F800
000F87F000
000FFFF000
0007FFE000
0000FF0000
ENDCHAR
STARTCHAR Egrave
ENCODING 200
SWIDTH 556 0
DWIDTH 36 0
BBX 29 55 4 0
BITMAP
01000000
03F00000
07FC0000
07FF8000
07FFF000
07FFFC00
01FFFE00
001FFE00
0001FC00
00000800
00000000
3FFFFFE0
7FFFFFF0
7FFFFFF8
FFFFFFF8
FFFFFFF8
FFFFFFF0
FFFFFFF0
FF800000
FF800000
FF800000
FF800000
FF800000
FF800000
FFFFFFE0
FFFFFFF0
FFFFFFF0
FFFFFFF0
FFFFFFF0
FFFFFFF0
FFFFFFC0
FF800000
FF800000
FF800000
FF800000
FF800000
FF800000
FF800000
FF800000
FF800000
FF800000
FF800000
FF800000
FF800000
FF800000
FF800000
FF800000
FF800000
FFFFFFE0
FFFFFFF0
FFFFFFF8
7FFFFFF8
7FFFFFF8
3FFFFFF0
1FFFFFE0
ENDCHAR
STARTCHAR Eacute
ENCODING 201
SWIDTH 556 0
DWIDTH 36 0
BBX 29 54 4 0
BITMAP
00007E00
0003FE00
001FFE00
00FFFE00
03FFFE00
03FFFC00
03FFC000
03F80000
01800000
00000000
3FFFFFE0
7FFFFFF0
7FFFFFF8
FFFFFFF8
FFFFFFF8
FFFFFFF0
FFFFFFF0
FF800000
FF800000
FF800000
FF800000
FF800000
FF800000
FFFFFFE0
FFFFFFF0
FFFFFFF0
FFFFFFF0
FFFFFFF0
FFFFFFF0
FFFFFFC0
FF800000
FF800000
FF800000
FF800000
FF800000
FF800000
FF800000
FF800000
FF800000
FF800000
FF800000
FF800000
FF800000
FF800000
FF800000
FF800000
FF800000
FFFFFFE0
FFFFFFF0
FFFFFFF8
7FFFFFF8
7FFFFFF8
3FFFFFF0
1FFFFFE0
ENDCHAR
STARTCHAR Ecircumflex
ENCODING 202
SWIDTH 556 0
DWIDTH 36 0
BBX 29 55 4 0
BITMAP
000F8000
003FC000
003FE000
007FF000
00FFF000
01F9F800
03F0FC00
07F07E00
0FE03F00
07801F00
00000000
3FFFFFE0
7FFFFFF0
7FFFFFF8
FFFFFFF8
FFFFFFF8
FFFFFFF0
FFFFFFF0
FF800000
FF800000
FF800000
FF800000
FF800000
FF800000
FFFFFFE0
FFFFFFF0
FFFFFFF0
FFFFFFF0
FFFFFFF0
FFFFFFF0
FFFFFFC0
FF800000
FF800000
FF800000
FF800000
FF800000
FF800000
FF800000
FF800000
FF800000
FF800000
FF800000
FF800000
FF800000
FF800000
FF800000
FF800000
FF800000
FFFFFFE0
FFFFFFF0
FFFFFFF8
7FFFFFF8
7FFFFFF8
3FFFFFF0
1FFFFFE0
ENDCHAR
STARTCHAR Edieresis
ENCODING 203
SWIDTH 556 0
DWIDTH 36 0
BBX 29 54 4 0
BITMAP
07801E00
0FC03F00
1FE03F80
1FE07F80
1FE07F80
1FE03F80
0FC03F00
07800E00
00000000
00000000
3FFFFFE0
7FFFFFF0
7FFFFFF8
FFFFFFF8
FFFFFFF8
FFFFFFF0
FFFFFFF0
FF800000
FF800000
FF800000
FF800000
FF800000
FF800000
FFFFFFE0
FFFFFFF0
FFFFFFF0
FFFFFFF0
FFFFFFF0
FFFFFFF0
FFFFFFC0
FF800000
FF800000
FF800000
FF800000
FF800000
FF800000
FF800000
FF800000
FF800000
FF800000
FF800000
FF800000
FF800000
FF800000
FF800000
FF800000
FF800000
FFFFFFE0
FFFFFFF0
FFFFFFF8
7FFFFFF8
7FFFFFF8
3FFFFFF0
1FFFFFE0
ENDCHAR
STARTCHAR Igrave
ENCODING 204
SWIDTH 278 0
DWIDTH 18 0
BBX 17 54 0 0
BITMAP
7C0000
FF8000
FFE000
FFFC00
FFFF80
7FFF80
07FF80
007F80
000700
000000
01E000
03F000
07F800
07F800
07F800
07F800
07F800
07F800
07F800
07F800
07F800
07F800
07F800
07F800
07F800
07F800
07F800
07F800
07F800
07F800
07F800
07F800
07F800
07F800
07F800
07F800
07F800
07F800
07F800
07F800
07F800
07F800
07F800
07F800
07F800
07F800
07F800
07F800
07F800
07F800
07F800
07F800
03F000
01E000
ENDCHAR
STARTCHAR Iacute
ENCODING 205
SWIDTH 278 0
DWIDTH 18 0
BBX 18 54 0 0
BITMAP
000F80
007FC0
03FFC0
0FFFC0
7FFFC0
FFFF80
FFF800
7F8000
780000
000000
01E000
03F000
07F800
07F800
07F800
07F800
07F800
07F800
07F800
07F800
07F800
07F800
07F800
07F800
07F800
07F800
07F800
07F800
07F800
07F800
07F800
07F800
07F800
07F800
07F800
07F800
07F800
07F800
07F800
07F800
07F800
07F800
07F800
07F800
07F800
07F800
07F800
07F800
07F800
07F800
07F800
07F800
03F000
01E000
ENDCHAR
STARTCHAR Icircumflex
ENCODING 206
SWIDTH 278 0
DWIDTH 18 0
BBX 20 55 -1 0
BITMAP
01F000
03FC00
07FC00
0FFE00
0FFF00
1F9F80
3F0FC0
7E0FE0
FC07F0
F801F0
000000
00F000
01F800
03FC00
03FC00
03FC00
03FC00
03FC00
03FC00
03FC00
03FC00
03FC00
03FC00
03FC00
03FC00
03FC00
03FC00
03FC00
03FC00
03FC00
03FC00
03FC00
03FC00
03FC00
03FC00
03FC00
03FC00
03FC00
03FC00
03FC00
03FC00
03FC00
03FC00
03FC00
03FC00
03FC00
03FC00
03FC00
03FC00
03FC00
03FC00
03FC00
03FC00
01F800
00F000
ENDCHAR
STARTCHAR Idieresis
ENCODING 207
SWIDTH 278 0
DWIDTH 18 0
BBX 22 54 -2 0
BITMAP
3C00F0
7E01F8
FE03FC
FF03FC
FF03FC
FE03FC
7E01F8
3C00F0
000000
000000
007800
00FC00
01FE00
01FE00
01FE00
01FE00
01FE00
01FE00
01FE00
01FE00
01FE00
01FE00
01FE00
01FE00
01FE00
01FE00
01FE00
01FE00
01FE00
01FE00
01FE00
01FE00
01FE00
01FE00
01FE00
01FE00
01FE00
01FE00
01FE00
01FE00
01FE00
01FE00
01FE00
01FE00
01FE00
01FE00
01FE00
01FE00
01FE00
01FE00
01FE00
01FE00
00FC00
007800
ENDCHAR
STARTCHAR Eth
ENCODING 208
SWIDTH 667 0
DWIDTH 43 0
BBX 40 44 0 0
BITMAP
01FF800000
07FFF80000
07FFFF0000
0FFFFFE000
0FFFFFF000
0FFFFFFC00
0FFFFFFE00
0FFFFFFF80
0FF03FFFC0
0FF007FFC0
0FF001FFE0
0FF000FFF0
0FF0007FF8
0FF0003FF8
0FF0001FFC
0FF0000FFC
0FF00007FE
3FFFF807FE
FFFFFC03FE
FFFFFC03FF
FFFFFE03FF
FFFFFC01FF
FFFFFC01FF
7FFFF801FF
0FF00001FF
0FF00001FF
0FF00001FF
0FF00001FF
0FF00001FF
0FF00001FF
0FF00001FF
0FF00003FF
0FF00003FE
0FF00007FE
0FF0001FFC
0FF0007FFC
0FFFFFFFF8
0FFFFFFFF8
0FFFFFFFF0
0FFFFFFFE0
0FFFFFFFC0
0FFFFFFF00
07FFFFFE00
03FFFFF000
ENDCHAR
STARTCHAR Ntilde
ENCODING 209
SWIDTH 611 0
DWIDTH 39 0
BBX 31 55 4 0
BITMAP
000000C0
007E01C0
00FFC3C0
01FFFFC0
03FFFF80
07FFFF00
0783FE00
07007C00
06000000
00000000
00000000
3F000078
7F8000FC
FFC001FE
FFE001FE
FFF001FE
FFF801FE
FFFC01FE
FFFE01FE
FFFF01FE
FFFF81FE
FFFFE1FE
FF7FF9FE
FF3FFFFE
FF1FFFFE
FF07FFFE
FF03FFFE
FF00FFFE
FF003FFE
FF000FFE
FF0001FE
FF0001FE
FF0001FE
FF0001FE
FF0001FE
FF0001FE
FF0001FE
FF0001FE
FF0001FE
FF0001FE
FF0001FE
FF0001FE
FF0001FE
FF0001FE
FF0001FE
FF0001FE
FF0001FE
FF0001FE
FF0001FE
FF0001FE
FF0001FE
FF0001FE
FF0001FE
7E0000FC
3C000078
ENDCHAR
STARTCHAR Ograve
ENCODING 210
SWIDTH 722 0
DWIDTH 46 0
BBX 42 56 2 -1
BITMAP
000780000000
000FF0000000
000FFE000000
000FFFC00000
000FFFF80000
0007FFFC0000
0000FFFC0000
00000FF80000
000000780000
000000000000
0000FFC00000
0007FFF80000
001FFFFE0000
007FFFFF8000
00FFFFFFC000
01FFFFFFE000
03FFFFFFF000
07FFF1FFF800
0FFF003FFC00
0FFE001FFC00
1FFC000FFE00
1FF80007FE00
3FF00003FF00
3FF00001FF00
7FE00001FF80
7FE00001FF80
7FC00000FF80
7FC00000FF80
7FC00000FFC0
FFC000007FC0
FF8000007FC0
FF8000007FC0
FF8000007FC0
FF8000007FC0
FF8000007FC0
FFC000007FC0
FFC000007FC0
7FC00000FFC0
7FC00000FF80
7FC00000FF80
7FE00001FF80
7FE00001FF80
3FF00001FF00
3FF00003FF00
1FF80007FE00
1FFC000FFE00
0FFE001FFC00
0FFF003FFC00
07FFE1FFF800
03FFFFFFF000
01FFFFFFE000
00FFFFFFC000
007FFFFF8000
001FFFFE0000
0007FFF80000
00007FC00000
ENDCHAR
STARTCHAR Oacute
ENCODING 211
SWIDTH 722 0
DWIDTH 46 0
BBX 42 56 2 -1
BITMAP
000000780000
000003FC0000
00001FFC0000
0000FFFC0000
0003FFFC0000
0007FFFC0000
000FFFC00000
0007FC000000
0007C0000000
000000000000
0000FFC00000
0007FFF80000
001FFFFE0000
007FFFFF8000
00FFFFFFC000
01FFFFFFE000
03FFFFFFF000
07FFF1FFF800
0FFF003FFC00
0FFE001FFC00
1FFC000FFE00
1FF80007FE00
3FF00003FF00
3FF00001FF00
7FE00001FF80
7FE00001FF80
7FC00000FF80
7FC00000FF80
7FC00000FFC0
FFC000007FC0
FF8000007FC0
FF8000007FC0
FF8000007FC0
FF8000007FC0
FF8000007FC0
FFC000007FC0
FFC000007FC0
7FC00000FFC0
7FC00000FF80
7FC00000FF80
7FE00001FF80
7FE00001FF80
3FF00001FF00
3FF00003FF00
1FF80007FE00
1FFC000FFE00
0FFE001FFC00
0FFF003FFC00
07FFE1FFF800
03FFFFFFF000
01FFFFFFE000
00FFFFFFC000
007FFFFF8000
001FFFFE0000
0007FFF80000
00007FC00000
ENDCHAR
STARTCHAR Ocircumflex
ENCODING 212
SWIDTH 722 0
DWIDTH 46 0
BBX 42 57 2 -1
BITMAP
00001E000000
00007F800000
00007FC00000
0000FFC00000
0001FFE00000
0003F3F00000
0007E1F80000
000FE0FC0000
001FC0FE0000
001F807E0000
000000000000
0000FFC00000
0007FFF80000
001FFFFE0000
007FFFFF8000
00FFFFFFC000
01FFFFFFE000
03FFFFFFF000
07FFF1FFF800
0FFF003FFC00
0FFE001FFC00
1FFC000FFE00
1FF80007FE00
3FF00003FF00
3FF00001FF00
7FE00001FF80
7FE00001FF80
7FC00000FF80
7FC00000FF80
7FC00000FFC0
FFC000007FC0
FF8000007FC0
FF8000007FC0
FF8000007FC0
FF8000007FC0
FF8000007FC0
FFC000007FC0
FFC000007FC0
7FC00000FFC0
7FC00000FF80
7FC00000FF80
7FE00001FF80
7FE00001FF80
3FF00001FF00
3FF00003FF00
1FF80007FE00
1FFC000FFE00
0FFE001FFC00
0FFF003FFC00
07FFE1FFF800
03FFFFFFF000
01FFFFFFE000
00FFFFFFC000
007FFFFF8000
001FFFFE0000
0007FFF80000
00007FC00000
ENDCHAR
STARTCHAR Otilde
ENCODING 213
SWIDTH 722 0
DWIDTH 46 0
BBX 42 57 2 -1
BITMAP
000000030000
0001F0070000
0007FE0F0000
000FFFFE0000
000FFFFE0000
001FFFFC0000
001C1FF80000
003803E00000
003000000000
000000000000
000000000000
0000FFC00000
0007FFF80000
001FFFFE0000
007FFFFF8000
00FFFFFFC000
01FFFFFFE000
03FFFFFFF000
07FFF1FFF800
0FFF003FFC00
0FFE001FFC00
1FFC000FFE00
1FF80007FE00
3FF00003FF00
3FF00001FF00
7FE00001FF80
7FE00001FF80
7FC00000FF80
7FC00000FF80
7FC00000FFC0
FFC000007FC0
FF8000007FC0
FF8000007FC0
FF8000007FC0
FF8000007FC0
FF8000007FC0
FFC000007FC0
FFC000007FC0
7FC00000FFC0
7FC00000FF80
7FC00000FF80
7FE00001FF80
7FE00001FF80
3FF00001FF00
3FF00003FF00
1FF80007FE00
1FFC000FFE00
0FFE001FFC00
0FFF003FFC00
07FFE1FFF800
03FFFFFFF000
01FFFFFFE000
00FFFFFFC000
007FFFFF8000
001FFFFE0000
0007FFF80000
00007FC00000
ENDCHAR
STARTCHAR Odieresis
ENCODING 214
SWIDTH 722 0
DWIDTH 46 0
BBX 42 56 2 -1
BITMAP
000F003C0000
001F807E0000
003FC07F0000
003FC0FF0000
003FC0FF0000
003FC07F0000
001F807E0000
000F003C0000
000000000000
000000000000
0000FFC00000
0007FFF80000
001FFFFE0000
007FFFFF8000
00FFFFFFC000
01FFFFFFE000
03FFFFFFF000
07FFF1FFF800
0FFF003FFC00
0FFE001FFC00
1FFC000FFE00
1FF80007FE00
3FF00003FF00
3FF00001FF00
7FE00001FF80
7FE00001FF80
7FC00000FF80
7FC00000FF80
7FC00000FFC0
FFC000007FC0
FF8000007FC0
FF8000007FC0
FF8000007FC0
FF8000007FC0
FF8000007FC0
FFC000007FC0
FFC000007FC0
7FC00000FFC0
7FC00000FF80
7FC00000FF80
7FE00001FF80
7FE00001FF80
3FF00001FF00
3FF00003FF00
1FF80007FE00
1FFC000FFE00
0FFE001FFC00
0FFF003FFC00
07FFE1FFF800
03FFFFFFF000
01FFFFFFE000
00FFFFFFC000
007FFFFF8000
001FFFFE0000
0007FFF80000
00007FC00000
ENDCHAR
STARTCHAR multiply
ENCODING 215
SWIDTH 600 0
DWIDTH 38 0
BBX 32 33 3 0
BITMAP
08000010
1C000038
3E00007C
7F0000FE
FF8001FF
7FC003FF
3FE007FE
1FF00FFC
0FF81FF8
07FC3FF0
03FE7FE0
01FFFFC0
00FFFF80
00FFFF00
007FFE00
003FFC00
001FF800
003FFC00
007FFE00
007FFF00
00FFFF80
01FFFFC0
03FE7FE0
07FC3FF0
0FF81FF8
1FF00FFC
3FE007FE
7FC003FF
FF8001FF
7F0000FE
3E00007C
1C000038
08000010
ENDCHAR
STARTCHAR Oslash
ENCODING 216
SWIDTH 722 0
DWIDTH 46 0
BBX 42 58 2 -7
BITMAP
00000003C000
00000007F000
00000007F000
0000000FF000
0000000FF000
0000001FE000
0000FFDFE000
0007FFFFE000
001FFFFFC000
007FFFFFC000
00FFFFFFC000
01FFFFFFE000
03FFFFFFF000
07FFF1FFF800
0FFF01FFFC00
0FFE01FFFC00
1FFC03FFFE00
1FF803FFFE00
3FF007FBFF00
3FF007F9FF00
7FE00FF1FF80
7FE00FF1FF80
7FC01FF0FF80
7FC01FE0FF80
7FC01FE0FFC0
FFC03FC07FC0
FF803FC07FC0
FF807F807FC0
FF807F807FC0
FF80FF007FC0
FF80FF007FC0
FFC1FE007FC0
FFC1FE007FC0
7FC3FE00FFC0
7FC3FC00FF80
7FC3FC00FF80
7FE7F801FF80
7FE7F801FF80
3FFFF001FF00
3FFFF003FF00
1FFFE007FE00
1FFFE00FFE00
0FFFC01FFC00
0FFFC03FFC00
07FFE1FFF800
03FFFFFFF000
01FFFFFFE000
00FFFFFFC000
00FFFFFF8000
01FFFFFE0000
01FFFFF80000
03FC7FC00000
03FC00000000
07F800000000
07F800000000
07F000000000
03F000000000
01E000000000
ENDCHAR
STARTCHAR Ugrave
ENCODING 217
SWIDTH 611 0
DWIDTH 39 0
BBX 33 55 3 -1
BITMAP
00F8000000
00FF000000
00FFE00000
00FFFC0000
00FFFF0000
00FFFF8000
000FFF8000
00007F8000
0000070000
0000000000
0F00007800
1F8000FC00
1FC001FC00
3FC001FE00
3FC001FE00
3FC001FE00
3FC001FE00
3FC001FE00
3FC001FE00
3FC001FE00
3FC001FE00
3FC001FE00
3F8000FE00
7F8000FF00
7F8000FF00
7F8000FF00
7F8000FF00
7F8000FF00
7F8000FF00
7F8000FF00
7F8000FF00
7F00007F00
7F00007F00
7F00007F80
FF00007F80
FF00007F80
FF00007F80
FF00007F80
FF00007F80
FF00007F80
FF00007F80
FF00007F80
FF8000FF00
7F8000FF00
7FC001FF00
7FE003FF00
3FF007FE00
3FFC3FFE00
1FFFFFFC00
0FFFFFF800
07FFFFF000
03FFFFE000
01FFFFC000
007FFF0000
000FF80000
ENDCHAR
STARTCHAR Uacute
ENCODING 218
SWIDTH 611 0
DWIDTH 39 0
BBX 33 55 3 -1
BITMAP
00000F8000
00007F8000
0003FFC000
001FFFC000
007FFFC000
00FFFF8000
00FFF80000
00FF000000
0070000000
0000000000
0F00007800
1F8000FC00
1FC001FC00
3FC001FE00
3FC001FE00
3FC001FE00
3FC001FE00
3FC001FE00
3FC001FE00
3FC001FE00
3FC001FE00
3FC001FE00
3F8000FE00
7F8000FF00
7F8000FF00
7F8000FF00
7F8000FF00
7F8000FF00
7F8000FF00
7F8000FF00
7F8000FF00
7F00007F00
7F00007F00
7F00007F80
FF00007F80
FF00007F80
FF00007F80
FF00007F80
FF00007F80
FF00007F80
FF00007F80
FF00007F80
FF8000FF00
7F8000FF00
7FC001FF00
7FE003FF00
3FF007FE00
3FFC3FFE00
1FFFFFFC00
0FFFFFF800
07FFFFF000
03FFFFE000
01FFFFC000
007FFF0000
000FF80000
ENDCHAR
STARTCHAR Ucircumflex
ENCODING 219
SWIDTH 611 0
DWIDTH 39 0
BBX 33 56 3 -1
BITMAP
0003E00000
0007F00000
000FF80000
001FFC0000
003F7E0000
007F3F0000
007E3F8000
00FC1F8000
01F80FC000
01F007C000
0000000000
0F00007800
1F8000FC00
1FC001FC00
3FC001FE00
3FC001FE00
3FC001FE00
3FC001FE00
3FC001FE00
3FC001FE00
3FC001FE00
3FC001FE00
3FC001FE00
3F8000FE00
7F8000FF00
7F8000FF00
7F8000FF00
7F8000FF00
7F8000FF00
7F8000FF00
7F8000FF00
7F8000FF00
7F00007F00
7F00007F00
7F00007F80
FF00007F80
FF00007F80
FF00007F80
FF00007F80
FF00007F80
FF00007F80
FF00007F80
FF00007F80
FF8000FF00
7F8000FF00
7FC001FF00
7FE003FF00
3FF007FE00
3FFC3FFE00
1FFFFFFC00
0FFFFFF800
07FFFFF000
03FFFFE000
01FFFFC000
007FFF0000
000FF80000
ENDCHAR
STARTCHAR Udieresis
ENCODING 220
SWIDTH 611 0
DWIDTH 39 0
BBX 33 55 3 -1
BITMAP
01E003C000
03F807E000
03F80FE000
07F80FF000
07F80FF000
03F80FE000
03F007E000
00E003C000
0000000000
0000000000
0F00007800
1F8000FC00
1FC001FC00
3FC001FE00
3FC001FE00
3FC001FE00
3FC001FE00
3FC001FE00
3FC001FE00
3FC001FE00
3FC001FE00
3FC001FE00
3F8000FE00
7F8000FF00
7F8000FF00
7F8000FF00
7F8000FF00
7F8000FF00
7F8000FF00
7F8000FF00
7F8000FF00
7F00007F00
7F00007F00
7F00007F80
FF00007F80
FF00007F80
FF00007F80
FF00007F80
FF00007F80
FF00007F80
FF00007F80
FF00007F80
FF8000FF00
7F8000FF00
7FC001FF00
7FE003FF00
3FF007FE00
3FFC3FFE00
1FFFFFFC00
0FFFFFF800
07FFFFF000
03FFFFE000
01FFFFC000
007FFF0000
000FF80000
ENDCHAR
STARTCHAR Yacute
ENCODING 221
SWIDTH 556 0
DWIDTH 36 0
BBX 33 54 1 0
BITMAP
000007C000
00003FC000
0001FFC000
000FFFE000
003FFFE000
007FFFC000
007FFC0000
007F800000
0038000000
0000000000
3C00000F00
7E00003F80
FF00003F80
FF00007F80
FF80007F80
FF80007F80
FF8000FF80
7FC000FF80
7FC001FF00
3FE001FF00
3FE003FF00
1FF003FE00
1FF007FC00
0FF80FFC00
0FFC0FF800
07FE1FF800
03FF3FF000
01FFFFE000
01FFFFC000
00FFFF8000
007FFF0000
003FFE0000
001FFC0000
000FF80000
000FF80000
000FF80000
000FF80000
000FF80000
000FF80000
000FF80000
000FF80000
000FF80000
000FF80000
000FF80000
000FF80000
000FF80000
000FF80000
000FF80000
000FF80000
000FF80000
0007F80000
0007F80000
0007F00000
0001E00000
ENDCHAR
STARTCHAR Thorn
ENCODING 222
SWIDTH 556 0
DWIDTH 36 0
BBX 32 44 4 0
BITMAP
3E000000
7F000000
7F000000
FF000000
FF000000
FF000000
FF000000
FF000000
FFFFFF80
FFFFFFF0
FFFFFFF8
FFFFFFFC
FFFFFFFE
FFFFFFFE
FFFFFFFE
FF0003FF
FF0001FF
FF0000FF
FF0001FF
FF0001FE
FF0003FE
FF0007FE
FF001FFC
FF007FFC
FF01FFF8
FF0FFFF0
FFFFFFE0
FFFFFF80
FFFFFE00
FFFFF800
FFFFE000
FFFF0000
FFF80000
FF800000
FF000000
FF000000
FF000000
FF000000
FF000000
FF000000
FF000000
7F000000
7F000000
3E000000
ENDCHAR
STARTCHAR germandbls
ENCODING 223
SWIDTH 556 0
DWIDTH 36 0
BBX 35 46 -1 0
BITMAP
001FFC0000
007FFF8000
00FFFFE000
01FFFFF000
03FFFFF000
03FFFFF800
03FFFFF800
07FC07F800
07F803F800
07F003F800
07F003F800
07F007F800
3FF01FF000
7FF03FE000
FFF07FE000
FFF1FF8000
FFF1FF0000
7FF3FE0000
3FF3FC0000
07F7F80000
07F7FC0000
07F7FF0000
07F3FFE000
07F3FFF800
07F1FFFC00
07F0FFFF00
07F03FFF80
07F00FFF80
07F001FFC0
07F0007FC0
07F0003FE0
07F0001FE0
07F0001FE0
07F0001FE0
07F0001FE0
07F0001FE0
07F0003FE0
07F0003FC0
07F001FFC0
07FFFFFFC0
07FFFFFF80
07FFFFFF00
07FFFFFF00
07FFFFFC00
03FFFFF800
01FFFFC000
ENDCHAR
STARTCHAR agrave
ENCODING 224
SWIDTH 556 0
DWIDTH 36 0
BBX 28 46 2 -1
BITMAP
01F80000
01FF0000
03FFC000
03FFF800
03FFFE00
00FFFF00
000FFF00
0000FF00
00000600
00000000
00000000
00000000
0FFFF800
1FFFFF00
3FFFFF80
3FFFFFC0
3FFFFFE0
1FFFFFE0
0FFFFFE0
00001FF0
00000FF0
00000FF0
00000FF0
0003FFF0
007FFFF0
03FFFFF0
07FFFFF0
1FFFFFF0
3FFFFFF0
3FFE07F0
7FF007F0
7FC007F0
FF8007F0
FF0007F0
FF0007F0
FF000FF0
FF000FF0
FF001FF0
FF803FF0
7FE0FFF0
7FFFFFF0
3FFFFFF0
3FFFFFF0
1FFFF7F0
07FFC3E0
01FF03C0
ENDCHAR
STARTCHAR aacute
ENCODING 225
SWIDTH 556 0
DWIDTH 36 0
BBX 28 47 2 -1
BITMAP
00000400
00003F00
0001FF00
000FFF00
003FFF00
01FFFF00
01FFFE00
01FFE000
01FC0000
00E00000
00000000
00000000
00000000
0FFFF800
1FFFFF00
3FFFFF80
3FFFFFC0
3FFFFFE0
1FFFFFE0
0FFFFFE0
00001FF0
00000FF0
00000FF0
00000FF0
0003FFF0
007FFFF0
03FFFFF0
07FFFFF0
1FFFFFF0
3FFFFFF0
3FFE07F0
7FF007F0
7FC007F0
FF8007F0
FF0007F0
FF0007F0
FF000FF0
FF000FF0
FF001FF0
FF803FF0
7FE0FFF0
7FFFFFF0
3FFFFFF0
3FFFFFF0
1FFFF7F0
07FFC3E0
01FF03C0
ENDCHAR
STARTCHAR acircumflex
ENCODING 226
SWIDTH 556 0
DWIDTH 36 0
BBX 28 47 2 -1
BITMAP
0007C000
000FE000
001FF000
003FF800
007EFC00
00FCFE00
01FC7E00
01F83F00
03F01F80
03E00F80
00000000
00000000
00000000
0FFFF800
1FFFFF00
3FFFFF80
3FFFFFC0
3FFFFFE0
1FFFFFE0
0FFFFFE0
00001FF0
00000FF0
00000FF0
00000FF0
0003FFF0
007FFFF0
03FFFFF0
07FFFFF0
1FFFFFF0
3FFFFFF0
3FFE07F0
7FF007F0
7FC007F0
FF8007F0
FF0007F0
FF0007F0
FF000FF0
FF000FF0
FF001FF0
FF803FF0
7FE0FFF0
7FFFFFF0
3FFFFFF0
3FFFFFF0
1FFFF7F0
07FFC3E0
01FF03C0
ENDCHAR
STARTCHAR atilde
ENCODING 227
SWIDTH 556 0
DWIDTH 36 0
BBX 28 47 2 -1
BITMAP
000000C0
007E01C0
00FFC3C0
01FFFFC0
03FFFF80
07FFFF00
0787FE00
06007C00
04000000
00000000
00000000
00000000
00000000
0FFFF800
1FFFFF00
3FFFFF80
3FFFFFC0
3FFFFFE0
1FFFFFE0
0FFFFFE0
00001FF0
00000FF0
00000FF0
00000FF0
0003FFF0
007FFFF0
03FFFFF0
07FFFFF0
1FFFFFF0
3FFFFFF0
3FFE07F0
7FF007F0
7FC007F0
FF8007F0
FF0007F0
FF0007F0
FF000FF0
FF000FF0
FF001FF0
FF803FF0
7FE0FFF0
7FFFFFF0
3FFFFFF0
3FFFFFF0
1FFFF7F0
07FFC3E0
01FF03C0
ENDCHAR
STARTCHAR adieresis
ENCODING 228
SWIDTH 556 0
DWIDTH 36 0
BBX 28 46 2 -1
BITMAP
03C00700
07E01FC0
07F01FC0
0FF01FE0
0FF01FC0
07F01FC0
07E01FC0
03C00700
00000000
00000000
00000000
00000000
0FFFF800
1FFFFF00
3FFFFF80
3FFFFFC0
3FFFFFE0
1FFFFFE0
0FFFFFE0
00001FF0
00000FF0
00000FF0
00000FF0
0003FFF0
007FFFF0
03FFFFF0
07FFFFF0
1FFFFFF0
3FFFFFF0
3FFE07F0
7FF007F0
7FC007F0
FF8007F0
FF0007F0
FF0007F0
FF000FF0
FF000FF0
FF001FF0
FF803FF0
7FE0FFF0
7FFFFFF0
3FFFFFF0
3FFFFFF0
1FFFF7F0
07FFC3E0
01FF03C0
ENDCHAR
STARTCHAR aring
ENCODING 229
SWIDTH 556 0
DWIDTH 36 0
BBX 28 51 2 -1
BITMAP
0007C000
001FF000
003FF800
007FF800
00783C00
00703C00
00701C00
00701C00
00783C00
007C7C00
003FF800
003FF000
000FE000
00010000
00000000
00000000
00000000
0FFFF800
1FFFFF00
3FFFFF80
3FFFFFC0
3FFFFFE0
1FFFFFE0
0FFFFFE0
00001FF0
00000FF0
00000FF0
00000FF0
0003FFF0
007FFFF0
03FFFFF0
07FFFFF0
1FFFFFF0
3FFFFFF0
3FFE07F0
7FF007F0
7FC007F0
FF8007F0
FF0007F0
FF0007F0
FF000FF0
FF000FF0
FF001FF0
FF803FF0
7FE0FFF0
7FFFFFF0
3FFFFFF0
3FFFFFF0
1FFFF7F0
07FFC3E0
01FF03C0
ENDCHAR
STARTCHAR ae
ENCODING 230
SWIDTH 778 0
DWIDTH 50 0
BBX 48 35 1 -1
BITMAP
00000003FC00
1FFFF01FFF00
3FFFFE3FFFC0
3FFFFFFFFFE0
3FFFFFFFFFF0
3FFFFFFFFFF8
3FFFFFFF0FFC
1FFFFFFC03FC
00003FF801FE
00003FF801FE
00001FF000FE
00001FF000FF
0003FFE000FF
00FFFFFFFFFF
03FFFFFFFFFF
0FFFFFFFFFFF
1FFFFFFFFFFF
3FFFFFFFFFFE
7FFC1FFFFFFC
7FE01FE00000
FFC01FE00000
FF001FE00000
FF001FF00000
FE001FF00000
FE001FF80000
FF001FFC0000
FF003FFF0000
FF807FFFFFFC
FFFFFFFFFFFF
7FFFFFFFFFFF
7FFFFFFFFFFF
3FFFFF7FFFFF
1FFFFE1FFFFF
0FFFFC03FFFE
01FFE0000000
ENDCHAR
STARTCHAR ccedilla
ENCODING 231
SWIDTH 500 0
DWIDTH 32 0
BBX 30 48 2 -14
BITMAP
003FFFE0
01FFFFF0
03FFFFF8
07FFFFF8
0FFFFFF8
1FFFFFF8
3FFFFFF0
3FFC0000
7FF00000
7FC00000
7FC00000
FF800000
FF800000
FF800000
FF000000
FF000000
FF800000
FF800000
FF800000
7F800000
7FC00000
7FC00000
7FE00000
3FF00000
3FF80000
1FFC0000
0FFF0000
0FFFF000
07FFFFF8
03FFFFFC
01FFFFFC
007FFFFC
001FFFFC
0007FFF8
0001DFE0
00018000
00038000
00038000
0003FC00
0003FF00
0007FF80
00001F80
00000F80
00600F80
00FC3F80
007FFF00
003FFE00
0007F800
ENDCHAR
STARTCHAR egrave
ENCODING 232
SWIDTH 556 0
DWIDTH 36 0
BBX 31 46 2 0
BITMAP
00F00000
00FE0000
01FFC000
01FFF800
01FFFF00
00FFFF80
001FFF80
0001FF80
00000F00
00000000
00000000
00000000
000FF800
007FFF00
01FFFF80
03FFFFE0
07FFFFF0
0FFFFFF0
1FFF7FF8
1FF80FFC
3FF007FC
3FE003FC
7FC003FE
7FC001FE
7F8001FE
7FFFFFFE
FFFFFFFE
FFFFFFFE
FFFFFFFE
FFFFFFFE
FFFFFFFC
FF800000
FF800000
FF800000
7F800000
7FC00000
7FE00000
3FF00000
3FFC0000
1FFFFFF8
0FFFFFFC
07FFFFFE
03FFFFFE
01FFFFFE
007FFFFC
0007FFF8
ENDCHAR
STARTCHAR eacute
ENCODING 233
SWIDTH 556 0
DWIDTH 36 0
BBX 31 46 2 0
BITMAP
00000F00
00007F80
0003FF80
001FFF80
007FFF80
00FFFF80
00FFF800
00FF8000
00F80000
00000000
00000000
00000000
000FF800
007FFF00
01FFFF80
03FFFFE0
07FFFFF0
0FFFFFF0
1FFF7FF8
1FF80FFC
3FF007FC
3FE003FC
7FC003FE
7FC001FE
7F8001FE
7FFFFFFE
FFFFFFFE
FFFFFFFE
FFFFFFFE
FFFFFFFE
FFFFFFFC
FF800000
FF800000
FF800000
7F800000
7FC00000
7FE00000
3FF00000
3FFC0000
1FFFFFF8
0FFFFFFC
07FFFFFE
03FFFFFE
01FFFFFE
007FFFFC
0007FFF8
ENDCHAR
STARTCHAR ecircumflex
ENCODING 234
SWIDTH 556 0
DWIDTH 36 0
BBX 31 46 2 0
BITMAP
0003E000
000FF000
000FF800
001FFC00
003FFE00
007E7E00
00FC3F00
01FC1F80
03F80FC0
01E007C0
00000000
00000000
000FF800
007FFF00
01FFFF80
03FFFFE0
07FFFFF0
0FFFFFF0
1FFF7FF8
1FF80FFC
3FF007FC
3FE003FC
7FC003FE
7FC001FE
7F8001FE
7FFFFFFE
FFFFFFFE
FFFFFFFE
FFFFFFFE
FFFFFFFE
FFFFFFFC
FF800000
FF800000
FF800000
7F800000
7FC00000
7FE00000
3FF00000
3FFC0000
1FFFFFF8
0FFFFFFC
07FFFFFE
03FFFFFE
01FFFFFE
007FFFFC
0007FFF8
ENDCHAR
STARTCHAR edieresis
ENCODING 235
SWIDTH 556 0
DWIDTH 36 0
BBX 31 46 2 0
BITMAP
01E00380
03F00FC0
07F80FE0
07F81FE0
07F81FE0
07F80FE0
03F00FC0
01E00780
00000000
00000000
00000000
00000000
000FF800
007FFF00
01FFFF80
03FFFFE0
07FFFFF0
0FFFFFF0
1FFF7FF8
1FF80FFC
3FF007FC
3FE003FC
7FC003FE
7FC001FE
7F8001FE
7FFFFFFE
FFFFFFFE
FFFFFFFE
FFFFFFFE
FFFFFFFE
FFFFFFFC
FF800000
FF800000
FF800000
7F800000
7FC00000
7FE00000
3FF00000
3FFC0000
1FFFFFF8
0FFFFFFC
07FFFFFE
03FFFFFE
01FFFFFE
007FFFFC
0007FFF8
ENDCHAR
STARTCHAR igrave
ENCODING 236
SWIDTH 278 0
DWIDTH 18 0
BBX 17 46 0 0
BITMAP
780000
FF0000
FFE000
FFFC00
FFFF00
FFFF80
0FFF80
00FF80
000F80
000000
000000
000000
01E000
03F000
07F000
07F800
07F800
07F800
07F800
07F800
07F800
07F800
07F800
07F800
07F800
07F800
07F800
07F800
07F800
07F800
07F800
07F800
07F800
07F800
07F800
07F800
07F800
07F800
07F800
07F800
07F800
07F800
07F800
07F000
03F000
01E000
ENDCHAR
STARTCHAR iacute
ENCODING 237
SWIDTH 278 0
DWIDTH 18 0
BBX 18 46 0 0
BITMAP
000780
003FC0
01FFC0
0FFFC0
7FFFC0
FFFF80
FFFC00
FFC000
7C0000
000000
000000
000000
01E000
03F000
07F000
07F800
07F800
07F800
07F800
07F800
07F800
07F800
07F800
07F800
07F800
07F800
07F800
07F800
07F800
07F800
07F800
07F800
07F800
07F800
07F800
07F800
07F800
07F800
07F800
07F800
07F800
07F800
07F800
07F000
03F000
01E000
ENDCHAR
STARTCHAR icircumflex
ENCODING 238
SWIDTH 278 0
DWIDTH 18 0
BBX 20 46 -1 0
BITMAP
01F000
03FC00
07FE00
0FFE00
0FFF00
1F9F80
3F0FC0
7E0FE0
FC07F0
F801F0
000000
000000
00F000
01F800
03F800
03FC00
03FC00
03FC00
03FC00
03FC00
03FC00
03FC00
03FC00
03FC00
03FC00
03FC00
03FC00
03FC00
03FC00
03FC00
03FC00
03FC00
03FC00
03FC00
03FC00
03FC00
03FC00
03FC00
03FC00
03FC00
03FC00
03FC00
03FC00
03F800
01F800
00F000
ENDCHAR
STARTCHAR idieresis
ENCODING 239
SWIDTH 278 0
DWIDTH 18 0
BBX 22 46 -2 0
BITMAP
3800F0
7E01F8
FE03FC
FF03FC
FF03FC
FE03FC
7E01F8
3C00F0
000000
000000
000000
000000
007800
00FC00
01FC00
01FE00
01FE00
01FE00
01FE00
01FE00
01FE00
01FE00
01FE00
01FE00
01FE00
01FE00
01FE00
01FE00
01FE00
01FE00
01FE00
01FE00
01FE00
01FE00
01FE00
01FE00
01FE00
01FE00
01FE00
01FE00
01FE00
01FE00
01FE00
01FC00
00FC00
007800
ENDCHAR
STARTCHAR eth
ENCODING 240
SWIDTH 556 0
DWIDTH 36 0
BBX 30 48 3 -1
BITMAP
00000F00
07C01F00
0FF87F80
1FFFFF80
1FFFFF00
1FFFFE00
0FFFF800
01FFF800
007FFC00
00FFFE00
01FFFF00
03FDFF80
03F8FF80
03F07FC0
01C03FC0
00003FE0
00001FE0
007F8FF0
01FFEFF0
07FFFFF0
0FFFFFF8
1FFFFFF8
3FFFFFF8
3FFFFFF8
7FF03FFC
7FC01FFC
FF800FFC
FF8007FC
FF0007FC
FF0007FC
FF0003FC
FF0003FC
FF0003FC
FF0003FC
FF0003FC
FF0007F8
FF0007F8
FF8007F8
7F800FF0
7FC01FF0
3FF03FF0
3FFFFFE0
1FFFFFC0
0FFFFFC0
07FFFF80
03FFFE00
00FFFC00
001FE000
ENDCHAR
STARTCHAR ntilde
ENCODING 241
SWIDTH 556 0
DWIDTH 36 0
BBX 28 46 4 0
BITMAP
00C00380
03FC0380
07FF0780
07FFFF00
0FFFFF00
0E3FFE00
1C07FC00
1800F000
00000000
00000000
00000000
00000000
3C0FF000
7E3FFC00
FE7FFF00
FFFFFF80
FFFFFF80
FFFFFFC0
FFFFFFE0
FFF07FE0
FFC03FE0
FF801FE0
FF800FF0
FF000FF0
FF000FF0
FF000FF0
FF000FF0
FF000FF0
FF000FF0
FF000FF0
FF000FF0
FF000FF0
FF000FF0
FF000FF0
FF000FF0
FF000FF0
FF000FF0
FF000FF0
FF000FF0
FF000FF0
FF000FF0
FF000FF0
FF000FF0
FE000FE0
7E0007E0
3C0003C0
ENDCHAR
STARTCHAR ograve
ENCODING 242
SWIDTH 556 0
DWIDTH 36 0
BBX 32 47 2 -1
BITMAP
00F00000
01FE0000
01FFC000
01FFF800
01FFFE00
01FFFF00
001FFF00
0001FF00
00001F00
00000000
00000000
00000000
000FF000
007FFE00
01FFFF80
03FFFFC0
07FFFFE0
0FFFFFF0
1FFFFFF8
3FF81FF8
3FE00FFC
7FC007FC
7FC003FC
7F8003FE
7F8001FE
FF8001FE
FF0001FE
FF0001FE
FF0001FF
FF0001FF
FF0001FE
FF0001FE
FF0001FE
FF8001FE
7F8001FE
7F8003FE
7FC003FC
7FC007FC
3FE00FFC
3FF81FF8
1FFFFFF8
0FFFFFF0
07FFFFE0
03FFFFC0
01FFFF80
007FFE00
000FF000
ENDCHAR
STARTCHAR oacute
ENCODING 243
SWIDTH 556 0
DWIDTH 36 0
BBX 32 47 2 -1
BITMAP
00001F00
00007F00
0003FF80
001FFF80
00FFFF80
01FFFF00
01FFF800
01FF0000
00F00000
00000000
00000000
00000000
000FF000
007FFE00
01FFFF80
03FFFFC0
07FFFFE0
0FFFFFF0
1FFFFFF8
3FF81FF8
3FE00FFC
7FC007FC
7FC003FC
7F8003FE
7F8001FE
FF8001FE
FF0001FE
FF0001FE
FF0001FF
FF0001FF
FF0001FE
FF0001FE
FF0001FE
FF8001FE
7F8001FE
7F8003FE
7FC003FC
7FC007FC
3FE00FFC
3FF81FF8
1FFFFFF8
0FFFFFF0
07FFFFE0
03FFFFC0
01FFFF80
007FFE00
000FF000
ENDCHAR
STARTCHAR ocircumflex
ENCODING 244
SWIDTH 556 0
DWIDTH 36 0
BBX 32 47 2 -1
BITMAP
0007C000
000FF000
001FF000
003FF800
007FFC00
007E7E00
00FC3F00
01F83F80
03F01F80
03E00780
00000000
00000000
000FF000
007FFE00
01FFFF80
03FFFFC0
07FFFFE0
0FFFFFF0
1FFFFFF8
3FF81FF8
3FE00FFC
7FC007FC
7FC003FC
7F8003FE
7F8001FE
FF8001FE
FF0001FE
FF0001FE
FF0001FF
FF0001FF
FF0001FE
FF0001FE
FF0001FE
FF8001FE
7F8001FE
7F8003FE
7FC003FC
7FC007FC
3FE00FFC
3FF81FF8
1FFFFFF8
0FFFFFF0
07FFFFE0
03FFFFC0
01FFFF80
007FFE00
000FF000
ENDCHAR
STARTCHAR otilde
ENCODING 245
SWIDTH 556 0
DWIDTH 36 0
BBX 32 47 2 -1
BITMAP
006000C0
00FE01E0
01FFC3C0
03FFFFC0
03FFFF80
078FFF80
0703FE00
06007C00
00000000
00000000
00000000
00000000
000FF000
007FFE00
01FFFF80
03FFFFC0
07FFFFE0
0FFFFFF0
1FFFFFF8
3FF81FF8
3FE00FFC
7FC007FC
7FC003FC
7F8003FE
7F8001FE
FF8001FE
FF0001FE
FF0001FE
FF0001FF
FF0001FF
FF0001FE
FF0001FE
FF0001FE
FF8001FE
7F8001FE
7F8003FE
7FC003FC
7FC007FC
3FE00FFC
3FF81FF8
1FFFFFF8
0FFFFFF0
07FFFFE0
03FFFFC0
01FFFF80
007FFE00
000FF000
ENDCHAR
STARTCHAR odieresis
ENCODING 246
SWIDTH 556 0
DWIDTH 36 0
BBX 32 47 2 -1
BITMAP
01C00780
03F00FC0
07F01FE0
07F81FE0
07F81FE0
07F01FE0
07F00FC0
01E00780
00000000
00000000
00000000
00000000
000FF000
007FFE00
01FFFF80
03FFFFC0
07FFFFE0
0FFFFFF0
1FFFFFF8
3FF81FF8
3FE00FFC
7FC007FC
7FC003FC
7F8003FE
7F8001FE
FF8001FE
FF0001FE
FF0001FE
FF0001FF
FF0001FF
FF0001FE
FF0001FE
FF0001FE
FF8001FE
7F8001FE
7F8003FE
7FC003FC
7FC007FC
3FE00FFC
3FF81FF8
1FFFFFF8
0FFFFFF0
07FFFFE0
03FFFFC0
01FFFF80
007FFE00
000FF000
ENDCHAR
STARTCHAR divide
ENCODING 247
SWIDTH 600 0
DWIDTH 38 0
BBX 32 37 3 -2
BITMAP
0003C000
000FF000
000FF800
001FF800
001FFC00
001FFC00
001FFC00
001FF800
000FF800
0007F000
0003C000
00000000
00000000
00000000
00000000
FFFFFFFF
FFFFFFFF
FFFFFFFF
FFFFFFFF
FFFFFFFF
FFFFFFFF
FFFFFFFF
00000000
00000000
00000000
00000000
0003C000
0007F000
000FF800
001FF800
001FFC00
001FFC00
001FFC00
001FF800
000FF800
000FF000
0003E000
ENDCHAR
STARTCHAR oslash
ENCODING 248
SWIDTH 556 0
DWIDTH 36 0
BBX 32 45 2 -6
BITMAP
00000060
000000F0
000001F8
000001F8
000003F0
000FF7F0
007FFFE0
01FFFFE0
03FFFFC0
07FFFFE0
0FFFFFF0
1FFFFFF8
3FF83FF8
3FE03FFC
7FC07FFC
7FC07FFC
7F80FBFE
7F80F9FE
FF81F1FE
FF01F1FE
FF03E1FE
FF03E1FF
FF07C1FF
FF07C1FE
FF0F81FE
FF0F81FE
FF9F01FE
7F9F01FE
7FBE03FE
7FFE03FC
7FFC07FC
3FFC0FFC
3FF81FF8
1FFFFFF8
0FFFFFF0
0FFFFFE0
07FFFFC0
07FFFF80
0FFFFE00
0FDFF000
1F800000
1F800000
3F000000
3F000000
1E000000
ENDCHAR
STARTCHAR ugrave
ENCODING 249
SWIDTH 556 0
DWIDTH 36 0
BBX 28 47 4 -1
BITMAP
03C00000
07F80000
07FF0000
07FFE000
07FFF800
07FFFC00
007FFC00
0007FC00
00007C00
00000000
00000000
00000000
3C0003C0
7E0007E0
FE000FE0
FF000FF0
FF000FF0
FF000FF0
FF000FF0
FF000FF0
FF000FF0
FF000FF0
FF000FF0
FF000FF0
FF000FF0
FF000FF0
FF000FF0
FF000FF0
FF000FF0
FF000FF0
FF000FF0
FF000FF0
FF000FF0
FF000FF0
FF001FF0
FF001FF0
FF001FF0
FF003FF0
FF807FF0
7FC0FFF0
7FFFFFF0
7FFFFFF0
3FFFFFF0
1FFFFFF0
0FFFEFE0
07FF87E0
00FE03C0
ENDCHAR
STARTCHAR uacute
ENCODING 250
SWIDTH 556 0
DWIDTH 36 0
BBX 28 47 4 -1
BITMAP
00007C00
0001FC00
000FFE00
007FFE00
03FFFE00
07FFFC00
07FFE000
07FC0000
03C00000
00000000
00000000
00000000
3C0003C0
7E0007E0
FE000FE0
FF000FF0
FF000FF0
FF000FF0
FF000FF0
FF000FF0
FF000FF0
FF000FF0
FF000FF0
FF000FF0
FF000FF0
FF000FF0
FF000FF0
FF000FF0
FF000FF0
FF000FF0
FF000FF0
FF000FF0
FF000FF0
FF000FF0
FF001FF0
FF001FF0
FF001FF0
FF003FF0
FF807FF0
7FC0FFF0
7FFFFFF0
7FFFFFF0
3FFFFFF0
1FFFFFF0
0FFFEFE0
07FF87E0
00FE03C0
ENDCHAR
STARTCHAR ucircumflex
ENCODING 251
SWIDTH 556 0
DWIDTH 36 0
BBX 28 47 4 -1
BITMAP
001F0000
003FC000
007FC000
00FFE000
01FFF000
01F9F800
03F0FC00
07E0FE00
0FC07E00
0F801E00
00000000
00000000
3C0003C0
7E0007E0
FE000FE0
FF000FF0
FF000FF0
FF000FF0
FF000FF0
FF000FF0
FF000FF0
FF000FF0
FF000FF0
FF000FF0
FF000FF0
FF000FF0
FF000FF0
FF000FF0
FF000FF0
FF000FF0
FF000FF0
FF000FF0
FF000FF0
FF000FF0
FF001FF0
FF001FF0
FF001FF0
FF003FF0
FF807FF0
7FC0FFF0
7FFFFFF0
7FFFFFF0
3FFFFFF0
1FFFFFF0
0FFFEFE0
07FF87E0
00FE03C0
ENDCHAR
STARTCHAR udieresis
ENCODING 252
SWIDTH 556 0
DWIDTH 36 0
BBX 28 47 4 -1
BITMAP
07001E00
0FC03F00
1FC07F80
1FE07F80
1FE07F80
1FC07F80
1FC03F00
07801E00
00000000
00000000
00000000
00000000
3C0003C0
7E0007E0
FE000FE0
FF000FF0
FF000FF0
FF000FF0
FF000FF0
FF000FF0
FF000FF0
FF000FF0
FF000FF0
FF000FF0
FF000FF0
FF000FF0
FF000FF0
FF000FF0
FF000FF0
FF000FF0
FF000FF0
FF000FF0
FF000FF0
FF000FF0
FF001FF0
FF001FF0
FF001FF0
FF003FF0
FF807FF0
7FC0FFF0
7FFFFFF0
7FFFFFF0
3FFFFFF0
1FFFFFF0
0FFFEFE0
07FF87E0
00FE03C0
ENDCHAR
STARTCHAR yacute
ENCODING 253
SWIDTH 500 0
DWIDTH 32 0
BBX 29 60 2 -14
BITMAP
00003C00
0001FE00
000FFE00
007FFE00
01FFFE00
07FFFC00
07FFE000
03FE0000
03E00000
00000000
00000000
00000000
3C0001E0
7E0003F0
7E0003F8
FF0003F8
FF0007F8
FF0007F8
FF0007F8
FF0007F8
7F0007F0
7F000FF0
7F000FF0
7F800FF0
7F800FE0
7F800FE0
3F801FE0
3FC01FC0
3FC01FC0
3FC03FC0
1FE03F80
1FE03F80
0FE07F80
0FF07F00
0FF0FF00
07F8FE00
07F8FE00
03FDFE00
03FFFC00
01FFFC00
00FFF800
00FFF800
007FF000
007FF000
003FE000
001FE000
003FC000
007FC000
007F8000
00FF8000
01FF0000
01FE0000
03FE0000
07FC0000
07F80000
0FF80000
0FF00000
0FE00000
07E00000
03C00000
ENDCHAR
STARTCHAR thorn
ENCODING 254
SWIDTH 556 0
DWIDTH 36 0
BBX 30 60 4 -14
BITMAP
3C000000
7E000000
FE000000
FF000000
FF000000
FF000000
FF000000
FF000000
FF000000
FF000000
FF000000
FF000000
FFF00000
FFFF8000
FFFFE000
FFFFF800
FFFFFE00
FFFFFF00
FFFFFF80
FF0FFFC0
FF01FFE0
FF007FE0
FF003FF0
FF001FF0
FF000FF8
FF000FF8
FF0007F8
FF0007F8
FF0007FC
FF0003FC
FF0003FC
FF0003FC
FF0003FC
FF0007FC
FF0007F8
FF000FF8
FF000FF8
FF003FF8
FF00FFF0
FFFFFFE0
FFFFFFE0
FFFFFFC0
FFFFFF80
FFFFFE00
FFFFFC00
FFFFC000
FF000000
FF000000
FF000000
FF000000
FF000000
FF000000
FF000000
FF000000
FF000000
FF000000
FF000000
FE000000
7E000000
3C000000
ENDCHAR
STARTCHAR ydieresis
ENCODING 255
SWIDTH 500 0
DWIDTH 32 0
BBX 29 60 2 -14
BITMAP
07801E00
0FC03F00
1FC07F80
1FE07F80
1FE07F80
1FE07F80
0FC03F00
07801E00
00000000
00000000
00000000
00000000
3C0001E0
7E0003F0
7E0003F8
FF0003F8
FF0007F8
FF0007F8
FF0007F8
FF0007F8
7F0007F0
7F000FF0
7F000FF0
7F800FF0
7F800FE0
7F800FE0
3F801FE0
3FC01FC0
3FC01FC0
3FC03FC0
1FE03F80
1FE03F80
0FE07F80
0FF07F00
0FF0FF00
07F8FE00
07F8FE00
03FDFE00
03FFFC00
01FFFC00
00FFF800
00FFF800
007FF000
007FF000
003FE000
001FE000
003FC000
007FC000
007F8000
00FF8000
01FF0000
01FE0000
03FE0000
07FC0000
07F80000
0FF80000
0FF00000
0FE00000
07E00000
03C00000
ENDCHAR
STARTCHAR .notdef
ENCODING -1
SWIDTH 500 0
DWIDTH 32 0
BBX 32 45 0 0
BITMAP
FFFFFFFF
FFFFFFFF
FFFFFFFF
F800001F
FC00003F
FE00007F
FE00007F
EF0000F7
E78001E7
E78001E7
E3C003C7
E1E00787
E1E00787
E0F00F07
E0781E07
E0781E07
E03C3C07
E01E7807
E01E7807
E00FF007
E007E007
E007E007
E003C007
E007E007
E007E007
E00FF007
E01E7807
E01E7807
E03C3C07
E0781E07
E0781E07
E0F00F07
E1E00787
E1E00787
E3C003C7
E78001E7
E78001E7
EF0000F7
FE00007F
FE00007F
FC00003F
F800001F
FFFFFFFF
FFFFFFFF
FFFFFFFF
ENDCHAR
STARTCHAR quoteright
ENCODING -1
SWIDTH 222 0
DWIDTH 14 0
BBX 12 18 1 27
BITMAP
03C0
07F0
07F0
0FF0
0FF0
1FF0
1FE0
1FE0
3FC0
3FC0
3F80
7F80
7F80
7F00
FF00
FE00
7C00
3800
ENDCHAR
STARTCHAR quoteleft
ENCODING -1
SWIDTH 222 0
DWIDTH 14 0
BBX 12 18 1 27
BITMAP
3C00
7E00
FF00
FF00
FF00
FF80
7F80
7FC0
3FC0
3FC0
1FE0
1FE0
0FE0
0FF0
07F0
07F0
03E0
01C0
ENDCHAR
STARTCHAR fraction
ENCODING -1
SWIDTH 167 0
DWIDTH 11 0
BBX 33 46 -11 -1
BITMAP
0000001E00
0000003F00
0000003F80
0000007F80
000000FF80
000000FF00
000001FF00
000003FE00
000003FC00
000007FC00
00000FF800
00000FF000
00001FF000
00003FE000
00003FC000
00007FC000
0000FF8000
0000FF0000
0001FF0000
0003FE0000
0003FC0000
0007FC0000
000FF80000
000FF00000
001FF00000
003FE00000
003FC00000
007FC00000
00FF800000
00FF000000
01FF000000
03FE000000
03FC000000
07FC000000
0FF8000000
0FF0000000
1FF0000000
1FE0000000
3FC0000000
7FC0000000
FF80000000
FF00000000
FF00000000
FE00000000
7C00000000
3800000000
ENDCHAR
STARTCHAR florin
ENCODING -1
SWIDTH 611 0
DWIDTH 39 0
BBX 39 59 0 -14
BITMAP
0000001FF0
0000007FFC
000001FFFC
000003FFFE
000007FFFE
00000FFFFE
00000FFFFC
00001FFFF8
00001FFC00
00001FF000
00003FE000
00003FE000
00003FE000
00003FC000
00003FC000
00007FC000
00007FC000
003FFFFF00
007FFFFF80
00FFFFFFC0
00FFFFFFC0
00FFFFFFC0
00FFFFFFC0
007FFFFF80
003FFFFF00
0001FF0000
0001FF0000
0001FF0000
0001FF0000
0001FE0000
0001FE0000
0001FE0000
0003FE0000
0003FE0000
0003FE0000
0003FE0000
0003FC0000
0003FC0000
0007FC0000
0007FC0000
0007FC0000
0007FC0000
0007F80000
0007F80000
000FF80000
000FF80000
000FF80000
000FF00000
001FF00000
003FF00000
00FFF00000
3FFFE00000
7FFFE00000
FFFFC00000
FFFF800000
FFFF800000
FFFE000000
7FFC000000
3FC0000000
ENDCHAR
STARTCHAR quotedblleft
ENCODING -1
SWIDTH 389 0
DWIDTH 25 0
BBX 24 18 0 27
BITMAP
3C03C0
7E07E0
7F0FF0
FF0FF0
7F8FF8
7F87F8
7FC7F8
3FC3FC
3FC3FC
1FE1FE
1FE1FE
0FE1FE
0FF0FF
07F0FF
07F07F
03F07F
03F03F
01E01C
ENDCHAR
STARTCHAR guilsinglleft
ENCODING -1
SWIDTH 333 0
DWIDTH 21 0
BBX 12 26 5 3
BITMAP
01E0
03F0
07F0
07F0
0FF0
0FF0
1FE0
1FE0
3FC0
7FC0
7F80
FF80
FF00
FF80
7F80
7FC0
3FC0
3FE0
1FE0
1FF0
0FF0
07F0
07F0
03F0
03F0
00C0
ENDCHAR
STARTCHAR guilsinglright
ENCODING -1
SWIDTH 333 0
DWIDTH 21 0
BBX 12 26 4 3
BITMAP
3800
FC00
FE00
FE00
FF00
FF80
7F80
7FC0
3FC0
1FE0
1FE0
0FF0
0FF0
0FF0
1FF0
1FE0
3FE0
3FC0
7F80
7F80
FF00
FF00
FE00
FE00
7C00
1000
ENDCHAR
STARTCHAR fi
ENCODING -1
SWIDTH 611 0
DWIDTH 39 0
BBX 35 46 -1 0
BITMAP
0003FFFE00
001FFFFF80
007FFFFFC0
00FFFFFFE0
00FFFFFFE0
01FFFFFFE0
01FFFFFFE0
01FF801FE0
01FE000FE0
01FE000FE0
01FE0007C0
01FE000000
01FE000000
3FFFFFFF80
7FFFFFFFC0
7FFFFFFFE0
FFFFFFFFE0
7FFFFFFFE0
7FFFFFFFE0
3FFFFFFFE0
01FC001FE0
01FC001FE0
01FC001FE0
01FC001FE0
01FC001FE0
01FC001FE0
01FC001FE0
01FC001FE0
01FC001FE0
01FC001FE0
01FC001FE0
01FC001FE0
01FC001FE0
01FC001FE0
01FC001FE0
01FC001FE0
01FC001FE0
01FC001FE0
01FC001FE0
01FC001FE0
01FC001FE0
01FC001FE0
01FC001FE0
01FC000FE0
01FC000FC0
00F0000780
ENDCHAR
STARTCHAR fl
ENCODING -1
SWIDTH 611 0
DWIDTH 39 0
BBX 35 46 -1 0
BITMAP
0003FFFC00
001FFFFF80
007FFFFFC0
00FFFFFFE0
00FFFFFFE0
01FFFFFFE0
01FFFFFFE0
01FF001FE0
01FE001FE0
01FC001FE0
01FC001FE0
01FC001FE0
01FC001FE0
3FFFFC1FE0
7FFFFE1FE0
7FFFFE1FE0
FFFFFE1FE0
7FFFFE1FE0
7FFFFE1FE0
3FFFFC1FE0
01FC001FE0
01FC001FE0
01FC001FE0
01FC001FE0
01FC001FE0
01FC001FE0
01FC001FE0
01FC001FE0
01FC001FE0
01FC001FE0
01FC001FE0
01FC001FE0
01FC001FE0
01FC001FE0
01FC001FE0
01FC001FE0
01FC001FE0
01FC001FE0
01FC001FE0
01FC001FE0
01FC001FE0
01FC001FE0
01FC001FE0
01FC000FE0
01FC000FC0
0078000780
ENDCHAR
STARTCHAR endash
ENCODING -1
SWIDTH 500 0
DWIDTH 32 0
BBX 32 5 0 14
BITMAP
FFFFFFFF
FFFFFFFF
FFFFFFFF
FFFFFFFF
FFFFFFFF
ENDCHAR
STARTCHAR dagger
ENCODING -1
SWIDTH 444 0
DWIDTH 28 0
BBX 22 45 3 -1
BITMAP
007800
00FC00
00FE00
01FE00
01FE00
01FE00
01FE00
01FE00
01FE00
01FE00
3FFFF0
7FFFFC
FFFFFC
FFFFFC
7FFFFC
7FFFF8
1FFFE0
00FC00
00FC00
00FE00
00FE00
00FE00
00FE00
00FE00
00FE00
00FE00
00FE00
01FE00
01FE00
01FE00
01FE00
01FE00
01FE00
01FE00
01FE00
01FE00
01FE00
01FE00
01FE00
01FE00
01FE00
01FE00
01FE00
00FC00
007800
ENDCHAR
STARTCHAR daggerdbl
ENCODING -1
SWIDTH 444 0
DWIDTH 28 0
BBX 22 45 3 -1
BITMAP
007800
00FC00
00FE00
01FE00
01FE00
01FE00
01FE00
01FE00
01FE00
01FE00
3FFFF0
7FFFFC
FFFFFC
FFFFFC
7FFFFC
7FFFF8
1FFFE0
00FE00
00FE00
00FE00
00FE00
00FE00
00FE00
00FE00
00FE00
00FE00
00FE00
00FE00
1FFFE0
7FFFF8
7FFFFC
FFFFFC
FFFFFC
7FFFFC
3FFFF0
01FE00
01FE00
01FE00
01FE00
01FE00
01FE00
01FE00
00FE00
00FC00
007800
ENDCHAR
STARTCHAR bullet
ENCODING -1
SWIDTH 500 0
DWIDTH 32 0
BBX 22 22 5 11
BITMAP
00FC00
07FF00
0FFFC0
1FFFE0
3FFFF0
7FFFF0
7FFFF8
7FFFF8
FFFFFC
FFFFFC
FFFFFC
FFFFFC
FFFFFC
FFFFFC
7FFFF8
7FFFF8
7FFFF8
3FFFF0
1FFFE0
0FFFC0
07FF80
00FC00
ENDCHAR
STARTCHAR quotesinglbase
ENCODING -1
SWIDTH 222 0
DWIDTH 14 0
BBX 12 18 1 -7
BITMAP
03C0
07F0
07F0
0FF0
0FF0
1FF0
1FE0
1FE0
3FC0
3FC0
3F80
7F80
7F80
7F00
FF00
FE00
7C00
3800
ENDCHAR
STARTCHAR quotedblbase
ENCODING -1
SWIDTH 389 0
DWIDTH 25 0
BBX 23 18 1 -7
BITMAP
03C07C
07E0FE
0FE0FE
0FF1FE
1FE1FE
1FE1FE
3FE3FE
3FC3FC
3FC3FC
7F87F8
7F87F8
7F0FF0
FF0FF0
FE0FE0
FE0FE0
FE0FC0
FC0FC0
780780
ENDCHAR
STARTCHAR quotedblright
ENCODING -1
SWIDTH 389 0
DWIDTH 25 0
BBX 23 18 1 27
BITMAP
03C07C
07E0FE
0FE0FE
0FF1FE
1FE1FE
1FE1FE
3FE3FE
3FC3FC
3FC3FC
7F87F8
7F87F8
7F0FF0
FF0FF0
FE0FE0
FE0FE0
FE0FC0
FC0FC0
780780
ENDCHAR
STARTCHAR ellipsis
ENCODING -1
SWIDTH 1000 0
DWIDTH 64 0
BBX 52 9 6 -1
BITMAP
3E0001F80007C0
7F0003FC000FE0
FF8003FC001FE0
FF8003FC001FF0
FF8003FC001FF0
FF8003FC001FF0
7F8003FC001FE0
7F0003F8000FE0
3E0000F00007C0
ENDCHAR
STARTCHAR perthousand
ENCODING -1
SWIDTH 1000 0
DWIDTH 64 0
BBX 64 46 0 -1
BITMAP
01F80001C0000000
07FE0003E0000000
0FFF0007E0000000
1FFF8007E0000000
3FFFC00FC0000000
7FFFE01FC0000000
7FFFE01FC0000000
7F0FE03F80000000
FE07F03F00000000
FE07F07F00000000
FE07F07E00000000
FE03F0FE00000000
FE03F0FC00000000
FE07F1FC00000000
FE07F1F800000000
7F07F3F800000000
7F0FE7F000000000
7FFFE7F000000000
3FFFCFE000000000
3FFFCFC000000000
1FFF9FC000000000
0FFF1F8000000000
07FE3F81C0000700
00703F0FF8007FE0
00007F3FFC00FFF0
00007E7FFE01FFF8
0000FE7FFF03FFFC
0000FCFFFF83FFFC
0001FCFFFF87FFFE
0003F9FE3FC7F1FE
0003F9FC1FCFE0FE
0007F1F81FCFE07F
0007E1F80FCFE07F
000FE1F80FCFC07F
000FC1F80FCFC07F
001FC1F80FCFE07F
001F81F80FCFE07F
003F81FC1FCFE07F
003F01FC3FC7F0FE
007F01FFFF87FFFE
00FE00FFFF87FFFC
00FE00FFFF03FFFC
00FC007FFF01FFF8
00F8003FFE01FFF0
00F8001FFC007FE0
00700007F0001F80
ENDCHAR
STARTCHAR circumflex
ENCODING -1
SWIDTH 278 0
DWIDTH 18 0
BBX 20 10 -1 36
BITMAP
01F000
03FC00
07FC00
0FFE00
0FFF00
1F9F80
3F0FC0
7E0FE0
FC07F0
F801F0
ENDCHAR
STARTCHAR tilde
ENCODING -1
SWIDTH 278 0
DWIDTH 18 0
BBX 22 9 -2 37
BITMAP
000018
0FC03C
1FF838
3FFFF8
7FFFF8
7FFFF0
F07FE0
E00F80
C00000
ENDCHAR
STARTCHAR breve
ENCODING -1
SWIDTH 278 0
DWIDTH 18 0
BBX 20 10 -1 36
BITMAP
C00030
E00070
F000F0
F801F0
7FFFE0
7FFFE0
3FFFC0
1FFF80
0FFF00
03FC00
ENDCHAR
STARTCHAR dotaccent
ENCODING -1
SWIDTH 278 0
DWIDTH 18 0
BBX 8 8 5 37
BITMAP
3C
7E
FF
FF
FF
FF
7E
3C
ENDCHAR
STARTCHAR ring
ENCODING -1
SWIDTH 278 0
DWIDTH 18 0
BBX 14 14 2 36
BITMAP
0300
1FE0
3FF0
7FF8
7878
F03C
F03C
F03C
F03C
F878
7FF8
3FF0
1FE0
0FC0
ENDCHAR
STARTCHAR hungarumlaut
ENCODING -1
SWIDTH 278 0
DWIDTH 18 0
BBX 26 15 -4 33
BITMAP
00E00600
01F00F80
03F81F80
03F83FC0
07F07F80
0FE07F00
0FE0FE00
1FC1FC00
3F83F800
3F03F000
7E07E000
FC0FC000
FC0FC000
F80F8000
30020000
ENDCHAR
STARTCHAR ogonek
ENCODING -1
SWIDTH 278 0
DWIDTH 18 0
BBX 15 15 2 -14
BITMAP
0004
007C
03E0
0F80
3F00
7E00
7C00
F800
F800
F800
F80C
FE3E
7FFC
7FF8
1FC0
ENDCHAR
STARTCHAR caron
ENCODING -1
SWIDTH 278 0
DWIDTH 18 0
BBX 20 10 -1 36
BITMAP
F803F0
FE07F0
7E0FE0
3F0FC0
1F9F80
0FFF00
07FE00
07FC00
03FC00
00F000
ENDCHAR
STARTCHAR emdash
ENCODING -1
SWIDTH 1000 0
DWIDTH 64 0
BBX 64 5 0 14
BITMAP
FFFFFFFFFFFFFFFF
FFFFFFFFFFFFFFFF
FFFFFFFFFFFFFFFF
FFFFFFFFFFFFFFFF
FFFFFFFFFFFFFFFF
ENDCHAR
STARTCHAR Lslash
ENCODING -1
SWIDTH 444 0
DWIDTH 28 0
BBX 30 44 -1 0
BITMAP
00F00000
03F80000
03F80000
03FC0000
03FC0000
03FC0000
03FC0000
03FC0000
03FC0000
03FC0000
03FC0000
03FC0000
03FC0000
03FC0000
03FC3800
03FCFE00
03FFFE00
03FFFE00
03FFFE00
03FFFE00
07FFFC00
1FFFF000
7FFFC000
FFFF0000
FFFC0000
FFFC0000
FFFC0000
FFFC0000
7BFC0000
03FC0000
03FC0000
03FC0000
03FC0000
03FC0000
03FC0000
03FC0000
03FFFFE0
03FFFFF8
03FFFFFC
03FFFFFC
03FFFFFC
03FFFFFC
01FFFFF8
00FFFFF0
ENDCHAR
STARTCHAR OE
ENCODING -1
SWIDTH 1000 0
DWIDTH 64 0
BBX 60 46 2 -1
BITMAP
0000FF0000000000
0007FFE03FFFFFC0
001FFFF87FFFFFE0
007FFFFCFFFFFFF0
00FFFFFFFFFFFFF0
01FFFFFFFFFFFFF0
03FFFFFFFFFFFFE0
07FFE3FFFFFFFFE0
0FFF007FFF000000
0FFC003FFF000000
1FF8001FFF000000
1FF0000FFF000000
3FE00007FF000000
3FE00007FF000000
7FC00003FF000000
7FC00003FFFFFFC0
7FC00001FFFFFFE0
7F800001FFFFFFE0
7F800001FFFFFFE0
FF800001FFFFFFE0
FF800001FFFFFFE0
FF800000FFFFFFC0
FF800000FF000000
FF800000FF000000
FF800000FF000000
FF800000FF000000
FF800001FF000000
7F800001FF000000
7F800001FF000000
7FC00001FF000000
7FC00003FF000000
7FC00003FF000000
3FE00003FF000000
3FE00007FF000000
1FF0000FFF000000
1FF8000FFF000000
0FFC003FFF000000
0FFE007FFF000000
07FFC3FFFFFFFFE0
03FFFFFFFFFFFFE0
01FFFFFFFFFFFFF0
00FFFFFFFFFFFFF0
007FFFFEFFFFFFF0
003FFFF87FFFFFE0
0007FFE03FFFFFC0
0001FF0000000000
ENDCHAR
STARTCHAR dotlessi
ENCODING -1
SWIDTH 278 0
DWIDTH 18 0
BBX 8 34 5 0
BITMAP
3C
7E
FE
FF
FF
FF
FF
FF
FF
FF
FF
FF
FF
FF
FF
FF
FF
FF
FF
FF
FF
FF
FF
FF
FF
FF
FF
FF
FF
FF
FF
FE
7E
3C
ENDCHAR
STARTCHAR lslash
ENCODING -1
SWIDTH 278 0
DWIDTH 18 0
BBX 20 46 -1 0
BITMAP
00F000
01F800
03F800
03FC00
03FC00
03FC00
03FC00
03FC00
03FC00
03FC00
03FC00
03FC00
03FC00
03FC00
03FC40
03FFE0
03FFF0
03FFF0
03FFF0
03FFE0
0FFF80
3FFE00
7FFC00
FFFC00
FFFC00
FFFC00
FBFC00
03FC00
03FC00
03FC00
03FC00
03FC00
03FC00
03FC00
03FC00
03FC00
03FC00
03FC00
03FC00
03FC00
03FC00
03FC00
03FC00
03F800
01F800
00F000
ENDCHAR
STARTCHAR oe
ENCODING -1
SWIDTH 833 0
DWIDTH 53 0
BBX 52 35 1 -1
BITMAP
001FE0003F8000
007FFC01FFF000
01FFFE03FFFC00
03FFFF87FFFE00
07FFFFCFFFFF00
0FFFFFFFFFFF00
1FFFFFFFF1FF80
1FF83FFFC07FC0
3FF01FFF803FC0
3FE00FFF001FE0
7FC007FF001FE0
7F8007FE000FE0
7F8003FE000FE0
7F8003FFFFFFE0
7F0003FFFFFFE0
FF0001FFFFFFE0
FF0001FFFFFFE0
FF0001FFFFFFE0
FF0001FFFFFFC0
FF0001FE000000
7F0003FE000000
7F8003FE000000
7F8003FE000000
7F8007FF000000
7FC007FF800000
3FE00FFFC00000
3FE01FFFF00000
1FF83FFFFFFFC0
1FFFFFFFFFFFE0
0FFFFFDFFFFFF0
07FFFF8FFFFFF0
03FFFF07FFFFF0
01FFFE01FFFFE0
007FFC003FFFC0
001FE000000000
ENDCHAR
STARTCHAR trademark
ENCODING -1
SWIDTH 1000 0
DWIDTH 64 0
BBX 58 26 3 18
BITMAP
FFFFFC1FF0007FC0
FFFFFC1FF800FFC0
FFFFFC1FF800FFC0
FFFFFC1FF801FFC0
FFFFFC1FFC01FFC0
01FC001FFC01FFC0
01FC001FFE03FFC0
01FC001FFE03FFC0
01FC001FBE07EFC0
01FC001FBF07EFC0
01FC001FBF07CFC0
01FC001F9F8FCFC0
01FC001F9F8FCFC0
01FC001F9F8F8FC0
01FC001F8FDF8FC0
01FC001F8FDF8FC0
01FC001F87FF0FC0
01FC001F87FF0FC0
01FC001F87FE0FC0
01FC001F83FE0FC0
01FC001F83FE0FC0
01FC001F83FC0FC0
01FC001F81FC0FC0
01FC001F81FC0FC0
01FC001F81F80FC0
01FC001F80F80FC0
ENDCHAR
STARTCHAR minus
ENCODING -1
SWIDTH 600 0
DWIDTH 38 0
BBX 32 7 3 13
BITMAP
FFFFFFFF
FFFFFFFF
FFFFFFFF
FFFFFFFF
FFFFFFFF
FFFFFFFF
FFFFFFFF
ENDCHAR
STARTCHAR Scaron
ENCODING -1
SWIDTH 611 0
DWIDTH 39 0
BBX 35 55 2 0
BITMAP
007C01F000
007E03F000
003F07E000
003F8FC000
001F9F8000
000FFF8000
0007FF0000
0003FE0000
0001FC0000
0000F00000
0000000000
007FFFF800
03FFFFFC00
0FFFFFFE00
1FFFFFFE00
3FFFFFFE00
3FFFFFFE00
7FFFFFFC00
7FFFFFF000
7FC0000000
FF80000000
FF80000000
FF80000000
7FE0000000
7FFE000000
7FFFF00000
3FFFFF0000
3FFFFFE000
1FFFFFF800
07FFFFFC00
03FFFFFE00
003FFFFF00
0003FFFF80
00000FFF80
000003FFC0
000000FFC0
0000007FC0
0000003FE0
0000003FE0
0000003FE0
0000003FE0
0000003FE0
0000003FC0
0000007FC0
0000007FC0
000000FF80
000007FF80
3FFFFFFF00
7FFFFFFF00
FFFFFFFE00
FFFFFFFC00
FFFFFFF800
FFFFFFE000
FFFFFFC000
3FFFFC0000
ENDCHAR
STARTCHAR Ydieresis
ENCODING -1
SWIDTH 556 0
DWIDTH 36 0
BBX 33 54 1 0
BITMAP
00F001E000
01F803F000
01FC07F000
03FC07F800
03FC07F800
01FC07F000
01F803F000
007001E000
0000000000
0000000000
3C00000F00
7E00003F80
FF00003F80
FF00007F80
FF80007F80
FF80007F80
FF8000FF80
7FC000FF80
7FC001FF00
3FE001FF00
3FE003FF00
1FF003FE00
1FF007FC00
0FF80FFC00
0FFC0FF800
07FE1FF800
03FF3FF000
01FFFFE000
01FFFFC000
00FFFF8000
007FFF0000
003FFE0000
001FFC0000
000FF80000
000FF80000
000FF80000
000FF80000
000FF80000
000FF80000
000FF80000
000FF80000
000FF80000
000FF80000
000FF80000
000FF80000
000FF80000
000FF80000
000FF80000
000FF80000
000FF80000
0007F80000
0007F80000
0007F00000
0001E00000
ENDCHAR
STARTCHAR Zcaron
ENCODING -1
SWIDTH 500 0
DWIDTH 32 0
BBX 29 55 2 0
BITMAP
07C01F80
07E03F00
03F07F00
01F8FE00
00FCFC00
007FF800
007FF000
003FE000
001FC000
000F8000
00000000
1FFFFFC0
3FFFFFE0
3FFFFFF0
7FFFFFF0
7FFFFFF0
3FFFFFF0
3FFFFFF0
0FFFFFF0
00000FF0
00001FF0
00001FE0
00003FE0
00003FE0
00007FC0
0000FFC0
0001FF80
0003FF00
0007FF00
000FFE00
001FFC00
003FF800
007FF000
00FFF000
01FFE000
03FFC000
07FF0000
0FFE0000
1FFC0000
1FF80000
3FF00000
3FE00000
7FC00000
7FC00000
FF800000
FF000000
FF000000
FFFFFFC0
FFFFFFF0
FFFFFFF8
FFFFFFF8
FFFFFFF8
FFFFFFF8
7FFFFFF0
1FFFFFE0
ENDCHAR
STARTCHAR scaron
ENCODING -1
SWIDTH 500 0
DWIDTH 32 0
BBX 28 46 2 0
BITMAP
0FC03F00
0FE07F00
07F0FE00
03F0FC00
01F9F800
00FFF000
007FE000
007FC000
003FC000
000F0000
00000000
00000000
00000000
01FFFF00
0FFFFF80
1FFFFFC0
3FFFFFC0
7FFFFFC0
7FFFFF80
7FFFFF00
FF000000
FF000000
FF000000
FFE00000
7FFF8000
7FFFF800
3FFFFE00
3FFFFF80
0FFFFFC0
03FFFFE0
007FFFE0
0000FFF0
00001FF0
00000FF0
00000FF0
00000FF0
00000FF0
00000FF0
00003FF0
7FFFFFE0
FFFFFFE0
FFFFFFC0
FFFFFFC0
FFFFFF00
FFFFFE00
7FFFF000
ENDCHAR
STARTCHAR zcaron
ENCODING -1
SWIDTH 444 0
DWIDTH 28 0
BBX 26 46 1 0
BITMAP
1F803E00
0FC07E00
0FE0FC00
07F1F800
03F3F000
01FFE000
00FFE000
007FC000
003F8000
001E0000
00000000
00000000
00000000
1FFFFF00
3FFFFF80
3FFFFF80
3FFFFFC0
3FFFFFC0
3FFFFFC0
1FFFFF80
0000FF80
0000FF80
0001FF00
0003FF00
0007FE00
001FFC00
003FFC00
007FF800
00FFF000
01FFC000
03FF8000
07FF0000
0FFE0000
1FFC0000
3FF00000
3FE00000
7FC00000
7FC00000
FF800000
FFFFFF80
FFFFFFC0
FFFFFFC0
FFFFFFC0
FFFFFFC0
7FFFFFC0
3FFFFF80
ENDCHAR
STARTCHAR Delta
ENCODING -1
SWIDTH 709 0
DWIDTH 45 0
BBX 42 44 2 0
BITMAP
0000FFC00000
0000FFC00000
0001FFC00000
0001FFE00000
0003FFE00000
0003FFF00000
0007FFF00000
0007F7F80000
0007F7F80000
000FE7F80000
000FE3FC0000
001FE3FC0000
001FC3FE0000
001FC1FE0000
003FC1FE0000
003F80FF0000
007F80FF0000
007F80FF8000
007F007F8000
00FF007F8000
00FE003FC000
01FE003FC000
01FC003FE000
03FC001FE000
03FC001FE000
03F8000FF000
07F8000FF000
07F0000FF800
0FF00007F800
0FE00007F800
0FE00003FC00
1FE00003FC00
1FC00001FE00
3FC00001FE00
3F800001FF00
3F800000FF00
7F800000FF00
7F0000007F80
FFFFFFFFFF80
FFFFFFFFFFC0
FFFFFFFFFFC0
FFFFFFFFFFC0
FFFFFFFFFFC0
FFFFFFFFFFC0
ENDCHAR
STARTCHAR Omega
ENCODING -1
SWIDTH 786 0
DWIDTH 50 0
BBX 44 44 3 0
BITMAP
00007FE00000
0003FFFE0000
001FFFFF8000
003FFFFFC000
00FFFFFFF000
01FFFFFFF800
03FFE03FFC00
07FF000FFE00
07FE0003FF00
0FF80001FF00
1FF00000FF80
1FF000007F80
3FE000007FC0
3FE000003FC0
3FC000003FE0
7FC000001FE0
7F8000001FE0
7F8000001FE0
7F8000001FE0
7F8000001FE0
7F8000001FE0
7F8000000FE0
7F8000001FE0
7F8000001FE0
7F8000001FE0
7F8000001FE0
3F8000001FC0
3F8000001FC0
3FC000001FC0
1FC000003F80
1FC000003F80
0FE000007F00
07E000007E00
07F00000FE00
03F80000FC00
01F80001F800
00FC0003F000
007E0007E000
FFFF800FFFF0
FFFFC03FFFF0
FFFFC03FFFF0
FFFFC03FFFF0
FFFFC03FFFF0
FFFFC03FFFF0
ENDCHAR
STARTCHAR pi
ENCODING -1
SWIDTH 641 0
DWIDTH 41 0
BBX 40 32 0 0
BITMAP
0FFFFFFFFF
7FFFFFFFFF
FFFFFFFFFF
7FFFFFFFFF
7FFFFFFFFE
7FFFFFFFFE
40FF003FC0
00FF003FC0
00FF003FC0
00FF003FC0
00FF003FC0
00FF003FC0
00FF003FC0
00FE003FC0
00FE003FC0
00FE003FC0
01FE003FC0
01FE003FC0
01FE003FC0
01FE003FC0
01FC003FC0
01FC003FC0
03FC003FC0
03FC003FC0
03FC003FC0
03F8003FC0
07F8003FC0
07F8001FC0
07F8001FE0
07F0001FE0
0FF0001FE0
0FF0001FE0
ENDCHAR
STARTCHAR Euro
ENCODING -1
SWIDTH 611 0
DWIDTH 39 0
BBX 37 45 1 -1
BITMAP
0000FFFFE0
0007FFFFF0
000FFFFFF8
001FFFFFF8
007FFFFFF8
007FFFFFF8
00FFFFFFF0
01FFFFFFC0
01FFC00000
03FF000000
03FE000000
03FE000000
7FFFFFE000
FFFFFFF000
FFFFFFF000
FFFFFFF000
FFFFFFF000
7FFFFFE000
07F8000000
07F8000000
07F8000000
07FC000000
7FFFFFE000
FFFFFFF000
FFFFFFF000
FFFFFFF000
FFFFFFF000
7FFFFFE000
01FF000000
01FF800000
01FFC00000
00FFE00000
00FFF00000
007FF80000
003FFE0000
001FFF8000
001FFFF000
000FFFFFE0
0003FFFFF8
0001FFFFF8
0000FFFFF8
00003FFFF8
00000FFFF8
000003FFF0
0000003FE0
ENDCHAR
STARTCHAR estimated
ENCODING -1
SWIDTH 844 0
DWIDTH 54 0
BBX 50 46 2 -1
BITMAP
00000FFC000000
0000FC1FC00000
0003C000F00000
000F00003C0000
003C00000F0000
00780000078000
00F0000003C000
01E0000000E000
03C0000000F000
07800000007800
0F800000007C00
1F800000007C00
1F800000007E00
3F800000007E00
3F800000007F00
3F800000007F00
7F800000007F80
7F800000007F80
7F800000007F80
FF800000007F80
FF800000007FC0
FF800000007FC0
FF800000007FC0
FFFFFFFFFFFFC0
FF800000000000
FF800000000000
FF800000000000
FF800000000000
7F800000000000
7F800000000000
7F800000000000
3F800000000000
3F800000000000
1F800000000000
1F800000000000
0F800000000000
07800000000000
07800000007000
03C0000000E000
01E0000001C000
00780000038000
003C00000F0000
000F00003C0000
0007C000F00000
0000FC0FC00000
00000FFC000000
ENDCHAR
STARTCHAR partialdiff
ENCODING -1
SWIDTH 610 0
DWIDTH 39 0
BBX 34 49 2 0
BITMAP
003FF00000
03FFFC0000
0FFFFF0000
1FFFFFC000
1FFFFFE000
1FFFFFF000
0FC07FF800
0E000FF800
000007FC00
000003FE00
000001FE00
000001FF00
000000FF00
0000007F00
0000007F80
0000007F80
0000003F80
0000003F80
000FC03F80
007FF83FC0
01FFFE3FC0
03FFFF3FC0
07FFFFBFC0
0FFFFFFFC0
1FFC0FFFC0
1FF003FFC0
3FE001FFC0
3FC000FFC0
7FC0007FC0
7F80007F80
7F80007F80
7F00007F80
7F00007F80
FF00007F80
FF0000FF00
7F0000FF00
7F0000FF00
7F8001FE00
7F8003FE00
7F8003FC00
3FC007FC00
3FE00FF800
1FF83FF000
1FFFFFE000
0FFFFFC000
07FFFF8000
03FFFF0000
00FFFC0000
001FE00000
ENDCHAR
STARTCHAR product
ENCODING -1
SWIDTH 767 0
DWIDTH 49 0
BBX 46 49 2 -6
BITMAP
FFFFFFFFFFFC
FFFFFFFFFFFC
FFFFFFFFFFFC
FFFFFFFFFFFC
FFFFFFFFFFFC
FFFFFFFFFFFC
FFFFFFFFFFFC
01FC0001FC00
01FC0001FC00
01FC0001FC00
01FC0001FC00
01FC0001FC00
01FC0001FC00
01FC0001FC00
01FC0001FC00
01FC0001FC00
01FC0001FC00
01FC0001FC00
01FC0001FC00
01FC0001FC00
01FC0001FC00
01FC0001FC00
01FC0001FC00
01FC0001FC00
01FC0001FC00
01FC0001FC00
01FC0001FC00
01FC0001FC00
01FC0001FC00
01FC0001FC00
01FC0001FC00
01FC0001FC00
01FC0001FC00
01FC0001FC00
01FC0001FC00
01FC0001FC00
01FC0001FC00
01FC0001FC00
01FC0001FC00
01FC0001FC00
01FC0001FC00
01FC0001FC00
01FC0001FC00
01FC0001FC00
01FC0001FC00
01FC0001FC00
01FC0001FC00
01FC0001FC00
01FC0001FC00
ENDCHAR
STARTCHAR summation
ENCODING -1
SWIDTH 602 0
DWIDTH 39 0
BBX 36 49 1 -6
BITMAP
7FFFFFFFE0
7FFFFFFFE0
7FFFFFFFE0
7FFFFFFFE0
7FFFFFFFE0
7FFFFFFFE0
3FF0000000
1FF8000000
0FF8000000
07FC000000
03FE000000
01FF000000
01FF800000
00FFC00000
007FE00000
003FE00000
001FF00000
000FF80000
000FFC0000
0007FE0000
0003FF0000
0001FF8000
0000FF8000
00007FC000
00007FC000
00007F8000
0000FF0000
0001FE0000
0003FC0000
0007F80000
000FF00000
000FF00000
001FE00000
003FC00000
007F800000
00FF000000
01FE000000
03FC000000
03FC000000
07F8000000
0FF0000000
1FE0000000
3FFFFFFFF0
7FFFFFFFF0
FFFFFFFFF0
FFFFFFFFF0
FFFFFFFFF0
FFFFFFFFF0
FFFFFFFFF0
ENDCHAR
STARTCHAR uni2219
ENCODING -1
SWIDTH 305 0
DWIDTH 20 0
BBX 9 9 5 12
BITMAP
1E00
7F00
7F80
FF80
FF80
FF80
FF80
7F00
3E00
ENDCHAR
STARTCHAR radical
ENCODING -1
SWIDTH 626 0
DWIDTH 40 0
BBX 39 60 2 -9
BITMAP
000000007E
000000007C
000000007C
00000000FC
00000000FC
00000000F8
00000000F8
00000001F8
00000001F8
00000001F0
00000001F0
00000003F0
00000003E0
00000003E0
00000003E0
00000007E0
00000007C0
00000007C0
00000007C0
0000000FC0
0000000F80
0000000F80
0000000F80
0000001F80
0000001F00
0000001F00
0020001F00
01E0003F00
07F0003E00
3FF0003E00
FFF8003E00
FFF8007E00
7FF8007C00
71FC007C00
01FC00FC00
00FC00FC00
00FE00F800
00FE00F800
007F01F800
007F01F800
003F01F000
003F81F000
003F83F000
001F83F000
001FC3E000
001FC3E000
000FC7E000
000FE7C000
0007E7C000
0007E7C000
0007F7C000
0003FF8000
0003FF8000
0001FF8000
0001FF8000
0001FF0000
0000FF0000
0000FF0000
0000FF0000
00007E0000
ENDCHAR
STARTCHAR infinity
ENCODING -1
SWIDTH 799 0
DWIDTH 51 0
BBX 45 21 3 7
BITMAP
01FC0001FC00
07FF8007FF00
0FFFC00FFFC0
1FFFE03FFFE0
3F07F87F07E0
7C01FCFC01F0
7C007DF801F0
78003FF000F8
F8001FE000F8
F8000FC00078
F0000F800078
F8001FC000F8
F8003FE000F8
78007FF000F0
7C00FDF801F0
7E01F8FC03F0
3F87F07F8FE0
1FFFE03FFFC0
0FFFC01FFF80
07FF0007FF00
01FC0001FC00
ENDCHAR
STARTCHAR integral
ENCODING -1
SWIDTH 395 0
DWIDTH 25 0
BBX 23 63 1 -10
BITMAP
0001FE
0007FE
000FFE
001FFE
003FFE
003FC0
007F80
007F00
007E00
00FE00
00FE00
00FE00
00FE00
00FE00
00FE00
00FC00
00FC00
00FC00
00FC00
00FE00
00FE00
00FE00
00FE00
00FE00
00FE00
00FE00
00FE00
00FE00
00FE00
00FE00
00FE00
007E00
007E00
007E00
007E00
007E00
007E00
007E00
007E00
007E00
007E00
007E00
007E00
007E00
007E00
007E00
007F00
007E00
007E00
007E00
007E00
007E00
007E00
00FE00
00FE00
00FC00
01FC00
03FC00
7FF800
FFF800
FFF000
FFE000
FF8000
ENDCHAR
STARTCHAR approxequal
ENCODING -1
SWIDTH 590 0
DWIDTH 38 0
BBX 32 21 3 7
BITMAP
03FC0004
0FFF000E
3FFF801F
7FFFE03E
7E0FFDFE
F803FFFC
F001FFF8
60007FF0
20000FC0
00000000
00000000
00000000
03FC0004
0FFF000E
3FFF801F
7FFFE03E
7E0FFCFE
F803FFFC
F001FFF8
70007FF0
20000FC0
ENDCHAR
STARTCHAR notequal
ENCODING -1
SWIDTH 590 0
DWIDTH 38 0
BBX 31 33 3 1
BITMAP
00000400
00000F00
00000F00
00001F00
00001E00
00003E00
00003C00
00003C00
FFFFFFFE
FFFFFFFE
FFFFFFFE
FFFFFFFE
0001F000
0001E000
0001E000
0003C000
0003C000
00078000
00078000
000F8000
000F0000
FFFFFFFE
FFFFFFFE
FFFFFFFE
FFFFFFFE
003C0000
00780000
00780000
00F80000
00F00000
01F00000
01E00000
00600000
ENDCHAR
STARTCHAR lessequal
ENCODING -1
SWIDTH 590 0
DWIDTH 38 0
BBX 31 40 3 0
BITMAP
00000002
0000000E
0000003E
000000FE
000003FE
00000FFC
00007FF0
0001FFC0
0007FF00
001FF800
007FE000
01FF8000
07FE0000
1FF00000
7FC00000
7F000000
7C000000
7E000000
7F800000
7FE00000
0FF80000
03FF0000
00FFC000
003FF000
000FFC00
0003FF80
0000FFE0
00003FF8
000007FE
000001FE
0000007E
0000001E
00000006
00000000
00000000
00000000
FFFFFFFE
FFFFFFFE
FFFFFFFE
FFFFFFFE
ENDCHAR
STARTCHAR greaterequal
ENCODING -1
SWIDTH 590 0
DWIDTH 38 0
BBX 31 40 3 0
BITMAP
40000000
70000000
7C000000
7F000000
7FC00000
3FF00000
0FFC0000
03FF8000
00FFE000
001FF800
0007FE00
0001FF80
00007FE0
00000FF8
000003FE
000000FE
0000003E
0000007E
000001FE
000007FE
00003FF8
0000FFC0
0003FF00
000FFC00
003FF000
01FFC000
07FF0000
1FFC0000
7FE00000
7F800000
7E000000
78000000
60000000
00000000
00000000
00000000
FFFFFFFE
FFFFFFFE
FFFFFFFE
FFFFFFFE
ENDCHAR
STARTCHAR lozenge
ENCODING -1
SWIDTH 626 0
DWIDTH 40 0
BBX 34 49 3 -3
BITMAP
0003F00000
0007F80000
0007F80000
000FFC0000
000FFE0000
001FFE0000
003FFF0000
003F3F0000
007F3F8000
007E1F8000
00FE1FC000
00FC0FC000
01FC0FE000
01F807F000
03F807F000
07F003F800
07E003F800
0FE001FC00
0FC000FC00
1FC000FE00
1F80007E00
3F80007F00
3F00003F80
7F00003F80
FE00001FC0
7F00003F80
7F00003F80
3F80007F00
1F80007E00
1FC000FE00
0FC000FC00
0FE001FC00
07E001F800
07F003F800
03F803F000
03F807F000
01FC0FE000
00FC0FC000
00FE1FC000
007E1F8000
007F3F8000
003F3F0000
003FFF0000
001FFE0000
001FFC0000
000FFC0000
000FF80000
0007F80000
0003F00000
ENDCHAR
STARTCHAR uni02C9
ENCODING -1
SWIDTH 278 0
DWIDTH 18 0
BBX 19 5 -1 38
BITMAP
7FFFE0
FFFFE0
FFFFE0
FFFFE0
7FFFE0
ENDCHAR
STARTCHAR uni03A9
ENCODING -1
SWIDTH 786 0
DWIDTH 50 0
BBX 44 44 3 0
BITMAP
00007FE00000
0003FFFE0000
001FFFFF8000
003FFFFFC000
00FFFFFFF000
01FFFFFFF800
03FFE03FFC00
07FF000FFE00
07FE0003FF00
0FF80001FF00
1FF00000FF80
1FF000007F80
3FE000007FC0
3FE000003FC0
3FC000003FE0
7FC000001FE0
7F8000001FE0
7F8000001FE0
7F8000001FE0
7F8000001FE0
7F8000001FE0
7F8000000FE0
7F8000001FE0
7F8000001FE0
7F8000001FE0
7F8000001FE0
3F8000001FC0
3F8000001FC0
3FC000001FC0
1FC000003F80
1FC000003F80
0FE000007F00
07E000007E00
07F00000FE00
03F80000FC00
01F80001F800
00FC0003F000
007E0007E000
FFFF800FFFF0
FFFFC03FFFF0
FFFFC03FFFF0
FFFFC03FFFF0
FFFFC03FFFF0
FFFFC03FFFF0
ENDCHAR
STARTCHAR afii61289
ENCODING -1
SWIDTH 552 0
DWIDTH 35 0
BBX 32 48 2 0
BITMAP
0003F000
001FFC00
003FFF00
007FFF80
00FFFF80
00FF9FC0
01FE0FC0
01FC07C0
03FC07E0
03F807E0
03F807E0
03F807E0
03F807E0
07F807E0
07F807C0
07F80FC0
07F80FC0
07F80F80
07F81F80
07F83F00
07F83F00
07F87E00
07F8FE00
07F9FC00
07FBF800
07FFF000
07FFE000
07FFE000
07FFC000
07FF8000
07FE0000
07FC0000
0FF80000
1FF80000
7FF80000
FFF80000
FFF80008
7FF8001C
73FC003E
03FC007F
03FE00FE
01FF83FC
01FFFFFC
00FFFFF8
00FFFFF0
003FFFC0
001FFF00
0003FC00
ENDCHAR
STARTCHAR uni03BC
ENCODING -1
SWIDTH 556 0
DWIDTH 36 0
BBX 28 48 4 -14
BITMAP
3C0003C0
7E0007E0
FE000FE0
FF000FF0
FF000FF0
FF000FF0
FF000FF0
FF000FF0
FF000FF0
FF000FF0
FF000FF0
FF000FF0
FF000FF0
FF000FF0
FF000FF0
FF000FF0
FF000FF0
FF000FF0
FF000FF0
FF000FF0
FF000FF0
FF000FF0
FF001FF0
FF001FF0
FF001FF0
FF003FF0
FF807FF0
FFC0FFF0
FFFFFFF0
FFFFFFF0
FFFFFFF0
FFFFFFF0
FFFFEFE0
FFFF87E0
FFFE03C0
FF000000
FF000000
FF000000
FF000000
FF000000
FF000000
FF000000
FF000000
FF000000
FF000000
FE000000
7E000000
3C000000
ENDCHAR
STARTCHAR uni2215
ENCODING -1
SWIDTH 167 0
DWIDTH 11 0
BBX 33 46 -11 -1
BITMAP
0000001E00
0000003F00
0000003F80
0000007F80
000000FF80
000000FF00
000001FF00
000003FE00
000003FC00
000007FC00
00000FF800
00000FF000
00001FF000
00003FE000
00003FC000
00007FC000
0000FF8000
0000FF0000
0001FF0000
0003FE0000
0003FC0000
0007FC0000
000FF80000
000FF00000
001FF00000
003FE00000
003FC00000
007FC00000
00FF800000
00FF000000
01FF000000
03FE000000
03FC000000
07FC000000
0FF8000000
0FF0000000
1FF0000000
1FE0000000
3FC0000000
7FC0000000
FF80000000
FF00000000
FF00000000
FE00000000
7C00000000
3800000000
ENDCHAR
ENDFONT
